<svg aria-hidden="true" style="width:0;height:0;position:absolute;overflow:hidden" xmlns="http://www.w3.org/2000/svg"><defs><symbol id="icon-burger" viewBox="0 0 32 32"><path stroke-linejoin="round" stroke-linecap="round" stroke-width="2" d="M28 13.333H4M28 8H4M28 18.667H4M28 24H4"/></symbol><symbol id="icon-shopping-cart" viewBox="0 0 32 32"><path stroke-linejoin="round" stroke-linecap="round" stroke-width="2.667" d="M12 29.333a1.333 1.333 0 1 0 0-2.667 1.333 1.333 0 0 0 0 2.667zM26.667 29.333a1.333 1.333 0 1 0 0-2.667 1.333 1.333 0 0 0 0 2.667z"/><path stroke-linejoin="round" stroke-linecap="round" stroke-width="2.4" d="M1.333 1.333h5.333l3.573 17.853a2.671 2.671 0 0 0 2.666 2.147h12.96a2.667 2.667 0 0 0 2.666-2.147l2.133-11.187H7.997"/></symbol><symbol id="icon-switch" viewBox="0 0 50 32"><path fill="#cecdcd" style="fill:var(--color1,#cecdcd)" d="M13.176 6.902H29.49a6.274 6.274 0 0 1 0 12.549H13.176a6.274 6.274 0 0 1 0-12.548z"/><path fill="#f8f8f8" style="fill:var(--color2,#f8f8f8)" d="M19.074 13.177a5.898 5.898 0 1 1-11.797-.001 5.898 5.898 0 0 1 11.797.001z"/></symbol><symbol id="icon-x" viewBox="0 0 32 32"><path fill="none" stroke="#f8f8f8" style="stroke:var(--color2,#f8f8f8)" stroke-linejoin="round" stroke-linecap="round" stroke-width="2" d="M24 8 8 24M8 8l16 16"/></symbol><symbol id="icon-strilka-left" viewBox="0 0 32 32"><path fill="#f8f8f8" style="fill:var(--color1,#f8f8f8)" opacity=".5" d="M14.133 16.947a1.326 1.326 0 0 1-.288-1.469l-.003.009c.071-.169.17-.313.292-.433l6.12-6.107a1.335 1.335 0 1 0-1.879-1.894l-.001.001-6.12 6.12c-.723.724-1.17 1.723-1.17 2.827s.447 2.103 1.17 2.827l6.12 6.12a1.334 1.334 0 1 0 1.88-1.894l-6.12-6.107z"/></symbol><symbol id="icon-strilka-right" viewBox="0 0 32 32"><path d="M17.867 16.947a1.326 1.326 0 0 0 .288-1.469l.003.009a1.333 1.333 0 0 0-.292-.433l-6.12-6.107a1.333 1.333 0 0 1 .94-2.281c.367 0 .699.148.94.388l6.12 6.12c.723.724 1.17 1.723 1.17 2.827s-.447 2.103-1.17 2.827l-6.12 6.12a1.334 1.334 0 1 1-1.88-1.894l6.12-6.107z"/></symbol><symbol id="icon-burger" viewBox="0 0 32 32"><path stroke-linejoin="round" stroke-linecap="round" stroke-width="2" d="M28 13.333H4M28 8H4m24 10.667H4M28 24H4"/></symbol><symbol id="icon-heart-filled" viewBox="0 0 32 32"><path fill="#f8f8f8" style="fill:var(--color1,#f8f8f8)" d="M15.991 6.848C13.325 3.731 8.878 2.892 5.539 5.747c-3.34 2.854-3.811 7.625-1.187 11.001 2.182 2.806 8.781 8.724 10.944 10.64.241.214.364.321.505.364a.677.677 0 0 0 .386-.001l-.005.001c.141-.042.262-.15.503-.364 2.164-1.916 8.764-7.834 10.944-10.64 2.623-3.375 2.211-8.177-1.187-11.001-3.398-2.825-7.786-2.016-10.451 1.101z"/></symbol><symbol id="icon-heart-notfilled" viewBox="0 0 32 32"><path fill="none" opacity=".5" stroke="#f8f8f8" style="stroke:var(--color1,#f8f8f8)" stroke-linejoin="round" stroke-linecap="round" stroke-width="2.909" d="M15.991 6.848C13.325 3.731 8.878 2.892 5.54 5.747c-3.341 2.854-3.811 7.625-1.188 11.001 2.182 2.806 8.781 8.724 10.944 10.64.241.214.364.321.505.364a.678.678 0 0 0 .386-.002l-.005.001c.141-.042.262-.15.503-.364 2.164-1.916 8.764-7.834 10.944-10.64 2.624-3.375 2.211-8.177-1.187-11.001-3.398-2.825-7.785-2.016-10.451 1.101z"/></symbol><symbol id="icon-korzynka" viewBox="0 0 32 32"><path stroke-linejoin="round" stroke-linecap="round" stroke-width="2.667" d="M12 29.333a1.333 1.333 0 0 0 0-2.666 1.333 1.333 0 0 0 0 2.666zm14.667 0a1.333 1.333 0 0 0 0-2.666 1.333 1.333 0 0 0 0 2.666z"/><path stroke-linejoin="round" stroke-linecap="round" stroke-width="2.4" d="M1.333 1.333h5.333l3.573 17.853a2.671 2.671 0 0 0 2.616 2.147l.054-.001h-.003H25.917a2.668 2.668 0 0 0 2.613-2.13l.003-.017 2.133-11.187H7.999"/></symbol><symbol id="icon-krestik-green" viewBox="0 0 32 32"><path stroke-linejoin="round" stroke-linecap="round" stroke-width="3" d="M24 8 8 24M8 8l16 16"/></symbol><symbol id="icon-krestik-modalka" viewBox="0 0 32 32"><path stroke-linejoin="round" stroke-linecap="round" stroke-width="2.667" d="M24 8 8 24M8 8l16 16"/></symbol><symbol id="icon-search-desktop" viewBox="0 0 32 32"><path d="M28.948 27.054 24 22.147a11.926 11.926 0 0 0 2.639-7.508c0-6.627-5.373-12-12-12s-12 5.373-12 12 5.373 12 12 12c2.852 0 5.472-.995 7.531-2.657l-.023.018 4.907 4.907a1.333 1.333 0 0 0 1.894 0 1.33 1.33 0 0 0-.001-1.853zM14.667 24a9.333 9.333 0 1 1 0-18.666 9.333 9.333 0 1 1 0 18.666z"/></symbol><symbol id="icon-shefs-hat" viewBox="0 0 37 32"><path fill="#9bb537" style="fill:var(--color2,#9bb537)" d="M7.325 12.723h23.133v17.735H7.325V12.723z"/><path fill="#9bb537" style="fill:var(--color2,#9bb537)" d="M16.578 11.373a8.289 8.289 0 1 1-16.578 0 8.289 8.289 0 1 1 16.578 0z"/><path fill="#9bb537" style="fill:var(--color2,#9bb537)" d="M26.988 8.289a8.289 8.289 0 1 1-16.578 0 8.289 8.289 0 1 1 16.578 0z"/><path fill="#9bb537" style="fill:var(--color2,#9bb537)" d="M37.398 11.373a8.289 8.289 0 1 1-16.578 0 8.289 8.289 0 1 1 16.578 0z"/><path fill="#f8f8f8" style="fill:var(--color1,#f8f8f8)" d="M7.325 29.301h23.133v2.036c0 .366-.324.663-.723.663H8.048c-.399 0-.723-.297-.723-.663v-2.036zm6.94-18.941c0-.611.432-1.107.964-1.107s.964.495.964 1.107v5.112c0 .611-.432 1.107-.964 1.107s-.964-.495-.964-1.107V10.36zm3.084 0c0-.611.604-1.107 1.349-1.107s1.349.495 1.349 1.107v5.112c0 .611-.604 1.107-1.349 1.107s-1.349-.495-1.349-1.107V10.36zm3.856 0c0-.611.432-1.107.964-1.107s.964.495.964 1.107v5.112c0 .611-.432 1.107-.964 1.107s-.964-.495-.964-1.107V10.36z"/><path fill="#050505" style="fill:var(--color3,#050505)" d="M28.184 3.131c.262-.029.566-.045.874-.045h.005a8.332 8.332 0 0 1 7.938 5.746 8.333 8.333 0 0 1-8.816-5.7z"/></symbol><symbol id="icon-star" viewBox="0 0 34 32"><path d="M6.049.927c.3-.921 1.603-.921 1.902 0l.845 2.6a1 1 0 0 0 .951.692h2.735c.969 0 1.371 1.24.588 1.809l-2.213 1.607a1 1 0 0 0-.363 1.118l.845 2.601c.3.921-.755 1.688-1.539 1.118l-2.212-1.607a1 1 0 0 0-1.176 0L4.2 12.472c-.784.57-1.838-.197-1.539-1.118l.845-2.6a1 1 0 0 0-.363-1.119L.93 6.028c-.783-.57-.38-1.81.588-1.81h2.735a1 1 0 0 0 .95-.69l.846-2.6Z" fill="#EEA10C"/></symbol><symbol id="icon-star-grey" viewBox="0 0 34 32"><path d="M6.049.927c.3-.921 1.603-.921 1.902 0l.845 2.6a1 1 0 0 0 .951.692h2.735c.969 0 1.371 1.24.588 1.809l-2.213 1.607a1 1 0 0 0-.363 1.118l.845 2.601c.3.921-.755 1.688-1.539 1.118l-2.212-1.607a1 1 0 0 0-1.176 0L4.2 12.472c-.784.57-1.838-.197-1.539-1.118l.845-2.6a1 1 0 0 0-.363-1.119L.93 6.028c-.783-.57-.38-1.81.588-1.81h2.735a1 1 0 0 0 .95-.69l.846-2.6Z" fill="gray"/></symbol><symbol id="icon-korzynka1" viewBox="0 0 32 32"><path stroke-linejoin="round" stroke-linecap="round" stroke-width="2.667" d="M12 29.333a1.333 1.333 0 0 0 0-2.666 1.333 1.333 0 0 0 0 2.666zm14.667 0a1.333 1.333 0 0 0 0-2.666 1.333 1.333 0 0 0 0 2.666z"/><path stroke-linejoin="round" stroke-linecap="round" stroke-width="2.4" d="M1.333 1.333h5.333l3.573 17.853a2.671 2.671 0 0 0 2.616 2.147l.054-.001h-.003H25.917a2.668 2.668 0 0 0 2.613-2.13l.003-.017 2.133-11.187H7.999"/></symbol></defs></svg>