<svg aria-hidden="true" style="width:0;height:0;position:absolute;overflow:hidden" xmlns="http://www.w3.org/2000/svg"><defs><symbol id="icon-burger" viewBox="0 0 32 32"><path stroke-linejoin="round" stroke-linecap="round" stroke-width="2" d="M28 13.333H4M28 8H4M28 18.667H4M28 24H4"/></symbol><symbol id="icon-shopping-cart" viewBox="0 0 32 32"><path stroke-linejoin="round" stroke-linecap="round" stroke-width="2.667" d="M12 29.333a1.333 1.333 0 1 0 0-2.667 1.333 1.333 0 0 0 0 2.667zM26.667 29.333a1.333 1.333 0 1 0 0-2.667 1.333 1.333 0 0 0 0 2.667z"/><path stroke-linejoin="round" stroke-linecap="round" stroke-width="2.4" d="M1.333 1.333h5.333l3.573 17.853a2.671 2.671 0 0 0 2.666 2.147h12.96a2.667 2.667 0 0 0 2.666-2.147l2.133-11.187H7.997"/></symbol><symbol id="icon-switch" viewBox="0 0 50 32"><path fill="#cecdcd" style="fill:var(--color1,#cecdcd)" d="M13.176 6.902H29.49a6.274 6.274 0 0 1 0 12.549H13.176a6.274 6.274 0 0 1 0-12.548z"/><path fill="#f8f8f8" style="fill:var(--color2,#f8f8f8)" d="M19.074 13.177a5.898 5.898 0 1 1-11.797-.001 5.898 5.898 0 0 1 11.797.001z"/></symbol><symbol id="icon-x" viewBox="0 0 32 32"><path fill="none" stroke="#f8f8f8" style="stroke:var(--color2,#f8f8f8)" stroke-linejoin="round" stroke-linecap="round" stroke-width="2" d="M24 8 8 24M8 8l16 16"/></symbol><symbol id="icon-strilka-left" viewBox="0 0 32 32"><path fill="#f8f8f8" style="fill:var(--color1,#f8f8f8)" opacity=".5" d="M14.133 16.947a1.326 1.326 0 0 1-.288-1.469l-.003.009c.071-.169.17-.313.292-.433l6.12-6.107a1.335 1.335 0 1 0-1.879-1.894l-.001.001-6.12 6.12c-.723.724-1.17 1.723-1.17 2.827s.447 2.103 1.17 2.827l6.12 6.12a1.334 1.334 0 1 0 1.88-1.894l-6.12-6.107z"/></symbol><symbol id="icon-strilka-right" viewBox="0 0 32 32"><path d="M17.867 16.947a1.326 1.326 0 0 0 .288-1.469l.003.009a1.333 1.333 0 0 0-.292-.433l-6.12-6.107a1.333 1.333 0 0 1 .94-2.281c.367 0 .699.148.94.388l6.12 6.12c.723.724 1.17 1.723 1.17 2.827s-.447 2.103-1.17 2.827l-6.12 6.12a1.334 1.334 0 1 1-1.88-1.894l6.12-6.107z"/></symbol><symbol id="icon-burger" viewBox="0 0 32 32"><path stroke-linejoin="round" stroke-linecap="round" stroke-width="2" d="M28 13.333H4M28 8H4m24 10.667H4M28 24H4"/></symbol><symbol id="icon-heart-filled" viewBox="0 0 32 32"><path fill="#f8f8f8" style="fill:var(--color1,#f8f8f8)" d="M15.991 6.848C13.325 3.731 8.878 2.892 5.539 5.747c-3.34 2.854-3.811 7.625-1.187 11.001 2.182 2.806 8.781 8.724 10.944 10.64.241.214.364.321.505.364a.677.677 0 0 0 .386-.001l-.005.001c.141-.042.262-.15.503-.364 2.164-1.916 8.764-7.834 10.944-10.64 2.623-3.375 2.211-8.177-1.187-11.001-3.398-2.825-7.786-2.016-10.451 1.101z"/></symbol><symbol id="icon-heart-notfilled" viewBox="0 0 32 32"><path fill="none" opacity=".5" stroke="#f8f8f8" style="stroke:var(--color1,#f8f8f8)" stroke-linejoin="round" stroke-linecap="round" stroke-width="2.909" d="M15.991 6.848C13.325 3.731 8.878 2.892 5.54 5.747c-3.341 2.854-3.811 7.625-1.188 11.001 2.182 2.806 8.781 8.724 10.944 10.64.241.214.364.321.505.364a.678.678 0 0 0 .386-.002l-.005.001c.141-.042.262-.15.503-.364 2.164-1.916 8.764-7.834 10.944-10.64 2.624-3.375 2.211-8.177-1.187-11.001-3.398-2.825-7.785-2.016-10.451 1.101z"/></symbol><symbol id="icon-korzynka" viewBox="0 0 32 32"><path stroke-linejoin="round" stroke-linecap="round" stroke-width="2.667" d="M12 29.333a1.333 1.333 0 0 0 0-2.666 1.333 1.333 0 0 0 0 2.666zm14.667 0a1.333 1.333 0 0 0 0-2.666 1.333 1.333 0 0 0 0 2.666z"/><path stroke-linejoin="round" stroke-linecap="round" stroke-width="2.4" d="M1.333 1.333h5.333l3.573 17.853a2.671 2.671 0 0 0 2.616 2.147l.054-.001h-.003H25.917a2.668 2.668 0 0 0 2.613-2.13l.003-.017 2.133-11.187H7.999"/></symbol><symbol id="icon-krestik-green" viewBox="0 0 32 32"><path stroke-linejoin="round" stroke-linecap="round" stroke-width="3" d="M24 8 8 24M8 8l16 16"/></symbol><symbol id="icon-krestik-modalka" viewBox="0 0 32 32"><path stroke-linejoin="round" stroke-linecap="round" stroke-width="2.667" d="M24 8 8 24M8 8l16 16"/></symbol><symbol id="icon-search-desktop" viewBox="0 0 32 32"><path d="M28.948 27.054 24 22.147a11.926 11.926 0 0 0 2.639-7.508c0-6.627-5.373-12-12-12s-12 5.373-12 12 5.373 12 12 12c2.852 0 5.472-.995 7.531-2.657l-.023.018 4.907 4.907a1.333 1.333 0 0 0 1.894 0 1.33 1.33 0 0 0-.001-1.853zM14.667 24a9.333 9.333 0 1 1 0-18.666 9.333 9.333 0 1 1 0 18.666z"/></symbol><symbol id="icon-shefs-hat" viewBox="0 0 37 32"><path fill="#9bb537" style="fill:var(--color2,#9bb537)" d="M7.325 12.723h23.133v17.735H7.325V12.723z"/><path fill="#9bb537" style="fill:var(--color2,#9bb537)" d="M16.578 11.373a8.289 8.289 0 1 1-16.578 0 8.289 8.289 0 1 1 16.578 0z"/><path fill="#9bb537" style="fill:var(--color2,#9bb537)" d="M26.988 8.289a8.289 8.289 0 1 1-16.578 0 8.289 8.289 0 1 1 16.578 0z"/><path fill="#9bb537" style="fill:var(--color2,#9bb537)" d="M37.398 11.373a8.289 8.289 0 1 1-16.578 0 8.289 8.289 0 1 1 16.578 0z"/><path fill="#f8f8f8" style="fill:var(--color1,#f8f8f8)" d="M7.325 29.301h23.133v2.036c0 .366-.324.663-.723.663H8.048c-.399 0-.723-.297-.723-.663v-2.036zm6.94-18.941c0-.611.432-1.107.964-1.107s.964.495.964 1.107v5.112c0 .611-.432 1.107-.964 1.107s-.964-.495-.964-1.107V10.36zm3.084 0c0-.611.604-1.107 1.349-1.107s1.349.495 1.349 1.107v5.112c0 .611-.604 1.107-1.349 1.107s-1.349-.495-1.349-1.107V10.36zm3.856 0c0-.611.432-1.107.964-1.107s.964.495.964 1.107v5.112c0 .611-.432 1.107-.964 1.107s-.964-.495-.964-1.107V10.36z"/><path fill="#050505" style="fill:var(--color3,#050505)" d="M28.184 3.131c.262-.029.566-.045.874-.045h.005a8.332 8.332 0 0 1 7.938 5.746 8.333 8.333 0 0 1-8.816-5.7z"/></symbol><symbol id="icon-star" viewBox="0 0 34 32"><path d="M6.049.927c.3-.921 1.603-.921 1.902 0l.845 2.6a1 1 0 0 0 .951.692h2.735c.969 0 1.371 1.24.588 1.809l-2.213 1.607a1 1 0 0 0-.363 1.118l.845 2.601c.3.921-.755 1.688-1.539 1.118l-2.212-1.607a1 1 0 0 0-1.176 0L4.2 12.472c-.784.57-1.838-.197-1.539-1.118l.845-2.6a1 1 0 0 0-.363-1.119L.93 6.028c-.783-.57-.38-1.81.588-1.81h2.735a1 1 0 0 0 .95-.69l.846-2.6Z" fill="#EEA10C"/></symbol><symbol id="icon-star-grey" viewBox="0 0 34 32"><path d="M6.049.927c.3-.921 1.603-.921 1.902 0l.845 2.6a1 1 0 0 0 .951.692h2.735c.969 0 1.371 1.24.588 1.809l-2.213 1.607a1 1 0 0 0-.363 1.118l.845 2.601c.3.921-.755 1.688-1.539 1.118l-2.212-1.607a1 1 0 0 0-1.176 0L4.2 12.472c-.784.57-1.838-.197-1.539-1.118l.845-2.6a1 1 0 0 0-.363-1.119L.93 6.028c-.783-.57-.38-1.81.588-1.81h2.735a1 1 0 0 0 .95-.69l.846-2.6Z" fill="gray"/></symbol><symbol id="icon-korzynka1" viewBox="0 0 32 32"><path stroke-linejoin="round" stroke-linecap="round" stroke-width="2.667" d="M12 29.333a1.333 1.333 0 0 0 0-2.666 1.333 1.333 0 0 0 0 2.666zm14.667 0a1.333 1.333 0 0 0 0-2.666 1.333 1.333 0 0 0 0 2.666z"/><path stroke-linejoin="round" stroke-linecap="round" stroke-width="2.4" d="M1.333 1.333h5.333l3.573 17.853a2.671 2.671 0 0 0 2.616 2.147l.054-.001h-.003H25.917a2.668 2.668 0 0 0 2.613-2.13l.003-.017 2.133-11.187H7.999"/></symbol><symbol id="icon-cook-1" viewBox="0 0 40 32"><path d="M27.884.037c-.174.031-.245.081-.205.146.022.034.056.034.186.006.419-.09 1.01-.012 1.721.227.621.208.935.407 1.233.783.286.357.733 1.041.898 1.376.208.413.289.649.519 1.525.242.91.354 1.296.634 2.159.258.798.295.969.27 1.292-.016.208-.012.252.028.267.068.025.099-.037.121-.255.031-.277-.025-.534-.283-1.345a43.002 43.002 0 0 1-.68-2.352c-.171-.659-.311-1.05-.503-1.414-.264-.497-.839-1.327-1.1-1.588-.189-.19-.463-.354-.817-.488-.826-.32-1.522-.438-2.023-.342zm-.933.14c-.034.006-.168.04-.298.071-.833.211-1.609.854-2.001 1.662-.217.447-.255.621-.373 1.771-.053.525-.112.758-.339 1.367-.283.767-.314.901-.311 1.367 0 .348.012.438.081.643.096.295.258.584.432.78.093.109.155.224.217.413.118.348.221.544.363.693.115.121.255.171.255.09 0-.022-.056-.093-.121-.165-.273-.28-.426-.724-.485-1.414-.05-.578-.078-.752-.193-1.196-.084-.326-.137-.429-.199-.367-.028.028-.016.118.047.357.112.441.168.777.189 1.153l.022.317-.065-.078c-.106-.124-.214-.332-.301-.572-.065-.177-.087-.292-.099-.578-.016-.435.031-.652.304-1.392.273-.736.304-.882.388-1.79.056-.593.106-.839.23-1.153A3.04 3.04 0 0 1 26.779.36c.158-.04.295-.087.301-.106.016-.047-.059-.093-.131-.081z"/><path d="M26.346.792c-.031.037-.006.081.124.224.332.363.631.885.892 1.563.075.196.189.488.252.649.127.329.283.587.46.764l.115.118-.149-.022c-.261-.04-.559-.158-.727-.292-.09-.071-.189-.131-.224-.131s-.087-.019-.121-.037c-.047-.031-.068-.031-.099 0-.065.065.003.127.336.32.351.205.544.261 1.069.308.193.016.354.034.357.037.003.006.044.143.09.304.099.351.23.6.519.982.199.267.528.603.587.603.04 0 .056.068.124.621.118.929.242 1.292.553 1.609.09.093.158.174.155.177-.006.006-.099.075-.211.158-.516.376-1.407 1.24-1.845 1.783a2.387 2.387 0 0 1-.236.273c-.022.009.009-.242.047-.351.012-.034.087-.224.165-.419.177-.45.199-.671.103-1.078a2.623 2.623 0 0 1-.065-.547c0-.311-.022-.336-.252-.311l-.143.016-.071-.143a.687.687 0 0 0-.155-.211c-.056-.04-.081-.081-.071-.118.028-.109-.273-.264-.721-.367-.395-.09-.624-.112-.808-.068a2.98 2.98 0 0 1-.373.062c-.196.022-.227.037-.32.14-.099.109-.106.127-.093.283s.009.168-.071.199a.737.737 0 0 0-.171.127l-.087.09-.258-.46a4.876 4.876 0 0 1-.32-.656c-.078-.242-.084-.736-.016-1.122.062-.354.059-.404-.012-.404-.047 0-.068.034-.09.146-.121.562-.124 1.128-.006 1.47.037.112.193.423.348.696l.283.491-.053.301c-.031.165-.137.55-.236.857a7.336 7.336 0 0 0-.236.901c-.071.435-.081 1.283-.016 1.364.025.028.056.047.075.04.016-.003.031-.249.037-.597.006-.724.053-.988.295-1.724.099-.298.199-.652.217-.786a1 1 0 0 1 .065-.258c.016-.009.028-.05.028-.087 0-.093.124-.227.267-.286.062-.025.118-.04.124-.034.009.006-.034.18-.093.382-.143.5-.224.969-.177 1.016.065.065.106-.028.193-.45.047-.227.131-.553.183-.724.124-.382.214-.488.475-.544a.57.57 0 0 1 .193-.025c.009.006 0 .059-.016.118a5.426 5.426 0 0 0-.062.596c-.025.41-.044.525-.109.693-.081.202-.081.264 0 .264.121 0 .227-.407.261-1.013.04-.652.093-.758.379-.758.115 0 .149.019.283.152.127.127.149.165.124.211-.04.071-.217.976-.242 1.218-.019.19.031.308.118.273.037-.012.047-.05.034-.152-.022-.199.174-1.224.258-1.355.078-.121.217-.093.376.075l.134.146.003.997c.003.547.012 1.038.025 1.091.025.121.146.137.137.016a69.56 69.56 0 0 1-.009-.994l-.003-.916.071-.022c.137-.037.14-.034.158.267.012.162.05.41.087.55.084.323.065.454-.14.966-.162.41-.196.544-.221.87-.022.267-.14.547-.36.873-.115.168-.14.27-.062.27.044 0 .177-.168.317-.404.093-.162.137-.208.18-.196.04.009.093-.04.202-.19.342-.478 1.348-1.46 1.824-1.777.519-.348 1.146-.593 1.581-.624.277-.022.643.047.861.155.084.043.323.143.537.224.848.32.972.432 1.348 1.202.329.677.578 1.261.721 1.693.059.183.127.376.152.429.193.441 1.283 4.073 1.429 4.763.087.413.084.802-.009 2.01-.05.631-.081 1.168-.075 1.19s.037.037.065.031c.062-.012.078-.118.158-1.236.081-1.084.081-1.631.003-2.004-.118-.562-.789-2.868-1.168-4.008-.513-1.544-.6-1.765-1.053-2.74-.348-.749-.51-.969-.889-1.196-.115-.068-.168-.118-.162-.155.006-.028-.096-.236-.23-.463-.339-.581-.423-.78-.851-1.995-.317-.889-.391-1.078-.441-1.078-.031 0-.056.022-.056.053 0 .062.792 2.327.842 2.402a.76.76 0 0 1 .059.118c.019.04.143.267.28.5.137.236.249.438.249.447 0 .04-.534-.177-.979-.398-.6-.295-.755-.332-1.376-.323l-.478.009-.162-.143c-.189-.168-.332-.419-.419-.739-.078-.286-.202-1.249-.18-1.364.009-.05.003-.103-.016-.121s-.075-.221-.121-.447c-.137-.652-.367-1.348-.454-1.383-.109-.043-.106.05.006.336.109.28.295.954.342 1.24l.022.14-.071-.062a4.465 4.465 0 0 1-.674-.845c-.124-.211-.199-.423-.332-.944-.245-.944-.575-1.746-.976-2.352-.189-.289-.261-.351-.32-.292-.022.022.031.124.171.339.357.534.674 1.246.879 1.96.044.158.071.298.062.311-.04.037-.301-.127-.435-.276-.18-.199-.317-.475-.547-1.084-.326-.87-.596-1.37-.976-1.808-.171-.199-.214-.227-.267-.165zm.497 6.568c0 .04-.152.09-.357.112-.23.025-.491.14-.559.245-.109.162-.233.056-.165-.14.037-.112.106-.152.264-.155.065 0 .189-.022.273-.043.18-.047.544-.059.544-.019zm.721.18.183.081-.118.04a.557.557 0 0 1-.118.034c0-.003-.05-.059-.106-.124-.127-.137-.09-.143.158-.031zm4.374 1.125c.103.022.099.025-.093.047-.643.078-1.454.463-2.066.985-.304.255-1.165 1.131-1.333 1.355-.14.183-.193.196-.075.019.311-.469 1.19-1.411 1.78-1.904.624-.519.739-.569 1.305-.544.205.009.423.028.482.043z"/><path d="M26.197 1.094c-.056.071-.276.531-.388.82a3.06 3.06 0 0 0-.249 1.227c-.003.367-.006.391-.059.376-.04-.009-.065.006-.078.05a.114.114 0 0 1-.071.078c-.034.009-.068.068-.093.174-.019.087-.05.152-.062.143-.047-.028-.158-.364-.18-.544-.022-.149-.031-.171-.093-.168s-.068-.012-.068-.18c0-.103.028-.261.065-.37.047-.134.056-.199.034-.221-.084-.084-.211.186-.245.519-.019.211.05.531.146.683.034.05.087.134.115.183.031.047.087.137.127.196.037.059.062.118.053.13-.006.016-.096.056-.202.093-.186.068-.342.214-.342.323 0 .096.068.087.258-.034.106-.068.363-.208.569-.317.363-.183.379-.196.398-.304.012-.081.006-.124-.025-.146-.025-.019-.059-.134-.078-.255-.099-.646.028-1.255.435-2.069.103-.202.177-.379.168-.395-.028-.044-.096-.037-.134.006zm1.469 3.318a.14.14 0 0 0-.003.087c.016.04-.003.068-.056.093-.124.056-.329.258-.329.32 0 .093.103.071.217-.05.112-.115.267-.202.363-.202.034 0 .044.009.022.025-.056.034-.106.152-.106.239 0 .05.037.118.09.174.078.075.118.09.242.09.121 0 .168-.016.221-.071.037-.04.068-.093.068-.121s.025-.047.056-.043c.034 0 .053-.019.053-.056 0-.056-.168-.186-.326-.255a.642.642 0 0 1-.096-.062 1.845 1.845 0 0 0-.376-.199c-.012 0-.031.016-.04.031zm.597.54c-.012.028-.04.05-.068.05-.056 0-.059-.016-.012-.099.04-.075.109-.028.081.05zm-2.821-.416c-.037.05-.162.162-.273.252-.301.242-.438.376-.438.435 0 .112.075.093.23-.062.174-.171.208-.189.183-.103-.009.037.025.099.093.171.09.099.127.115.242.115.162 0 .326-.09.37-.199.016-.04.047-.081.068-.087.059-.022-.003-.174-.103-.249a.52.52 0 0 0-.208-.078l-.127-.019.059-.078c.075-.093.078-.149.016-.174-.028-.009-.071.019-.112.075zm.267.453c.025.134 0 .171-.056.09-.044-.056-.034-.202.009-.202.012 0 .034.05.047.112zm1.264 1.231c-.025.025-.012.059.056.14.099.115.112.18.056.304-.053.115.009.174.099.093.047-.043.062-.096.062-.224 0-.146-.012-.183-.09-.261-.099-.099-.127-.109-.183-.053zm-.416.463c-.127.137-.171.162-.292.177-.134.012-.146.009-.28-.13s-.23-.171-.23-.075c0 .071.18.264.295.317.162.078.363.04.516-.096.065-.059.134-.099.149-.087.044.025.146-.031.171-.093.028-.075-.037-.171-.112-.171-.04 0-.127.062-.217.158zm3.271 3.464a1.55 1.55 0 0 0-.677.398c-.239.221-.385.441-.752 1.115-.298.556-1.019 1.647-1.395 2.113-.261.326-.329.447-.429.752l-.068.217-.351.255c-.196.14-.413.317-.482.395-.32.348-.792 1.187-.746 1.311.025.068.115.05.137-.028.065-.264.553-1.031.805-1.268.168-.162.569-.438.569-.395 0 .019-.022.155-.05.298l-.05.264-.267.252a3.668 3.668 0 0 0-.721.929c-.09.174-.103.214-.062.239.025.016.053.022.062.016s.09-.134.18-.286c.183-.308.497-.696.671-.829l.115-.087-.022.081a2.656 2.656 0 0 0-.025.326c-.003.239-.006.245-.059.186-.031-.031-.068-.059-.087-.059-.081 0-.05.115.103.401.118.227.18.314.224.314.05 0 .056-.016.04-.14-.012-.078-.006-.146.009-.155.05-.031.037-.131-.037-.301-.062-.149-.065-.174-.031-.469.028-.23.053-.32.093-.351.044-.034.047-.05.016-.103-.034-.053-.028-.121.028-.379l.065-.314.152-.109c.149-.109.193-.196.099-.196a.313.313 0 0 0-.112.034c-.059.031-.062.028-.044-.053.047-.186.14-.348.336-.587a18.028 18.028 0 0 0 1.473-2.224c.131-.245.298-.541.373-.652.283-.429.652-.705 1.047-.786.155-.031.193-.05.193-.099 0-.078-.106-.087-.323-.025z"/><path d="M24.584 12.048c-.019.012-.053.168-.071.345-.034.317-.037.329-.168.482-.311.364-.404.708-.404 1.497l-.003.562-.28.152c-.233.127-.286.168-.308.249a.246.246 0 0 1-.131.149.436.436 0 0 0-.152.121c-.044.071-.044.096.003.304.028.127.109.382.174.572.183.497.245.715.214.724-.016.006-.152.09-.304.189a3.842 3.842 0 0 0-1.482 1.892c-.174.491-.351 1.662-.317 2.094.04.506.23.892.618 1.255.264.249.596.435.938.528.106.028.379.059.637.071l.451.019.32.208c.332.221.41.249.41.155 0-.037-.09-.115-.264-.227-.143-.093-.264-.177-.264-.189 0-.009.059-.028.131-.04.118-.022.134-.016.193.065.174.249.612.656.935.867.189.124.367.255.395.286.05.056.047.096-.053.724-.131.808-.155.916-.27 1.193-.134.326-.177.531-.211.988-.047.59-.084.826-.171 1.016-.044.09-.078.183-.078.205s-.09.189-.202.373c-.208.345-.224.391-.171.525.022.059.019.084-.012.103-.044.028-.149.404-.298 1.075-.056.255-.124.475-.165.544-.208.329-.401.727-.37.758.062.062.118-.003.323-.379.112-.208.211-.367.224-.348.009.016.028.152.037.298.022.276.05.336.121.264.034-.034.037-.103.016-.329a2.021 2.021 0 0 0-.065-.391c-.034-.096-.025-.168.078-.615.062-.28.134-.584.162-.674l.05-.165.186.205c.189.205.252.239.286.155.012-.034-.062-.134-.214-.298-.14-.146-.233-.273-.233-.314 0-.037.078-.189.171-.342.096-.152.193-.336.221-.407.025-.071.075-.205.106-.295.065-.177.103-.447.155-1.059.022-.255.056-.454.106-.59.04-.112.109-.304.149-.423.044-.121.124-.503.177-.854.056-.351.109-.659.118-.683.009-.031.044.006.106.103.09.146.162.183.193.103.022-.056-.196-.388-.37-.559a1.786 1.786 0 0 0-.332-.255c-.407-.245-.842-.652-.923-.87-.087-.221-.121-.416-.09-.516.028-.106.214-.329.32-.388.068-.037.05-.134-.028-.134-.068 0-.286.208-.376.363-.065.109-.078.165-.068.311l.009.177-.124.037c-.217.068-.314.056-.351-.044-.059-.14-.093-.339-.165-.876-.062-.488-.062-.534-.019-.994.025-.264.037-.5.031-.522-.009-.022-.04-.037-.068-.031-.053.009-.056.025-.127.668-.031.286-.025.373.047.944.047.348.109.699.14.78l.056.146-.14.022c-.189.028-.662-.037-.941-.131a1.913 1.913 0 0 1-.985-.718c-.298-.419-.373-.851-.273-1.625.168-1.336.469-2.023 1.196-2.712.217-.208.68-.55.746-.55.009 0 .034.053.05.115.016.071.047.118.075.118.037 0 .047-.04.04-.193-.003-.149-.056-.348-.221-.839a10.592 10.592 0 0 1-.239-.771c-.016-.115-.012-.127.078-.183.053-.031.099-.05.106-.043.003.003.031.118.062.249.059.255.087.301.155.245.034-.028.034-.065-.003-.214a1.96 1.96 0 0 1-.05-.354l-.009-.18.208-.109c.115-.059.217-.099.224-.087.044.075.087.755.05.802a4.799 4.799 0 0 0-.115.217c-.14.283-.174.497-.149.966.016.391.016.419-.075.699a3.438 3.438 0 0 0-.177 1.286c.022.509.127.963.224.963.075 0 .075-.031-.012-.404a3.76 3.76 0 0 1-.006-1.383c.081-.357.152-.544.46-1.19.143-.304.258-.578.252-.606-.016-.075-.093-.065-.134.012l-.202.419-.171.354-.025-.186a1.821 1.821 0 0 1 .112-.805c.04-.087.214-.379.388-.646.174-.27.317-.513.317-.537s-.025-.047-.059-.047c-.04 0-.121.096-.258.314l-.199.311-.059-.472c-.096-.811-.059-1.423.115-1.886.078-.205.363-.509.615-.652.171-.099.32-.127.357-.068.025.04.252.04.336-.003.037-.019.14-.084.227-.143.134-.09.221-.118.6-.19l.441-.081.385.127c.32.106.391.121.419.084.022-.022.028-.056.016-.071-.009-.019-.199-.09-.419-.162l-.401-.13-.451.087c-.373.068-.478.103-.615.19-.336.211-.351.217-.475.158-.152-.071-.196-.068-.432.053l-.208.103.019-.174c.009-.096.025-.211.034-.255.016-.087-.044-.162-.103-.127zm8.566 3.237c-1.283 1.193-1.544 1.47-1.911 2.019-.304.457-.454.727-1.019 1.849-.233.46-.506.969-.612 1.128-.189.295-.214.357-.149.398.044.028.112-.056.311-.379l.152-.252.27.04c.55.087 1.038.28 1.522.6.351.233.475.298.951.497.69.289 1.463.795 1.976 1.292.423.41.565.506 1.243.87.575.308.876.494 1.09.671.134.115.146.14.177.332.019.115.084.354.143.534s.149.478.205.668c.053.186.165.559.249.823.171.544.581 2.165.699 2.743.04.208.09.531.112.715.034.314.04.336.103.326.059-.009.065-.025.056-.196-.031-.556-.494-2.551-.873-3.772a11.309 11.309 0 0 1-.18-.615c.025-.025.979 1.836 1.153 2.249.093.224.096.249.037.199-.031-.028-.05-.028-.065-.003-.012.022-.078.031-.152.025-.109-.009-.127 0-.127.053 0 .047.031.068.13.09.121.025.134.037.152.14.025.143.065.189.155.189.087 0 .14.093.199.339a.516.516 0 0 0 .158.283c.165.158.205.345.155.727-.022.155-.044.345-.053.416-.019.149-.009.149-.267.05-.109-.044-.158-.047-.183-.022-.05.05-.012.096.121.152.062.025.14.078.168.115.047.059.062.062.118.028s.062-.031.062.047c0 .05.047.311.103.584.081.388.115.5.155.506.028.006.059-.009.068-.031.028-.068-.199-1.094-.245-1.128-.034-.028-.037-.047-.003-.109.022-.044.056-.23.078-.416.019-.189.044-.354.05-.367a.942.942 0 0 0-.019-.249c-.034-.186-.056-.239-.162-.351a.742.742 0 0 1-.177-.339c-.062-.221-.121-.308-.258-.379-.109-.056-.124-.199-.025-.199.034 0 .071-.022.081-.047s-.056-.208-.143-.41c-.295-.668-1.233-2.461-1.401-2.678-.078-.099-.211-.528-.236-.752-.016-.171-.031-.193-.177-.332-.224-.211-.466-.37-1.035-.668-.87-.463-.932-.509-1.392-.972-.454-.457-1.423-1.059-2.215-1.376a3.974 3.974 0 0 1-.59-.323 6.17 6.17 0 0 0-.612-.351c-.27-.127-.767-.292-.889-.292-.034 0-.059-.009-.059-.025.003-.012.286-.189.631-.395.463-.273.68-.423.823-.565.174-.171.221-.199.404-.245.373-.093.727-.233 1.249-.494.283-.14.612-.286.73-.326.488-.158.637-.308.687-.687a.534.534 0 0 1 .093-.255c.096-.115.14-.292.14-.559a3.113 3.113 0 0 1 .016-.373.521.521 0 0 0-.019-.239c-.04-.099-.286-.342-.345-.342-.022 0-.028-.037-.016-.109.04-.214-.146-.438-.423-.516-.099-.025-.118-.043-.118-.115 0-.05-.016-.103-.034-.121-.022-.022.009-.068.109-.155.146-.13.183-.227.09-.227-.031 0-.565.475-1.19 1.056zm.857-.481c-.009.025-.053.047-.096.047h-.081l.087-.075c.084-.075.124-.062.09.028zm.009.177c.18-.025.208-.022.332.047.221.124.292.286.177.391-.112.096-1.134.457-1.33.466-.103.006-.124.019-.124.068 0 .149.441.053 1.236-.27l.301-.124.109.068c.149.093.239.23.245.373.003.214-.127.292-.715.416a6.685 6.685 0 0 0-.528.131c-.18.062-.382.183-.407.249-.031.084.056.106.152.04.155-.112.345-.177.755-.261.224-.047.472-.112.556-.143l.149-.056-.012.214c-.009.193-.022.227-.112.32-.124.127-.643.382-1.112.547-.267.096-.339.134-.339.177s.022.059.081.053c.103-.006.621-.199.985-.37.258-.121.286-.127.286-.071 0 .099-.081.261-.174.351-.053.047-.211.121-.373.174a7.808 7.808 0 0 0-.808.36c-.46.23-1.1.478-1.243.478-.04 0-.044-.019-.022-.103.012-.053.025-.261.022-.457 0-.385-.059-.621-.261-1.038l-.087-.183.283-.292c.158-.158.606-.587 1-.954.578-.534.721-.652.749-.618.025.037.068.04.227.016zm-2.134 2.526c.081.233.096.326.096.575 0 .382-.075.59-.289.802-.143.14-.273.227-1.103.73-.258.155-.373.242-.37.28.006.056-.093.071-.165.028-.028-.019.106-.308.482-1.047.565-1.106.833-1.566 1.075-1.842l.065-.071.056.134c.031.075.103.258.152.413zm-21.524 2.634a.728.728 0 0 0 .034.224c.047.18.062.357.031.357a.288.288 0 0 1-.078-.062c-.09-.09-.137-.078-.261.068-.134.155-.149.292-.04.391a.223.223 0 0 0 .295.019c.04-.028.081-.044.087-.034.009.009.04.096.068.199.065.239.065.892-.003 1.264-.04.211-.043.289-.016.32.065.078.112-.022.165-.342.05-.311.065-.889.031-1.103a3.798 3.798 0 0 0-.084-.311c-.053-.162-.056-.217-.028-.345a.862.862 0 0 0 0-.336c-.053-.273-.152-.432-.202-.311zm-.012.789c0 .044-.096.103-.168.103-.065 0-.062-.106.003-.205l.053-.081.056.075c.028.037.056.087.056.109zm5.225-.478c-.019.019-.09.155-.158.298-.162.336-.165.451-.019.895.124.382.13.429.056.398-.242-.099-.429-.078-.6.065a.483.483 0 0 0-.186.401c0 .401.376.687.687.525.103-.053.277-.301.277-.395 0-.031.016-.047.031-.037.047.031.037.451-.016.64a7.422 7.422 0 0 1-.329.727c-.463.929-.513 1.367-.23 1.963.174.373.513.826.59.798.071-.028.059-.062-.137-.332-.391-.544-.485-.802-.46-1.261.019-.357.09-.578.379-1.128.273-.525.357-.761.379-1.063.012-.208.006-.283-.05-.438-.037-.103-.096-.304-.127-.451s-.093-.367-.137-.494c-.109-.314-.106-.488.016-.755.056-.115.118-.211.143-.211.059 0 .084-.087.04-.14-.047-.056-.106-.059-.149-.006zm-.205 1.718a.344.344 0 0 1 .14.115c.065.118-.022.413-.168.572-.134.146-.395.059-.494-.165-.093-.217-.025-.423.171-.522a.354.354 0 0 1 .351 0zm-1.988-1.348a.619.619 0 0 0-.065.211 2.326 2.326 0 0 1-.13.413c-.118.301-.118.286.009.73.134.457.261.758.317.746.031-.006.053-.044.056-.087a.41.41 0 0 1 .025-.134c.031-.065-.025-.715-.096-1.146-.05-.295-.047-.32.003-.472.065-.186.056-.308-.019-.323-.028-.006-.075.022-.099.062zm.028 1.143c.075.621.056.646-.093.112-.075-.27-.081-.32-.047-.429.019-.075.047-.115.062-.099s.05.202.078.416zm3.299-1.035c-.006.016.006.255.034.534l.047.513-.084.342c-.134.559-.18.91-.168 1.205.012.245.025.298.146.534.152.301.233.391.292.332.028-.028.025-.059-.022-.137-.221-.379-.252-.466-.261-.749a3.374 3.374 0 0 1 .04-.615c.059-.354.109-.466.109-.236 0 .075.016.435.034.802.034.659.053.752.143.677.04-.034.04-.044-.04-1.379-.031-.541-.037-.805-.016-.861.059-.152.075-.472.034-.64-.053-.224-.233-.423-.289-.323zm1.563 2.265c0 .028.025.137.053.242.034.124.053.317.053.562l.003.373-.18.401c-.224.494-.301.808-.301 1.193 0 .283.003.289.071.28.047-.006.065-.028.062-.071-.019-.202.065-.55.224-.944.357-.889.413-1.494.183-1.97-.056-.118-.168-.162-.168-.065zm-7.863.047c-.09.09-.059.264.115.674.078.177.168.423.202.547.081.295.155.777.134.898-.034.208-.047.239-.087.239-.065 0-.075.062-.047.233.016.103.006.308-.025.59-.028.264-.04.544-.031.715.022.332.124.876.186 1 .062.121.165.208.221.186.025-.009.084-.134.13-.276.068-.217.084-.314.084-.615.003-.391-.028-.537-.214-.985-.099-.245-.103-.261-.075-.503.031-.273.047-.901.037-1.392-.012-.5-.183-1.041-.407-1.28-.106-.115-.137-.118-.224-.031zm.248.332c.047.096.109.245.137.332.053.165.121.547.103.569-.006.006-.037-.068-.065-.165s-.103-.298-.171-.451c-.202-.457-.205-.687-.003-.286zm.18 3.368c-.006.075-.012.022-.012-.115s.006-.196.012-.134c.006.065.006.177 0 .249zm.302.475c-.003.252-.019.419-.05.513l-.047.14-.065-.14c-.084-.174-.084-.214-.016-.789l.056-.46.059.18c.047.14.062.27.062.556z"/><path d="M17.351 23.425c-.012.019-.003.189.019.379a4.493 4.493 0 0 1-.286 2.116c-.28.724-.27.68-.273 1.395-.003.721.025.929.202 1.563.062.221.121.435.127.475l.019.071-.354-.019c-.196-.012-.55-.04-.789-.065s-.444-.044-.457-.044c-.016 0-.025-.04-.025-.087 0-.118-.096-.205-.199-.18a.53.53 0 0 0-.186.134l-.106.115-.124-.084c-.298-.196-.727-1.171-.923-2.103a4.634 4.634 0 0 1-.065-1.544c.075-.662.065-.848-.04-.848-.028-.003-.078-.047-.112-.103a.686.686 0 0 0-.23-.186c-.301-.149-.702-.103-1.153.137-.27.143-.441.311-.603.587-.168.292-.183.233.152.621.245.286.364.5.45.823.037.137.134.451.217.699s.162.531.174.631c.022.193-.043 1.103-.081 1.156a.513.513 0 0 0-.047.171l-.022.14h-.671c-.37 0-.92-.012-1.218-.028-.6-.031-1.693.016-2.128.09-.457.081-.668.193-.668.354.003.165.155.267.354.239.121-.019.134-.012.292.152.09.093.239.205.326.249l.162.081-.311-.019-1.072-.062c-1.845-.106-2.42-.121-2.986-.078-.721.059-.87.056-1.383-.012a5.399 5.399 0 0 0-.808-.047c-.336.012-.385.022-.556.106-.202.099-.379.298-.41.457-.009.047-.028.096-.044.103-.047.031-.916.168-1.202.189-.211.016-.295.034-.308.065-.028.075.043.096.267.081a18.44 18.44 0 0 0 1.128-.152c.109-.019.115-.016.124.068.006.065.025.09.071.09.05 0 .065-.025.071-.109l.009-.112.441-.103c.242-.056.715-.162 1.047-.239.683-.158.798-.165 1.314-.093.466.062 1.1.065 1.671 0 .565-.062.988-.044 1.426.065a4.18 4.18 0 0 0 1.522.065 4.98 4.98 0 0 1 .528-.05c.205 0 .985.09 1.864.217.351.05.73.099.848.112.134.012.233.04.277.078.056.053.071.053.115.016.04-.034.099-.037.314-.016.146.016.867.025 1.6.025.87-.003 1.429.006 1.6.031.739.103 1.342.345 1.737.705.124.112.221.124.221.031 0-.04-.283-.283-.472-.401-.093-.059-.093-.034-.006-.478.022-.124.034-.249.025-.273-.056-.14-.584-.233-1.364-.239-.45-.006-.513 0-.674.065-.273.106-.478.255-.469.339.009.068.003.068-.404.068-.224 0-.441.009-.478.019-.112.031-.096-.143.025-.283.084-.093.152-.127.506-.236.224-.068.444-.152.494-.186.075-.056.158-.062.746-.081a9.882 9.882 0 0 1 1.914.115c.379.065.522.124.547.227.009.037.022.283.025.547l.006.475-.186.068c-.143.05-.186.081-.186.127 0 .044.019.059.062.056.034-.006.273-.012.528-.022.668-.016 1.122-.121 1.268-.295a.876.876 0 0 1 .189-.155.452.452 0 0 0 .174-.202c.068-.155.106-.503.059-.534a2.82 2.82 0 0 0-.354-.053c-.314-.031-.32-.034-.36-.127-.04-.087-.065-.099-.323-.152a7.009 7.009 0 0 0-.649-.093c-.304-.034-.376-.031-.41 0-.034.034-.087.034-.314-.003-.584-.099-.916-.124-1.656-.121-.733 0-.969.019-2.05.149-.463.056-.702.059-.733.012-.012-.025-.078-.028-.183-.016-.103.012-.323-.006-.581-.044-.615-.09-.848-.103-1.19-.065a47.626 47.626 0 0 1-2.041.193l-.572.037-.165-.087c-.155-.087-.426-.348-.391-.382.009-.009-.006-.04-.031-.068-.047-.05-.022-.056.348-.075a27.944 27.944 0 0 1 2.697-.016c1.619.062 2.485.053 3.371-.034.898-.09 2.004-.096 3.045-.019 1.109.081 1.845.096 2.392.047.721-.062.808-.059.91.037.103.099.106.152.016.239-.127.115-.336.146-1.019.146-.351 0-.715-.006-.808-.016-.155-.016-.171-.009-.171.047 0 .081.112.103.668.127.541.025 1.097-.022 1.289-.109.155-.068.245-.186.236-.317a.882.882 0 0 1 .016-.298c.016-.084.003-.115-.075-.196-.078-.075-.121-.093-.233-.093-.115 0-.14-.009-.134-.056.003-.044-.019-.053-.146-.044-.124.009-.171-.006-.258-.071-.084-.065-.131-.078-.193-.062-.236.059-.342.056-.416-.022a.771.771 0 0 1-.106-.137c-.034-.059-.037-.059-.109.006a.95.95 0 0 1-.112.087c-.056.031-.165-.034-.196-.124-.016-.04-.044-.075-.062-.075s-.103.065-.186.143c-.18.171-.227.165-.314-.037-.071-.158-.162-.261-.23-.261-.025 0-.087.062-.137.137-.109.158-.233.221-.351.177-.106-.04-.224-.168-.292-.317-.065-.146-.155-.162-.18-.037a8.788 8.788 0 0 0-.09.727c-.003.09-.016.118-.047.106a.84.84 0 0 0-.193-.016c-.137 0-.149-.006-.165-.087a17.256 17.256 0 0 1-.096-.426c-.09-.385-.189-.982-.224-1.299l-.019-.211.115.078c.158.109.304.106.416-.006a.881.881 0 0 1 .165-.127c.189-.099.214-.379.047-.547a.402.402 0 0 0-.457-.099c-.118.044-.121.044-.137-.028-.034-.134.04-.494.171-.805.314-.764.32-.792.323-1.289 0-.578-.103-1.181-.202-1.181-.016 0-.037.016-.047.031zm-3.97 1.072c.435.131.503.596.118.789-.261.131-.811.127-.991-.006-.056-.04-.056-.047-.003-.127.19-.289.73-.407.73-.158 0 .109-.096.193-.245.217-.096.016-.127.034-.127.081s.022.059.109.059a.455.455 0 0 0 .354-.174c.165-.211-.009-.478-.314-.478-.252 0-.677.332-.677.525 0 .131.093.205.329.27.345.093.861.006 1.056-.177.04-.037.081-.065.087-.056.006.006-.009.202-.034.432-.075.668.012 1.336.286 2.19.109.339.419 1.022.544 1.199.081.112.056.158-.071.137-.972-.162-1.01-.162-1.212-.028-.065.044-.124.075-.13.068s.019-.115.053-.242c.09-.339.112-.994.04-1.339-.081-.401-.562-1.693-.718-1.932a1.22 1.22 0 0 0-.295-.258c-.121-.081-.23-.174-.245-.217-.04-.106.04-.298.177-.416.202-.18.711-.395.944-.401a.968.968 0 0 1 .236.044zm-1.454.892c.019.04.13.134.245.211.112.078.236.186.277.242.068.106.447 1.041.587 1.46.112.326.177.808.152 1.109a4.291 4.291 0 0 1-.162.817c-.028.071-.028.071-.099.016l-.071-.059.053-.572c.062-.68.056-.733-.171-1.429-.084-.264-.193-.603-.236-.752-.087-.292-.239-.55-.503-.854-.152-.174-.196-.258-.137-.258.016 0 .043.031.065.068zm5.045 1.438c.012.025.006.053-.009.062-.019.012-.031-.009-.031-.044 0-.078.019-.084.04-.019zm.473.097c.059.059.053.295-.009.317-.022.006-.096-.047-.171-.118l-.131-.131.075-.059c.09-.071.168-.075.236-.009zm.233.149c0 .081-.019.056-.044-.059-.016-.068-.012-.081.012-.047a.242.242 0 0 1 .031.106zm-.398.254c.068.034.084.056.056.075-.062.037-.149 0-.249-.112-.056-.065-.084-.124-.071-.155.016-.04.034-.031.093.047a.672.672 0 0 0 .171.146zm.867 1.737a.56.56 0 0 0 .217.047c.112 0 .149-.019.27-.14.075-.078.143-.14.146-.14.006 0 .034.062.065.14.059.162.171.264.28.264.04 0 .127-.047.193-.106.115-.106.115-.106.189-.047a.311.311 0 0 0 .32.025c.04-.022.071-.025.084-.003a.595.595 0 0 0 .127.096.426.426 0 0 0 .404.022c.068-.04.084-.037.165.031.05.04.109.075.134.075.106 0 0 .056-.174.093a1.2 1.2 0 0 1-.413.012c-.27-.031-.736-.031-1.659.003l-.687.025.025-.137c.016-.075.037-.217.047-.314l.019-.18.081.093a.632.632 0 0 0 .168.14zm-2.768.28c0 .093-.009.171-.022.171-.016 0-.227.022-.475.05-.249.025-.829.056-1.292.065l-.845.019.025-.131a.73.73 0 0 1 .037-.146c.009-.006.056.006.106.034.137.071.233.056.429-.062.211-.127.249-.131.743-.044.205.034.466.062.578.059s.264.006.339.016c.124.022.14.016.233-.09a.454.454 0 0 1 .124-.112c.012 0 .022.078.022.171zm5.955.146c.062.05.05.131-.012.103a.865.865 0 0 0-.444-.05c-.236.028-.205-.006.062-.068.205-.05.323-.044.395.016zm-5.551-.025c0 .025-.221.037-.236.012-.009-.012.04-.025.109-.025a.36.36 0 0 1 .127.012zm-3.803.056c.556-.006.631 0 .646.044.012.028.016.056.012.059-.006.003-.311-.006-.677-.022-.736-.034-3.303-.016-3.402.022-.043.019-.053.016-.031-.009.019-.019.205-.05.419-.065l.513-.047c.069-.007.522-.003 1.01.006.488.009 1.168.012 1.51.012zm8.059.056c.044.016-.183.025-.528.025-.342 0-.565-.012-.513-.025.124-.031.941-.031 1.041 0zm-11.716.186c.037.109.003.137-.127.118-.099-.012-.112-.127-.019-.174.103-.05.109-.047.146.056zm4.26.531c.323.037.388.068.199.099-.14.025-.211.078-.168.131.019.022.022.115.012.23l-.022.193-.127-.019-.795-.109a43.155 43.155 0 0 0-2.019-.245l-.544-.053.28-.025a71.304 71.304 0 0 0 2.035-.189 4.57 4.57 0 0 1 1.149-.012zm2.283.056a1.637 1.637 0 0 1-.277.099c-.227.065-.252.081-.336.211a.897.897 0 0 0-.109.264l-.019.121-.438-.022a16.926 16.926 0 0 1-.684-.04l-.242-.019.012-.196a.861.861 0 0 1 .031-.217c.065-.062.572-.131 1.004-.134.36 0 .907-.05 1.072-.093.006 0 0 .009-.016.025zm4.16.038.23.034.037.143c.05.205.075.506.05.668l-.022.143-.249.081c-.137.047-.255.078-.261.071s-.025-.23-.037-.5c-.025-.432-.037-.497-.096-.581l-.071-.093h.093a3.4 3.4 0 0 1 .326.034zm-16.028.059c.205.019.395.04.419.05.04.016-.298.106-1.317.339a6.177 6.177 0 0 1-.363.078c-.062 0-.022-.093.096-.227.214-.242.475-.295 1.165-.239zm16.68.093c.044.044.065.127.084.342.016.158.019.301.009.317-.019.028-.081.056-.227.103-.075.022-.075.022-.053-.131a2.322 2.322 0 0 0-.062-.652c-.019-.065-.012-.071.084-.053a.442.442 0 0 1 .165.075zm-13.666-.034c-.177.071-1.407.071-1.364 0 .009-.016.332-.028.721-.025.388 0 .677.012.643.025zm2.392.118c.354.019.385.025.249.047-.174.028-.739-.019-.854-.068-.065-.028-.056-.031.062-.016.078.006.323.025.544.037zm7.649.059c-.009.009-.037.012-.059.003-.025-.009-.016-.019.019-.019.034-.003.053.006.04.016zm.832.012c.382.037.693.09.715.124.025.037-.342.062-.966.062-.382 0-.603-.012-.603-.031s.034-.031.075-.031c.093 0 .131-.05.081-.109-.034-.04-.009-.047.158-.047.109 0 .354.016.541.031zm3.514.072a.856.856 0 0 1-.019.193c-.022.124-.053.208-.106.258-.071.075-.099.075-.205.009a.598.598 0 0 0-.099-.047c-.047-.012-.056-.056-.056-.239v-.224l.239.022c.131.009.242.022.245.028zm-4.772.136c.059.028.146.062.199.075.065.012-.003.022-.199.025h-.295l.087-.075c.103-.093.081-.09.208-.025zm1.945.156a1.667 1.667 0 0 0-.034.199l-.022.146-.158-.071a4.283 4.283 0 0 0-.889-.258c-.146-.019-.103-.025.276-.037.907-.034.845-.037.826.022zm2.436.27c0 .006-.022.019-.047.031-.025.009-.047.003-.047-.012 0-.019.022-.031.047-.031s.047.006.047.012z"/><path d="M18.945 25.078a.965.965 0 0 0 .025.258c.112.612.109.64-.217 1.83a3.334 3.334 0 0 0-.112.509c0 .106.162.485.221.522a.498.498 0 0 1 .09.14c.04.078.084.121.124.121.09 0 .078-.087-.034-.264l-.099-.155.131-.373c.276-.786.301-.985.193-1.631a15.53 15.53 0 0 1-.093-.584 1.481 1.481 0 0 0-.081-.32c-.05-.093-.124-.118-.146-.053zm.227 1.491c.003.158-.012.354-.034.429-.065.258-.289.836-.314.82-.059-.037-.022-.298.124-.833.084-.311.162-.603.174-.652.031-.149.05-.071.05.236zm5.884 2.542c-.031.05.009.09.18.177.205.103.398.233.603.407.149.127.258.155.258.071 0-.059-.376-.367-.64-.525-.27-.158-.363-.189-.401-.131z"/></symbol></defs></svg>