<svg aria-hidden="true" style="width:0;height:0;position:absolute;overflow:hidden" xmlns="http://www.w3.org/2000/svg"><defs><symbol id="icon-burger" viewBox="0 0 32 32"><path stroke-linejoin="round" stroke-linecap="round" stroke-width="2" d="M28 13.333H4M28 8H4M28 18.667H4M28 24H4"/></symbol><symbol id="icon-shopping-cart" viewBox="0 0 32 32"><path stroke-linejoin="round" stroke-linecap="round" stroke-width="2.667" d="M12 29.333a1.333 1.333 0 1 0 0-2.667 1.333 1.333 0 0 0 0 2.667zM26.667 29.333a1.333 1.333 0 1 0 0-2.667 1.333 1.333 0 0 0 0 2.667z"/><path stroke-linejoin="round" stroke-linecap="round" stroke-width="2.4" d="M1.333 1.333h5.333l3.573 17.853a2.671 2.671 0 0 0 2.666 2.147h12.96a2.667 2.667 0 0 0 2.666-2.147l2.133-11.187H7.997"/></symbol><symbol id="icon-switch" viewBox="0 0 50 32"><path fill="#cecdcd" style="fill:var(--color1,#cecdcd)" d="M13.176 6.902H29.49a6.274 6.274 0 0 1 0 12.549H13.176a6.274 6.274 0 0 1 0-12.548z"/><path fill="#f8f8f8" style="fill:var(--color2,#f8f8f8)" d="M19.074 13.177a5.898 5.898 0 1 1-11.797-.001 5.898 5.898 0 0 1 11.797.001z"/></symbol><symbol id="icon-x" viewBox="0 0 32 32"><path fill="none" stroke="#f8f8f8" style="stroke:var(--color2,#f8f8f8)" stroke-linejoin="round" stroke-linecap="round" stroke-width="2" d="M24 8 8 24M8 8l16 16"/></symbol><symbol id="icon-strilka-left" viewBox="0 0 32 32"><path fill="#f8f8f8" style="fill:var(--color1,#f8f8f8)" opacity=".5" d="M14.133 16.947a1.326 1.326 0 0 1-.288-1.469l-.003.009c.071-.169.17-.313.292-.433l6.12-6.107a1.335 1.335 0 1 0-1.879-1.894l-.001.001-6.12 6.12c-.723.724-1.17 1.723-1.17 2.827s.447 2.103 1.17 2.827l6.12 6.12a1.334 1.334 0 1 0 1.88-1.894l-6.12-6.107z"/></symbol><symbol id="icon-strilka-right" viewBox="0 0 32 32"><path d="M17.867 16.947a1.326 1.326 0 0 0 .288-1.469l.003.009a1.333 1.333 0 0 0-.292-.433l-6.12-6.107a1.333 1.333 0 0 1 .94-2.281c.367 0 .699.148.94.388l6.12 6.12c.723.724 1.17 1.723 1.17 2.827s-.447 2.103-1.17 2.827l-6.12 6.12a1.334 1.334 0 1 1-1.88-1.894l6.12-6.107z"/></symbol><symbol id="icon-burger" viewBox="0 0 32 32"><path stroke-linejoin="round" stroke-linecap="round" stroke-width="2" d="M28 13.333H4M28 8H4m24 10.667H4M28 24H4"/></symbol><symbol id="icon-heart-filled" viewBox="0 0 32 32"><path fill="#f8f8f8" style="fill:var(--color1,#f8f8f8)" d="M15.991 6.848C13.325 3.731 8.878 2.892 5.539 5.747c-3.34 2.854-3.811 7.625-1.187 11.001 2.182 2.806 8.781 8.724 10.944 10.64.241.214.364.321.505.364a.677.677 0 0 0 .386-.001l-.005.001c.141-.042.262-.15.503-.364 2.164-1.916 8.764-7.834 10.944-10.64 2.623-3.375 2.211-8.177-1.187-11.001-3.398-2.825-7.786-2.016-10.451 1.101z"/></symbol><symbol id="icon-heart-notfilled" viewBox="0 0 32 32"><path fill="none" opacity=".5" stroke="#f8f8f8" style="stroke:var(--color1,#f8f8f8)" stroke-linejoin="round" stroke-linecap="round" stroke-width="2.909" d="M15.991 6.848C13.325 3.731 8.878 2.892 5.54 5.747c-3.341 2.854-3.811 7.625-1.188 11.001 2.182 2.806 8.781 8.724 10.944 10.64.241.214.364.321.505.364a.678.678 0 0 0 .386-.002l-.005.001c.141-.042.262-.15.503-.364 2.164-1.916 8.764-7.834 10.944-10.64 2.624-3.375 2.211-8.177-1.187-11.001-3.398-2.825-7.785-2.016-10.451 1.101z"/></symbol><symbol id="icon-korzynka" viewBox="0 0 32 32"><path stroke-linejoin="round" stroke-linecap="round" stroke-width="2.667" d="M12 29.333a1.333 1.333 0 0 0 0-2.666 1.333 1.333 0 0 0 0 2.666zm14.667 0a1.333 1.333 0 0 0 0-2.666 1.333 1.333 0 0 0 0 2.666z"/><path stroke-linejoin="round" stroke-linecap="round" stroke-width="2.4" d="M1.333 1.333h5.333l3.573 17.853a2.671 2.671 0 0 0 2.616 2.147l.054-.001h-.003H25.917a2.668 2.668 0 0 0 2.613-2.13l.003-.017 2.133-11.187H7.999"/></symbol><symbol id="icon-krestik-green" viewBox="0 0 32 32"><path stroke-linejoin="round" stroke-linecap="round" stroke-width="3" d="M24 8 8 24M8 8l16 16"/></symbol><symbol id="icon-krestik-modalka" viewBox="0 0 32 32"><path stroke-linejoin="round" stroke-linecap="round" stroke-width="2.667" d="M24 8 8 24M8 8l16 16"/></symbol><symbol id="icon-search-desktop" viewBox="0 0 32 32"><path d="M28.948 27.054 24 22.147a11.926 11.926 0 0 0 2.639-7.508c0-6.627-5.373-12-12-12s-12 5.373-12 12 5.373 12 12 12c2.852 0 5.472-.995 7.531-2.657l-.023.018 4.907 4.907a1.333 1.333 0 0 0 1.894 0 1.33 1.33 0 0 0-.001-1.853zM14.667 24a9.333 9.333 0 1 1 0-18.666 9.333 9.333 0 1 1 0 18.666z"/></symbol><symbol id="icon-shefs-hat" viewBox="0 0 37 32"><path fill="#9bb537" style="fill:var(--color2,#9bb537)" d="M7.325 12.723h23.133v17.735H7.325V12.723z"/><path fill="#9bb537" style="fill:var(--color2,#9bb537)" d="M16.578 11.373a8.289 8.289 0 1 1-16.578 0 8.289 8.289 0 1 1 16.578 0z"/><path fill="#9bb537" style="fill:var(--color2,#9bb537)" d="M26.988 8.289a8.289 8.289 0 1 1-16.578 0 8.289 8.289 0 1 1 16.578 0z"/><path fill="#9bb537" style="fill:var(--color2,#9bb537)" d="M37.398 11.373a8.289 8.289 0 1 1-16.578 0 8.289 8.289 0 1 1 16.578 0z"/><path fill="#f8f8f8" style="fill:var(--color1,#f8f8f8)" d="M7.325 29.301h23.133v2.036c0 .366-.324.663-.723.663H8.048c-.399 0-.723-.297-.723-.663v-2.036zm6.94-18.941c0-.611.432-1.107.964-1.107s.964.495.964 1.107v5.112c0 .611-.432 1.107-.964 1.107s-.964-.495-.964-1.107V10.36zm3.084 0c0-.611.604-1.107 1.349-1.107s1.349.495 1.349 1.107v5.112c0 .611-.604 1.107-1.349 1.107s-1.349-.495-1.349-1.107V10.36zm3.856 0c0-.611.432-1.107.964-1.107s.964.495.964 1.107v5.112c0 .611-.432 1.107-.964 1.107s-.964-.495-.964-1.107V10.36z"/><path fill="#050505" style="fill:var(--color3,#050505)" d="M28.184 3.131c.262-.029.566-.045.874-.045h.005a8.332 8.332 0 0 1 7.938 5.746 8.333 8.333 0 0 1-8.816-5.7z"/></symbol><symbol id="icon-star" viewBox="0 0 34 32"><path d="M6.049.927c.3-.921 1.603-.921 1.902 0l.845 2.6a1 1 0 0 0 .951.692h2.735c.969 0 1.371 1.24.588 1.809l-2.213 1.607a1 1 0 0 0-.363 1.118l.845 2.601c.3.921-.755 1.688-1.539 1.118l-2.212-1.607a1 1 0 0 0-1.176 0L4.2 12.472c-.784.57-1.838-.197-1.539-1.118l.845-2.6a1 1 0 0 0-.363-1.119L.93 6.028c-.783-.57-.38-1.81.588-1.81h2.735a1 1 0 0 0 .95-.69l.846-2.6Z" fill="#EEA10C"/></symbol><symbol id="icon-star-grey" viewBox="0 0 34 32"><path d="M6.049.927c.3-.921 1.603-.921 1.902 0l.845 2.6a1 1 0 0 0 .951.692h2.735c.969 0 1.371 1.24.588 1.809l-2.213 1.607a1 1 0 0 0-.363 1.118l.845 2.601c.3.921-.755 1.688-1.539 1.118l-2.212-1.607a1 1 0 0 0-1.176 0L4.2 12.472c-.784.57-1.838-.197-1.539-1.118l.845-2.6a1 1 0 0 0-.363-1.119L.93 6.028c-.783-.57-.38-1.81.588-1.81h2.735a1 1 0 0 0 .95-.69l.846-2.6Z" fill="gray"/></symbol><symbol id="icon-korzynka1" viewBox="0 0 32 32"><path stroke-linejoin="round" stroke-linecap="round" stroke-width="2.667" d="M12 29.333a1.333 1.333 0 0 0 0-2.666 1.333 1.333 0 0 0 0 2.666zm14.667 0a1.333 1.333 0 0 0 0-2.666 1.333 1.333 0 0 0 0 2.666z"/><path stroke-linejoin="round" stroke-linecap="round" stroke-width="2.4" d="M1.333 1.333h5.333l3.573 17.853a2.671 2.671 0 0 0 2.616 2.147l.054-.001h-.003H25.917a2.668 2.668 0 0 0 2.613-2.13l.003-.017 2.133-11.187H7.999"/></symbol><symbol id="icon-cook" viewBox="0 0 22 32"><path d="M7.742.65c-.107.085-1 1.395-1.045 1.538-.022.067-.05.252-.058.41-.01.158-.032.305-.05.33-.055.08-1.567 1.32-1.705 1.4l-.135.075-.093-.072c-.185-.145-.395-.162-.508-.043a.3.3 0 0 1-.128.075c-.095.022-.223.13-.223.188 0 .025-.038.07-.083.098-.08.048-.143.143-.143.21a.526.526 0 0 1-.055.135c-.055.105-.058.11-.013.23.022.067.042.135.042.15 0 .013-.147.152-.325.305-.27.232-.33.295-.35.378-.05.183.065.298.257.26.063-.013.172-.082.342-.223.38-.31.317-.3.633-.093.263.173.275.188.345.34.05.115.067.183.055.237-.01.055.008.125.075.268a19.916 19.916 0 0 0 .997 2.03c.478.83.855 1.36 1.235 1.732.138.135.6.515 1.048.863l.8.617.027.287c.063.63.207 1.088.46 1.447.125.178.143.27.165.915.027.745-.082 1.727-.22 1.995a.688.688 0 0 0-.06.255c-.018.308-.03.407-.092.738-.123.648-.152.985-.155 1.738 0 .385.015.863.033 1.063s.043.565.055.813c.015.302.072.785.17 1.475.133.922.145 1.047.127 1.25-.018.192-.005.335.078.975.113.87.213 1.695.255 2.135.025.275.035.315.09.365s.06.073.05.198c-.012.155-.005.168.137.215.123.038.168.137.168.36v.163l-.148.148c-.13.133-.15.168-.175.295-.015.082-.05.233-.08.335-.027.102-.06.273-.072.375-.01.102-.045.282-.075.4a1.952 1.952 0 0 0-.06.425c-.002.183.005.227.06.323.053.095.082.117.2.157.367.125.815.148 1.125.055.18-.052.193-.065.227-.223.037-.17-.002-.555-.08-.775a.826.826 0 0 1-.045-.313c.018-.595-.02-.81-.172-.98l-.092-.102-.008-.32-.01-.323.072-.067c.04-.04.1-.093.137-.12l.065-.05.053-1.7c.03-.935.045-1.802.037-1.925-.018-.24.15-2.255.188-2.295.03-.03.04.07.137 1.183.063.71.082 1.038.068 1.17-.01.098.008.942.037 1.872l.055 1.692.06.052.135.102.072.052v.672l-.092.137c-.12.177-.15.337-.143.765.008.313 0 .365-.06.567a1.35 1.35 0 0 0-.068.465c0 .313.025.385.152.435.152.063.443.098.645.08.307-.025.627-.113.705-.19.143-.142.158-.392.047-.85a3.048 3.048 0 0 1-.075-.415c0-.058-.023-.172-.05-.258a3.215 3.215 0 0 1-.075-.308c-.027-.163-.095-.345-.125-.345a.653.653 0 0 1-.135-.117l-.117-.12.008-.192c.01-.22.037-.265.19-.308l.092-.027.008-.16c.005-.117.02-.177.055-.212.04-.043.06-.168.125-.76a86.37 86.37 0 0 1 .18-1.475c.088-.645.105-.837.107-1.227.005-.42.018-.55.143-1.413.085-.58.148-1.093.158-1.313.012-.277.027-.372.057-.407.035-.038.035-.067.01-.212-.018-.113-.023-.352-.012-.73.018-.69-.047-1.655-.158-2.35l-.015-.098.125.015c.127.015.127.015.305-.14.098-.082.185-.152.195-.152s.043.017.072.038c.05.035.07.015.498-.468.915-1.033 1.053-1.207 1.342-1.703.31-.533.33-.578.305-.732-.02-.145-.102-.297-.523-.985-.938-1.527-1.55-2.457-1.732-2.627-.133-.125-.547-.338-1.033-.53-.277-.11-.695-.242-.765-.242-.02 0-.047-.03-.065-.07-.015-.037-.04-.102-.06-.143a1.774 1.774 0 0 1-.045-.12c-.008-.023-.037-.043-.065-.043-.04 0-.05-.018-.05-.075s.043-.123.203-.293c.223-.242.447-.565.557-.797.053-.11.095-.165.15-.193.123-.057.303-.232.412-.393a.765.765 0 0 0 .137-.518c-.023-.147-.152-.36-.252-.41-.045-.022-.075-.045-.068-.053.01-.013.082-.513.085-.595.002-.098.04-.105.172-.037.28.14.67.1.885-.09.207-.183.283-.49.207-.848-.078-.37-.268-.66-.525-.813a.377.377 0 0 1-.175-.2 2.184 2.184 0 0 0-.432-.605c-.15-.15-.408-.337-.51-.37-.025-.007-.082-.085-.127-.17a1.558 1.558 0 0 0-1.025-.743c-.43-.072-.992.06-1.475.353-.09.055-.095.055-.225.013-.18-.058-.5-.078-.675-.042-.175.038-.453.225-.595.405-.195.248-.3.553-.3.87.002.542.393 1.26.818 1.505.098.055.102.065.117.21.008.082.043.25.075.375.035.135.065.343.078.522.015.293.015.298-.045.362a.673.673 0 0 0-.113.76c.075.157.365.472.477.515.045.018.092.085.165.23.127.252.26.44.537.755.162.185.215.265.215.318 0 .102-.025.15-.075.15-.025 0-.057.033-.075.075-.018.04-.04.075-.053.075s-.03.035-.043.078c-.018.075-.033.082-.268.15-.137.04-.28.07-.315.072-.143 0-1.165-.5-2.098-1.027a.812.812 0 0 1-.35-.313 4.857 4.857 0 0 0-.285-.36c-.435-.48-1.02-1.383-1.563-2.408-.117-.22-.168-.293-.205-.293-.07 0-.063-.128.018-.293.063-.128.065-.15.055-.393-.01-.165-.027-.285-.055-.335-.082-.157-.103-.135.867-1.01l.748-.675.343.018c.298.015.357.013.478-.03.178-.063 1.383-.79 1.46-.885.127-.15.11-.44-.037-.748-.057-.117-.143-.225-.307-.387-.24-.24-.438-.365-.675-.427-.173-.047-.223-.045-.298.015zm.108.388c0 .035-.502.625-.655.77-.075.073-.12.07-.12-.002 0-.04.595-.792.66-.835.035-.022.115.025.115.067zm.373.15c.01.063-.827.888-.902.888-.1 0-.025-.107.367-.525.335-.357.41-.425.463-.42.037.005.065.025.072.058zm.252.217c0 .042-.123.167-.455.47-.43.393-.537.462-.565.38-.01-.035.043-.09.578-.587.345-.317.443-.375.443-.262zm.195.295c.005.055-.053.11-.412.403-.23.185-.447.357-.482.38-.07.045-.143.022-.117-.04.013-.033.56-.522.825-.738.115-.093.178-.095.188-.005zm.117.398c0 .053-.07.112-.428.357-.412.285-.51.328-.51.23 0-.02.188-.175.418-.348.43-.325.52-.365.52-.24zM3.2 6.01c.05.065.02.152-.055.16-.087.01-.15-.093-.095-.157a.098.098 0 0 1 .15-.003zm10.81 7.877c.338.395.615.735.615.758a.247.247 0 0 1-.037.1c-.03.043-.033.065-.012.107.025.043.012.08-.078.23-.287.488-.637.918-.955 1.17-.137.11-.193.102-.238-.025-.033-.093-.17-.195-.295-.223l-.098-.02-.023-.297a7.476 7.476 0 0 1 .008-.875c.04-.785.055-.883.152-1.023.072-.11.172-.307.26-.523.02-.05.047-.092.063-.092.012 0 .3.32.637.713z"/></symbol></defs></svg>