<svg aria-hidden="true" style="position: absolute; width: 0; height: 0; overflow: hidden;" version="1.1" xmlns="http://www.w3.org/2000/svg" xmlns:xlink="http://www.w3.org/1999/xlink">
<defs>
<symbol id="icon-strilka-left" viewBox="0 0 32 32">
<path fill="#f8f8f8" style="fill: var(--color1, #f8f8f8)" opacity="0.5" d="M14.133 16.947c-0.244-0.241-0.395-0.576-0.395-0.946 0-0.186 0.038-0.362 0.107-0.523l-0.003 0.009c0.071-0.169 0.17-0.313 0.292-0.433l0-0 6.12-6.107c0.26-0.244 0.423-0.59 0.423-0.974 0-0.737-0.598-1.335-1.335-1.335-0.381 0-0.724 0.159-0.967 0.415l-0.001 0.001-6.12 6.12c-0.723 0.724-1.17 1.723-1.17 2.827s0.447 2.103 1.17 2.827l6.12 6.12c0.241 0.239 0.573 0.387 0.94 0.387 0.737 0 1.334-0.597 1.334-1.334 0-0.37-0.151-0.705-0.394-0.947l-0-0-6.12-6.107z"></path>
</symbol>
<symbol id="icon-strilka-right" viewBox="0 0 32 32">
<path d="M17.867 16.947c0.244-0.241 0.395-0.576 0.395-0.946 0-0.186-0.038-0.362-0.107-0.523l0.003 0.009c-0.072-0.169-0.17-0.313-0.292-0.433l-0-0-6.12-6.107c-0.243-0.242-0.394-0.577-0.394-0.947 0-0.737 0.597-1.334 1.334-1.334 0.367 0 0.699 0.148 0.94 0.388l6.12 6.12c0.723 0.724 1.17 1.723 1.17 2.827s-0.447 2.103-1.17 2.827l-6.12 6.12c-0.241 0.239-0.573 0.387-0.94 0.387-0.737 0-1.334-0.597-1.334-1.334 0-0.37 0.151-0.705 0.394-0.947l0-0 6.12-6.107z"></path>
</symbol>
<symbol id="icon-burger" viewBox="0 0 32 32">
<path stroke-linejoin="round" stroke-linecap="round" stroke-miterlimit="4" stroke-width="2" d="M28 13.333h-24M28 8h-24M28 18.667h-24M28 24h-24"></path>
</symbol>
<symbol id="icon-heart-filled" viewBox="0 0 32 32">
<path fill="#f8f8f8" style="fill: var(--color1, #f8f8f8)" d="M15.991 6.848c-2.666-3.117-7.113-3.956-10.452-1.101-3.34 2.854-3.811 7.625-1.187 11.001 2.182 2.806 8.781 8.724 10.944 10.64 0.241 0.214 0.364 0.321 0.505 0.364 0.057 0.017 0.123 0.028 0.191 0.028s0.134-0.010 0.195-0.029l-0.005 0.001c0.141-0.042 0.262-0.15 0.503-0.364 2.164-1.916 8.764-7.834 10.944-10.64 2.623-3.375 2.211-8.177-1.187-11.001-3.398-2.825-7.786-2.016-10.451 1.101z"></path>
</symbol>
<symbol id="icon-heart-notfilled" viewBox="0 0 32 32">
<path fill="none" opacity="0.5" stroke="#f8f8f8" style="stroke: var(--color1, #f8f8f8)" stroke-linejoin="round" stroke-linecap="round" stroke-miterlimit="4" stroke-width="2.9091" d="M15.991 6.848c-2.666-3.117-7.113-3.956-10.451-1.101-3.341 2.854-3.811 7.625-1.188 11.001 2.182 2.806 8.781 8.724 10.944 10.64 0.241 0.214 0.364 0.321 0.505 0.364 0.057 0.017 0.123 0.027 0.191 0.027s0.133-0.010 0.195-0.029l-0.005 0.001c0.141-0.042 0.262-0.15 0.503-0.364 2.164-1.916 8.764-7.834 10.944-10.64 2.624-3.375 2.211-8.177-1.187-11.001-3.398-2.825-7.785-2.016-10.451 1.101z"></path>
</symbol>
<symbol id="icon-korzynka" viewBox="0 0 32 32">
<path stroke-linejoin="round" stroke-linecap="round" stroke-miterlimit="4" stroke-width="2.6667" d="M12 29.333c0.736 0 1.333-0.597 1.333-1.333s-0.597-1.333-1.333-1.333v0c-0.736 0-1.333 0.597-1.333 1.333s0.597 1.333 1.333 1.333v0zM26.667 29.333c0.736 0 1.333-0.597 1.333-1.333s-0.597-1.333-1.333-1.333v0c-0.736 0-1.333 0.597-1.333 1.333s0.597 1.333 1.333 1.333v0z"></path>
<path stroke-linejoin="round" stroke-linecap="round" stroke-miterlimit="4" stroke-width="2.4" d="M1.333 1.333h5.333l3.573 17.853c0.251 1.233 1.327 2.147 2.616 2.147 0.018 0 0.036-0 0.054-0.001l-0.003 0h12.96c0.015 0 0.033 0 0.051 0 1.289 0 2.364-0.914 2.613-2.13l0.003-0.017 2.133-11.187h-22.667"></path>
</symbol>
<symbol id="icon-krestik-green" viewBox="0 0 32 32">
<path fill="none" stroke="#9bb537" style="stroke: var(--color2, #9bb537)" stroke-linejoin="round" stroke-linecap="round" stroke-miterlimit="4" stroke-width="3" d="M24 8l-16 16M8 8l16 16"></path>
</symbol>
<symbol id="icon-krestik-modalka" viewBox="0 0 32 32">
<path stroke-linejoin="round" stroke-linecap="round" stroke-miterlimit="4" stroke-width="2.6667" d="M24 8l-16 16M8 8l16 16"></path>
</symbol>
<symbol id="icon-logo-desktop" viewBox="0 0 173 32">
<path fill="#9bb537" style="fill: var(--color2, #9bb537)" d="M11.735 5.99v3.369h-10.624v-3.369h10.624zM3.735 1.562h4.354v17.35c0 0.585 0.088 1.035 0.265 1.348 0.164 0.284 0.413 0.502 0.713 0.622l0.010 0.003c0.296 0.113 0.625 0.169 0.986 0.169 0.273 0 0.521-0.021 0.745-0.060 0.233-0.041 0.408-0.075 0.529-0.109l0.734 3.407c-0.232 0.079-0.565 0.168-0.998 0.264-0.467 0.102-1.007 0.163-1.559 0.169l-0.005 0c-1.092 0.030-2.074-0.134-2.948-0.495-0.865-0.361-1.574-0.95-2.071-1.693l-0.010-0.017c-0.506-0.77-0.753-1.732-0.745-2.888v-18.071zM19.339 24.843c-1.169 0-2.225-0.207-3.162-0.625-0.918-0.414-1.669-1.057-2.204-1.858l-0.012-0.019c-0.536-0.828-0.806-1.845-0.806-3.057 0-1.043 0.192-1.905 0.578-2.586s0.911-1.227 1.576-1.638c0.648-0.398 1.4-0.716 2.199-0.913l0.055-0.011c0.841-0.216 1.713-0.373 2.611-0.471 1.082-0.111 1.961-0.211 2.635-0.299 0.674-0.096 1.161-0.241 1.468-0.433 0.312-0.201 0.469-0.508 0.469-0.926v-0.073c0-0.905-0.269-1.608-0.806-2.104-0.538-0.497-1.312-0.745-2.323-0.745-1.067 0-1.914 0.232-2.539 0.696-0.617 0.465-1.035 1.016-1.252 1.649l-4.066-0.578c0.32-1.122 0.851-2.061 1.589-2.816 0.737-0.753 1.644-1.338 2.658-1.693l0.048-0.015c1.017-0.367 2.19-0.579 3.413-0.579 0.044 0 0.087 0 0.131 0.001l-0.007-0c0.89 0 1.777 0.104 2.66 0.312 0.881 0.209 1.688 0.553 2.419 1.035 0.728 0.472 1.314 1.118 1.756 1.937 0.448 0.819 0.674 1.841 0.674 3.068v12.367h-4.188v-2.539h-0.143c-0.265 0.514-0.64 0.996-1.12 1.444-0.503 0.456-1.099 0.82-1.755 1.061l-0.037 0.012c-0.715 0.264-1.553 0.395-2.515 0.395zM20.472 21.643c0.873 0 1.632-0.173 2.274-0.518 0.64-0.354 1.135-0.819 1.48-1.397 0.352-0.576 0.529-1.205 0.529-1.888v-2.178c-0.136 0.113-0.369 0.216-0.696 0.312-0.287 0.089-0.652 0.177-1.024 0.243l-0.060 0.009c-0.401 0.073-0.798 0.137-1.192 0.194l-1.022 0.143c-0.65 0.083-1.239 0.235-1.797 0.451l0.052-0.018c-0.485 0.18-0.894 0.469-1.211 0.839l-0.003 0.004c-0.297 0.352-0.446 0.809-0.446 1.372 0 0.802 0.294 1.406 0.879 1.816 0.584 0.408 1.331 0.614 2.238 0.614zM46.731 10.874l-3.972 0.433c-0.127-0.434-0.329-0.811-0.594-1.135l0.005 0.006c-0.292-0.366-0.663-0.657-1.088-0.849l-0.018-0.007c-0.467-0.216-1.035-0.324-1.709-0.324-0.907 0-1.668 0.196-2.287 0.589-0.608 0.393-0.909 0.904-0.902 1.528-0.001 0.021-0.002 0.046-0.002 0.070 0 0.5 0.229 0.946 0.588 1.239l0.003 0.002c0.41 0.337 1.084 0.614 2.022 0.828l3.153 0.676c1.749 0.376 3.049 0.973 3.896 1.792 0.86 0.819 1.293 1.89 1.301 3.213 0 0.012 0 0.027 0 0.042 0 1.147-0.384 2.204-1.031 3.050l0.009-0.012c-0.666 0.883-1.592 1.572-2.78 2.071-1.186 0.497-2.551 0.745-4.090 0.745-2.263 0-4.083-0.474-5.463-1.421-1.38-0.954-2.202-2.281-2.466-3.981l4.247-0.41c0.192 0.836 0.602 1.464 1.227 1.89s1.44 0.638 2.443 0.638c1.035 0 1.864-0.213 2.49-0.638 0.634-0.425 0.951-0.951 0.951-1.576 0-0.009 0-0.021 0-0.032 0-0.516-0.238-0.977-0.611-1.278l-0.003-0.002c-0.401-0.344-1.028-0.61-1.877-0.794l-3.153-0.663c-1.773-0.369-3.085-0.99-3.934-1.864-0.851-0.885-1.272-1.997-1.263-3.345-0.009-1.139 0.301-2.127 0.926-2.961 0.632-0.841 1.512-1.491 2.635-1.948 1.129-0.465 2.434-0.698 3.91-0.698 2.165 0 3.87 0.461 5.114 1.384 1.25 0.922 2.025 2.17 2.321 3.742zM58.592 5.99v3.369h-10.624v-3.369h10.624zM50.592 1.562h4.354v17.35c0 0.585 0.088 1.035 0.264 1.348 0.163 0.284 0.413 0.502 0.713 0.622l0.010 0.003c0.297 0.113 0.627 0.169 0.986 0.169 0.273 0 0.521-0.021 0.747-0.060 0.219-0.036 0.398-0.074 0.574-0.119l-0.045 0.010 0.734 3.407c-0.233 0.079-0.565 0.168-0.998 0.264-0.468 0.102-1.008 0.163-1.561 0.169l-0.005 0c-1.092 0.030-2.072-0.134-2.948-0.495-0.864-0.361-1.572-0.95-2.070-1.693l-0.010-0.017c-0.506-0.77-0.755-1.732-0.747-2.888v-18.071zM63.586 31.401c-0.593 0-1.143-0.049-1.647-0.145-0.45-0.072-0.851-0.18-1.233-0.327l0.042 0.014 1.011-3.394c0.632 0.184 1.199 0.273 1.696 0.265s0.934-0.164 1.312-0.471c0.384-0.296 0.71-0.792 0.975-1.491l0.373-0.998-6.701-18.867h4.619l4.26 13.958h0.192l4.273-13.958h4.631l-7.4 20.719c-0.344 0.979-0.802 1.816-1.372 2.515-0.554 0.688-1.256 1.235-2.058 1.597l-0.035 0.014c-0.819 0.376-1.798 0.565-2.936 0.565z"></path>
<path fill="#050505" style="fill: var(--color3, #050505)" d="M88.275 5.99v3.369h-10.624v-3.369h10.624zM80.275 1.562h4.354v17.35c0 0.585 0.088 1.035 0.264 1.348 0.163 0.284 0.413 0.502 0.713 0.622l0.010 0.003c0.297 0.113 0.627 0.169 0.988 0.169 0.271 0 0.52-0.021 0.745-0.060 0.22-0.036 0.398-0.074 0.574-0.119l-0.045 0.010 0.734 3.407c-0.233 0.079-0.565 0.168-0.998 0.264-0.468 0.102-1.008 0.163-1.561 0.169l-0.005 0c-1.092 0.030-2.072-0.134-2.948-0.495-0.864-0.361-1.572-0.95-2.070-1.693l-0.010-0.017c-0.506-0.77-0.755-1.732-0.747-2.888v-18.071zM90.56 24.471v-18.481h4.224v3.080h0.192c0.337-1.067 0.915-1.888 1.732-2.466 0.828-0.585 1.769-0.879 2.829-0.879 0.239 0 0.508 0.013 0.806 0.038 0.305 0.015 0.557 0.043 0.759 0.083v4.008c-0.254-0.079-0.553-0.139-0.861-0.168l-0.019-0.001c-0.342-0.053-0.738-0.083-1.141-0.085h-0.001c-0.021-0-0.045-0.001-0.069-0.001-0.759 0-1.473 0.192-2.096 0.53l0.023-0.012c-0.618 0.332-1.12 0.811-1.47 1.391l-0.010 0.017c-0.361 0.602-0.542 1.295-0.542 2.082v10.865h-4.356zM110.061 24.832c-1.854 0-3.454-0.386-4.802-1.156-1.334-0.781-2.392-1.904-3.072-3.251l-0.020-0.045c-0.721-1.429-1.082-3.11-1.082-5.043 0-1.901 0.361-3.569 1.082-5.005 0.699-1.406 1.742-2.55 3.022-3.349l0.034-0.020c1.306-0.809 2.842-1.214 4.608-1.214 1.139 0 2.214 0.184 3.224 0.553 1.018 0.361 1.916 0.922 2.696 1.685 0.785 0.762 1.402 1.732 1.852 2.912 0.45 1.171 0.674 2.566 0.674 4.186v1.336h-15.149v-2.936h10.974c0-0.011 0-0.024 0-0.037 0-0.801-0.201-1.554-0.555-2.213l0.012 0.025c-0.348-0.65-0.851-1.177-1.462-1.543l-0.018-0.010c-0.625-0.376-1.355-0.565-2.189-0.565-0.89 0-1.673 0.216-2.347 0.649-0.664 0.419-1.198 0.988-1.564 1.661l-0.012 0.024c-0.369 0.689-0.557 1.448-0.565 2.274v2.562c0 1.075 0.196 1.997 0.589 2.767 0.393 0.762 0.941 1.348 1.647 1.758 0.706 0.401 1.532 0.602 2.479 0.602 0.020 0 0.044 0 0.068 0 0.591 0 1.159-0.097 1.69-0.277l-0.037 0.011c0.514-0.184 0.96-0.454 1.336-0.808 0.376-0.352 0.661-0.791 0.855-1.31l4.066 0.456c-0.259 1.095-0.771 2.046-1.473 2.821l0.005-0.005c-0.713 0.794-1.628 1.412-2.743 1.854-1.116 0.433-2.391 0.649-3.827 0.649zM125.926 24.843c-1.171 0-2.227-0.207-3.164-0.625-0.918-0.414-1.669-1.057-2.204-1.858l-0.012-0.019c-0.536-0.828-0.806-1.845-0.806-3.057 0-1.043 0.192-1.905 0.578-2.586s0.911-1.227 1.576-1.638c0.648-0.399 1.398-0.717 2.197-0.915l0.055-0.011c0.841-0.216 1.713-0.373 2.611-0.471 1.349-0.131 2.253-0.237 3.154-0.355l-0.519 0.055c0.674-0.096 1.163-0.241 1.468-0.433 0.312-0.201 0.469-0.508 0.469-0.926v-0.073c0-0.905-0.269-1.608-0.806-2.104-0.538-0.497-1.312-0.745-2.323-0.745-1.067 0-1.912 0.232-2.539 0.696-0.617 0.465-1.035 1.016-1.252 1.649l-4.066-0.578c0.302-1.102 0.853-2.051 1.591-2.818l-0.002 0.002c0.737-0.753 1.644-1.338 2.658-1.693l0.048-0.015c1.017-0.367 2.19-0.579 3.413-0.579 0.044 0 0.088 0 0.132 0.001l-0.007-0c0.888 0 1.775 0.104 2.658 0.312 0.881 0.209 1.688 0.553 2.417 1.035 0.73 0.472 1.318 1.118 1.758 1.937 0.448 0.819 0.674 1.841 0.674 3.068v12.369h-4.188v-2.539h-0.143c-0.265 0.514-0.64 0.996-1.12 1.444-0.503 0.456-1.099 0.82-1.755 1.061l-0.037 0.012c-0.715 0.264-1.553 0.395-2.515 0.395zM127.055 21.643c0.875 0 1.634-0.173 2.276-0.518 0.64-0.354 1.135-0.819 1.48-1.397 0.352-0.576 0.529-1.205 0.529-1.888v-2.178c-0.136 0.113-0.369 0.216-0.696 0.312-0.322 0.096-0.683 0.181-1.084 0.252-0.401 0.073-0.798 0.137-1.192 0.194l-1.022 0.143c-0.65 0.083-1.239 0.235-1.797 0.451l0.052-0.018c-0.485 0.18-0.894 0.469-1.211 0.839l-0.003 0.004c-0.297 0.352-0.446 0.809-0.446 1.372 0 0.802 0.294 1.406 0.879 1.816 0.584 0.408 1.331 0.614 2.238 0.614zM147.936 5.99v3.369h-10.624v-3.369h10.624zM139.938 1.562h4.354v17.35c0 0.585 0.088 1.035 0.265 1.348 0.163 0.283 0.412 0.502 0.711 0.622l0.010 0.003c0.297 0.113 0.627 0.169 0.988 0.169 0.273 0 0.521-0.021 0.745-0.060 0.233-0.041 0.408-0.075 0.529-0.109l0.734 3.407c-0.233 0.079-0.565 0.168-0.998 0.264-0.467 0.102-1.007 0.163-1.559 0.169l-0.005 0c-1.092 0.030-2.074-0.134-2.948-0.495-0.865-0.361-1.574-0.95-2.071-1.693l-0.010-0.017c-0.506-0.77-0.753-1.732-0.747-2.888v-18.071zM164.568 10.874l-3.972 0.433c-0.127-0.434-0.329-0.811-0.594-1.135l0.005 0.006c-0.292-0.366-0.663-0.657-1.088-0.849l-0.018-0.007c-0.465-0.216-1.035-0.324-1.709-0.324-0.905 0-1.668 0.196-2.285 0.589-0.61 0.393-0.911 0.904-0.904 1.528-0.001 0.021-0.001 0.045-0.001 0.069 0 0.501 0.23 0.947 0.59 1.241l0.003 0.002c0.408 0.337 1.082 0.614 2.020 0.828l3.153 0.676c1.751 0.376 3.049 0.973 3.898 1.792 0.858 0.819 1.291 1.89 1.299 3.213 0 0.012 0 0.027 0 0.041 0 1.147-0.384 2.204-1.031 3.050l0.009-0.012c-0.664 0.883-1.592 1.572-2.778 2.071-1.188 0.497-2.551 0.745-4.092 0.745-2.261 0-4.083-0.474-5.463-1.421-1.38-0.954-2.202-2.281-2.466-3.981l4.247-0.41c0.194 0.836 0.602 1.464 1.227 1.89 0.627 0.425 1.44 0.638 2.443 0.638 1.035 0 1.864-0.213 2.49-0.638 0.634-0.425 0.951-0.951 0.951-1.576 0-0.009 0-0.021 0-0.032 0-0.516-0.238-0.977-0.611-1.278l-0.003-0.002c-0.401-0.344-1.026-0.61-1.877-0.794l-3.153-0.663c-1.773-0.369-3.083-0.99-3.934-1.864-0.851-0.885-1.271-1.997-1.263-3.345-0.008-1.139 0.301-2.127 0.926-2.961 0.634-0.841 1.512-1.491 2.635-1.948 1.129-0.465 2.434-0.698 3.91-0.698 2.165 0 3.87 0.461 5.114 1.384 1.252 0.922 2.025 2.17 2.323 3.742zM169.884 24.736c-0.011 0-0.024 0-0.037 0-0.72 0-1.372-0.295-1.84-0.772l-0-0c-0.477-0.455-0.773-1.095-0.773-1.805 0-0.025 0-0.050 0.001-0.075l-0 0.004c-0-0.018-0.001-0.039-0.001-0.060 0-0.706 0.296-1.342 0.771-1.791l0.001-0.001c0.521-0.514 1.148-0.772 1.877-0.772 0.706 0 1.32 0.258 1.841 0.772 0.496 0.463 0.805 1.121 0.805 1.85 0 0.496-0.143 0.958-0.389 1.349l0.006-0.010c-0.24 0.398-0.565 0.722-0.951 0.955l-0.012 0.007c-0.365 0.22-0.806 0.35-1.278 0.35-0.007 0-0.015-0-0.022-0h0.001z"></path>
</symbol>
<symbol id="icon-logo-mobile" viewBox="0 0 175 32">
<path fill="#9bb537" style="fill: var(--color2, #9bb537)" d="M12.177 4.849v3.392h-10.703v-3.392h10.703zM4.117 0.388h4.388v17.478c0 0.591 0.087 1.043 0.267 1.357 0.186 0.307 0.427 0.518 0.725 0.631s0.631 0.171 0.994 0.171c0.277 0 0.527-0.021 0.753-0.062 0.235-0.041 0.412-0.077 0.533-0.109l0.738 3.43c-0.235 0.081-0.57 0.171-1.005 0.267-0.429 0.096-0.954 0.154-1.577 0.171-0.097 0.005-0.211 0.007-0.325 0.007-0.952 0-1.861-0.186-2.692-0.524l0.048 0.017c-0.871-0.363-1.585-0.956-2.087-1.703l-0.011-0.017c-0.51-0.777-0.759-1.747-0.751-2.91v-18.206zM19.84 23.842c-0.037 0.001-0.081 0.001-0.125 0.001-1.108 0-2.161-0.232-3.115-0.65l0.050 0.020c-0.937-0.429-1.679-1.060-2.229-1.892-0.542-0.832-0.811-1.856-0.811-3.078 0-1.050 0.192-1.92 0.58-2.605 0.388-0.687 0.917-1.237 1.587-1.649 0.653-0.402 1.409-0.723 2.213-0.923l0.055-0.012c0.741-0.199 1.635-0.365 2.549-0.464l0.082-0.007c1.090-0.113 1.975-0.213 2.654-0.303 0.678-0.098 1.173-0.243 1.478-0.437 0.316-0.203 0.474-0.512 0.474-0.932v-0.073c0-0.913-0.271-1.621-0.811-2.123-0.544-0.501-1.323-0.751-2.34-0.751-1.075 0-1.929 0.235-2.56 0.704-0.619 0.469-1.041 1.022-1.259 1.66l-4.096-0.582c0.32-1.131 0.853-2.076 1.6-2.837 0.742-0.768 1.651-1.34 2.726-1.719 1.025-0.37 2.207-0.583 3.439-0.583 0.044 0 0.087 0 0.13 0.001l-0.007-0c0.896 0 1.792 0.107 2.679 0.316 0.89 0.209 1.7 0.557 2.436 1.041 0.736 0.478 1.325 1.129 1.771 1.952 0.452 0.826 0.678 1.856 0.678 3.093v12.459h-4.22v-2.558h-0.145c-0.267 0.518-0.64 1.003-1.126 1.455-0.507 0.459-1.108 0.826-1.769 1.067l-0.038 0.012c-0.719 0.267-1.564 0.399-2.532 0.399zM20.979 20.619c0.881 0 1.643-0.175 2.291-0.523 0.646-0.354 1.143-0.823 1.491-1.406 0.354-0.58 0.533-1.216 0.533-1.903v-2.193c-0.201 0.142-0.436 0.251-0.69 0.313l-0.014 0.003c-0.288 0.090-0.655 0.178-1.030 0.245l-0.060 0.009c-0.405 0.073-0.804 0.137-1.201 0.192l-1.030 0.147c-0.655 0.090-1.239 0.235-1.758 0.437-0.489 0.18-0.901 0.471-1.221 0.843l-0.003 0.004c-0.299 0.356-0.448 0.817-0.448 1.382 0 0.809 0.297 1.419 0.885 1.83 0.591 0.412 1.342 0.619 2.255 0.619zM47.433 9.771l-4 0.435c-0.128-0.438-0.332-0.818-0.6-1.145l0.005 0.006c-0.294-0.367-0.668-0.659-1.095-0.852l-0.019-0.008c-0.473-0.209-1.025-0.33-1.605-0.33-0.041 0-0.082 0.001-0.123 0.002l0.006-0c-0.913 0-1.681 0.198-2.304 0.595-0.614 0.395-0.917 0.909-0.909 1.538-0.001 0.022-0.002 0.047-0.002 0.073 0 0.503 0.231 0.952 0.592 1.248l0.003 0.002c0.414 0.339 1.092 0.619 2.037 0.836l3.177 0.678c1.76 0.38 3.070 0.981 3.925 1.805 0.866 0.826 1.301 1.903 1.31 3.236 0 0.012 0 0.027 0 0.042 0 1.156-0.387 2.222-1.040 3.074l0.009-0.012c-0.67 0.89-1.604 1.583-2.799 2.084-1.197 0.501-2.571 0.753-4.122 0.753-2.278 0-4.113-0.478-5.504-1.431-1.389-0.96-2.219-2.3-2.485-4.011l4.279-0.414c0.194 0.841 0.606 1.474 1.237 1.903 0.629 0.427 1.451 0.642 2.46 0.642 1.043 0 1.877-0.213 2.509-0.64 0.64-0.431 0.96-0.96 0.96-1.589 0-0.010 0-0.021 0-0.033 0-0.52-0.24-0.984-0.616-1.287l-0.003-0.002c-0.405-0.346-1.037-0.612-1.892-0.798l-3.177-0.668c-1.786-0.371-3.106-0.998-3.964-1.877-0.855-0.89-1.28-2.014-1.271-3.371-0.009-1.148 0.303-2.142 0.932-2.982 0.64-0.849 1.523-1.502 2.656-1.963 1.139-0.469 2.453-0.704 3.938-0.704 2.182 0 3.9 0.465 5.152 1.395 1.259 0.928 2.039 2.185 2.34 3.77zM59.381 4.849v3.392h-10.703v-3.392h10.703zM51.322 0.388h4.386v17.478c0 0.591 0.090 1.043 0.267 1.357 0.188 0.307 0.429 0.518 0.727 0.631s0.631 0.171 0.994 0.171c0.277 0 0.525-0.021 0.753-0.062 0.235-0.041 0.412-0.077 0.533-0.109l0.738 3.43c-0.235 0.081-0.57 0.171-1.005 0.267-0.429 0.096-0.954 0.154-1.579 0.171-0.096 0.005-0.21 0.007-0.323 0.007-0.952 0-1.861-0.186-2.692-0.524l0.048 0.017c-0.871-0.363-1.585-0.956-2.087-1.703l-0.011-0.017c-0.51-0.777-0.759-1.747-0.751-2.91v-18.206zM64.414 30.447c-0.597 0-1.152-0.047-1.662-0.145-0.453-0.072-0.856-0.181-1.241-0.328l0.042 0.014 1.018-3.42c0.64 0.188 1.207 0.277 1.709 0.267 0.503-0 0.965-0.178 1.326-0.474l-0.004 0.003c0.386-0.299 0.715-0.8 0.981-1.504l0.375-1.005-6.752-19.008h4.655l4.29 14.063h0.194l4.303-14.061h4.668l-7.456 20.873c-0.333 0.971-0.802 1.811-1.393 2.549l0.013-0.017c-0.559 0.694-1.266 1.246-2.075 1.611l-0.035 0.014c-0.823 0.38-1.809 0.57-2.957 0.57z"></path>
<path fill="#050505" style="fill: var(--color3, #050505)" d="M89.284 4.849v3.392h-10.703v-3.392h10.703zM81.225 0.388h4.386v17.478c0 0.591 0.090 1.043 0.267 1.357 0.186 0.307 0.429 0.518 0.727 0.631s0.631 0.171 0.994 0.171c0.275 0 0.525-0.021 0.751-0.062 0.235-0.041 0.414-0.077 0.533-0.109l0.74 3.43c-0.235 0.081-0.57 0.171-1.007 0.267-0.427 0.096-0.954 0.154-1.574 0.171-0.097 0.005-0.211 0.007-0.325 0.007-0.952 0-1.861-0.186-2.692-0.524l0.048 0.017c-0.871-0.363-1.585-0.956-2.087-1.703l-0.010-0.017c-0.51-0.777-0.759-1.747-0.751-2.91v-18.206zM91.588 23.467v-18.618h4.254v3.102h0.194c0.341-1.075 0.922-1.903 1.747-2.483 0.832-0.591 1.781-0.885 2.848-0.885 0.241 0 0.512 0.011 0.811 0.036 0.307 0.015 0.563 0.043 0.764 0.085v4.036c-0.255-0.079-0.555-0.139-0.864-0.169l-0.019-0.001c-0.345-0.053-0.745-0.084-1.151-0.085h-0.001c-0.020-0-0.043-0.001-0.067-0.001-0.765 0-1.485 0.194-2.114 0.535l0.023-0.012c-0.631 0.339-1.129 0.811-1.493 1.417-0.363 0.606-0.544 1.306-0.544 2.097v10.946h-4.388zM111.232 23.829c-1.867 0-3.477-0.386-4.836-1.163-1.343-0.787-2.409-1.919-3.094-3.276l-0.021-0.045c-0.727-1.438-1.090-3.132-1.090-5.077 0-1.916 0.363-3.597 1.088-5.043 0.704-1.416 1.756-2.568 3.046-3.374l0.035-0.020c1.316-0.817 2.865-1.225 4.642-1.225 1.148 0 2.231 0.186 3.249 0.557 1.026 0.363 1.931 0.93 2.716 1.698 0.789 0.768 1.412 1.745 1.867 2.933 0.452 1.18 0.678 2.586 0.678 4.218v1.344h-15.262v-2.955h11.055c0-0.012 0-0.026 0-0.040 0-0.805-0.201-1.563-0.557-2.226l0.012 0.025c-0.351-0.656-0.859-1.187-1.475-1.556l-0.018-0.010c-0.605-0.359-1.333-0.571-2.112-0.571-0.032 0-0.065 0-0.097 0.001l0.005-0c-0.896 0-1.685 0.22-2.364 0.655-0.681 0.427-1.21 0.994-1.589 1.698-0.359 0.663-0.57 1.452-0.57 2.289 0 0.001 0 0.001 0 0.002v-0 2.581c0 1.082 0.198 2.012 0.595 2.788 0.395 0.768 0.949 1.357 1.66 1.771 0.71 0.401 1.545 0.604 2.496 0.604 0.64 0 1.216-0.087 1.734-0.267 0.516-0.186 0.966-0.457 1.344-0.811 0.382-0.356 0.668-0.798 0.862-1.323l4.096 0.461c-0.256 1.084-0.751 2.027-1.478 2.837-0.748 0.811-1.672 1.448-2.713 1.85l-0.049 0.017c-1.124 0.435-2.409 0.653-3.855 0.653zM127.215 23.842c-0.036 0.001-0.079 0.001-0.123 0.001-1.108 0-2.161-0.232-3.115-0.65l0.050 0.020c-0.939-0.429-1.681-1.060-2.229-1.892-0.542-0.832-0.813-1.856-0.813-3.078 0-1.050 0.192-1.92 0.58-2.605 0.388-0.687 0.917-1.237 1.589-1.649 0.652-0.402 1.407-0.723 2.21-0.923l0.055-0.012c0.741-0.199 1.635-0.365 2.549-0.464l0.082-0.007c1.092-0.113 1.975-0.213 2.656-0.303 0.678-0.098 1.171-0.243 1.478-0.437 0.314-0.203 0.471-0.512 0.471-0.932v-0.073c0-0.913-0.271-1.621-0.811-2.123-0.542-0.501-1.323-0.751-2.34-0.751-1.075 0-1.926 0.235-2.558 0.704-0.621 0.469-1.041 1.022-1.259 1.66l-4.098-0.582c0.322-1.131 0.855-2.076 1.6-2.837 0.742-0.768 1.651-1.34 2.726-1.719 1.025-0.37 2.207-0.583 3.439-0.583 0.043 0 0.087 0 0.13 0.001l-0.007-0c0.898 0 1.792 0.107 2.679 0.316 0.89 0.209 1.702 0.557 2.436 1.041 0.736 0.478 1.327 1.129 1.771 1.952 0.452 0.826 0.678 1.856 0.678 3.093v12.459h-4.218v-2.558h-0.145c-0.267 0.518-0.642 1.003-1.129 1.455-0.507 0.459-1.107 0.826-1.767 1.067l-0.038 0.012c-0.719 0.267-1.564 0.399-2.534 0.399zM128.354 20.619c0.881 0 1.645-0.175 2.291-0.523 0.646-0.354 1.143-0.823 1.493-1.406 0.354-0.58 0.533-1.216 0.533-1.903v-2.193c-0.201 0.142-0.436 0.251-0.69 0.313l-0.014 0.003c-0.289 0.090-0.657 0.178-1.032 0.245l-0.060 0.009c-0.405 0.073-0.804 0.137-1.199 0.192l-1.030 0.147c-0.655 0.090-1.242 0.235-1.758 0.437-0.489 0.18-0.901 0.471-1.221 0.843l-0.003 0.004c-0.299 0.356-0.448 0.817-0.448 1.382 0 0.809 0.294 1.419 0.883 1.83 0.591 0.412 1.344 0.619 2.255 0.619zM149.389 4.849v3.392h-10.701v-3.392h10.703zM141.329 0.388h4.388v17.478c0 0.591 0.087 1.043 0.267 1.357 0.186 0.307 0.427 0.518 0.725 0.631s0.631 0.171 0.996 0.171c0.273 0 0.525-0.021 0.751-0.062 0.235-0.041 0.412-0.077 0.533-0.109l0.738 3.43c-0.26 0.089-0.597 0.181-0.94 0.255l-0.064 0.012c-0.427 0.096-0.954 0.154-1.577 0.171-0.097 0.005-0.211 0.007-0.325 0.007-0.952 0-1.861-0.186-2.692-0.524l0.048 0.017c-0.871-0.363-1.585-0.956-2.087-1.703l-0.011-0.017c-0.508-0.777-0.759-1.747-0.751-2.91v-18.206zM166.142 9.771l-4 0.435c-0.128-0.438-0.331-0.818-0.598-1.145l0.005 0.006c-0.295-0.368-0.669-0.66-1.097-0.852l-0.019-0.008c-0.473-0.209-1.024-0.33-1.604-0.33-0.041 0-0.082 0.001-0.123 0.002l0.006-0c-0.913 0-1.681 0.198-2.304 0.595-0.612 0.395-0.917 0.909-0.907 1.538-0.001 0.022-0.002 0.047-0.002 0.073 0 0.503 0.231 0.952 0.592 1.248l0.003 0.002c0.412 0.339 1.090 0.619 2.037 0.836l3.174 0.678c1.762 0.38 3.072 0.981 3.927 1.805 0.864 0.826 1.301 1.903 1.31 3.236 0 0.013 0 0.028 0 0.043 0 1.156-0.387 2.221-1.040 3.074l0.009-0.012c-0.672 0.89-1.604 1.583-2.801 2.084-1.195 0.501-2.569 0.753-4.119 0.753-2.281 0-4.115-0.478-5.504-1.431-1.391-0.96-2.219-2.3-2.485-4.011l4.279-0.414c0.192 0.841 0.606 1.474 1.237 1.903 0.629 0.427 1.451 0.642 2.46 0.642 1.041 0 1.877-0.213 2.509-0.64 0.64-0.431 0.958-0.96 0.958-1.589 0-0.010 0-0.021 0-0.033 0-0.52-0.24-0.984-0.616-1.287l-0.003-0.002c-0.405-0.346-1.035-0.612-1.89-0.798l-3.177-0.668c-1.786-0.371-3.106-0.998-3.964-1.877-0.858-0.89-1.28-2.014-1.274-3.371-0.006-1.148 0.303-2.142 0.934-2.982 0.64-0.849 1.523-1.502 2.654-1.963 1.139-0.469 2.453-0.704 3.94-0.704 2.182 0 3.9 0.465 5.152 1.395 1.259 0.928 2.039 2.185 2.338 3.77zM171.497 23.733c-0.734 0-1.365-0.258-1.89-0.777-0.478-0.458-0.775-1.102-0.775-1.816 0-0.026 0-0.052 0.001-0.078l-0 0.004c-0.009-0.725 0.25-1.35 0.774-1.867 0.527-0.516 1.156-0.777 1.892-0.777 0.71 0 1.329 0.26 1.856 0.777 0.498 0.467 0.809 1.128 0.809 1.863 0 0.5-0.144 0.967-0.393 1.36l0.006-0.010c-0.243 0.405-0.565 0.725-0.971 0.969-0.395 0.235-0.832 0.352-1.308 0.352z"></path>
</symbol>
<symbol id="icon-search-desktop" viewBox="0 0 32 32">
<path fill="#9bb537" style="fill: var(--color2, #9bb537)" d="M28.948 27.054l-4.948-4.907c1.644-2.036 2.639-4.656 2.639-7.508 0-6.627-5.373-12-12-12s-12 5.373-12 12c0 6.627 5.373 12 12 12 2.852 0 5.472-0.995 7.531-2.657l-0.023 0.018 4.907 4.907c0.242 0.244 0.577 0.394 0.947 0.394s0.705-0.151 0.947-0.394l0-0c0.232-0.24 0.374-0.566 0.374-0.926s-0.143-0.687-0.375-0.927l0 0zM14.667 24c-5.155 0-9.333-4.179-9.333-9.333s4.179-9.333 9.333-9.333v0c5.155 0 9.333 4.179 9.333 9.333s-4.179 9.333-9.333 9.333v0z"></path>
</symbol>
<symbol id="icon-shefs-hat" viewBox="0 0 37 32">
<path fill="#9bb537" style="fill: var(--color2, #9bb537)" d="M7.325 12.723h23.133v17.735h-23.133v-17.735z"></path>
<path fill="#9bb537" style="fill: var(--color2, #9bb537)" d="M16.578 11.373c0 4.578-3.711 8.289-8.289 8.289s-8.289-3.711-8.289-8.289 3.711-8.289 8.289-8.289 8.289 3.711 8.289 8.289z"></path>
<path fill="#9bb537" style="fill: var(--color2, #9bb537)" d="M26.988 8.289c0 4.578-3.711 8.289-8.289 8.289s-8.289-3.711-8.289-8.289 3.711-8.289 8.289-8.289 8.289 3.711 8.289 8.289z"></path>
<path fill="#9bb537" style="fill: var(--color2, #9bb537)" d="M37.398 11.373c0 4.578-3.711 8.289-8.289 8.289s-8.289-3.711-8.289-8.289 3.711-8.289 8.289-8.289 8.289 3.711 8.289 8.289z"></path>
<path fill="#f8f8f8" style="fill: var(--color1, #f8f8f8)" d="M7.325 29.301h23.133v2.036c0 0.366-0.324 0.663-0.723 0.663h-21.687c-0.399 0-0.723-0.297-0.723-0.663v-2.036zM14.265 10.36c0-0.611 0.432-1.107 0.964-1.107s0.964 0.495 0.964 1.107v5.112c0 0.611-0.432 1.107-0.964 1.107s-0.964-0.495-0.964-1.107v-5.112zM17.349 10.36c0-0.611 0.604-1.107 1.349-1.107s1.349 0.495 1.349 1.107v5.112c0 0.611-0.604 1.107-1.349 1.107s-1.349-0.495-1.349-1.107v-5.112zM21.205 10.36c0-0.611 0.432-1.107 0.964-1.107s0.964 0.495 0.964 1.107v5.112c0 0.611-0.432 1.107-0.964 1.107s-0.964-0.495-0.964-1.107v-5.112z"></path>
<path fill="#050505" style="fill: var(--color3, #050505)" d="M28.184 3.131c0.262-0.029 0.566-0.045 0.874-0.045 0.002 0 0.003 0 0.005 0h-0c3.714 0 6.861 2.412 7.938 5.746-0.289 0.030-0.582 0.046-0.878 0.046-3.714 0-6.861-2.413-7.938-5.746z"></path>
</symbol>
<symbol id="icon-star-5" viewBox="0 0 34 32">
<path fill="#f8f8f8" style="fill: var(--color1, #f8f8f8)" opacity="0.1" d="M14.89 2.282c0.738-2.267 3.946-2.267 4.682 0l2.080 6.4c0.33 0.997 1.253 1.703 2.341 1.703h6.732c2.385 0 3.375 3.052 1.447 4.453l-5.447 3.956c-0.618 0.453-1.014 1.176-1.014 1.991 0 0.272 0.044 0.534 0.126 0.778l-0.005-0.017 2.080 6.402c0.738 2.267-1.858 4.155-3.788 2.752l-5.445-3.956c-0.401-0.294-0.903-0.471-1.447-0.471s-1.047 0.176-1.454 0.475l0.007-0.005-5.445 3.956c-1.93 1.403-4.524-0.485-3.788-2.752l2.080-6.4c0.077-0.228 0.121-0.49 0.121-0.763 0-0.816-0.397-1.539-1.008-1.987l-0.007-0.005-5.447-3.956c-1.927-1.403-0.935-4.455 1.447-4.455h6.732c1.086-0.001 2.007-0.705 2.333-1.681l0.005-0.017 2.082-6.4z"></path>
</symbol>
<symbol id="icon-korzynka1" viewBox="0 0 32 32">
<path stroke-linejoin="round" stroke-linecap="round" stroke-miterlimit="4" stroke-width="2.6667" d="M12 29.333c0.736 0 1.333-0.597 1.333-1.333s-0.597-1.333-1.333-1.333v0c-0.736 0-1.333 0.597-1.333 1.333s0.597 1.333 1.333 1.333v0zM26.667 29.333c0.736 0 1.333-0.597 1.333-1.333s-0.597-1.333-1.333-1.333v0c-0.736 0-1.333 0.597-1.333 1.333s0.597 1.333 1.333 1.333v0z"></path>
<path stroke-linejoin="round" stroke-linecap="round" stroke-miterlimit="4" stroke-width="2.4" d="M1.333 1.333h5.333l3.573 17.853c0.251 1.233 1.327 2.147 2.616 2.147 0.018 0 0.036-0 0.054-0.001l-0.003 0h12.96c0.015 0 0.033 0 0.051 0 1.289 0 2.364-0.914 2.613-2.13l0.003-0.017 2.133-11.187h-22.667"></path>
</symbol>
</defs>
</svg>
