<svg aria-hidden="true" style="position: absolute; width: 0; height: 0; overflow: hidden;" version="1.1" xmlns="http://www.w3.org/2000/svg" xmlns:xlink="http://www.w3.org/1999/xlink">
<defs>
<symbol id="icon-burger" viewBox="0 0 32 32" width="32px" height="32px">
<path stroke-linejoin="round" stroke-linecap="round" stroke-miterlimit="4" stroke-width="2" d="M28 13.333h-24"></path>
<path stroke-linejoin="round" stroke-linecap="round" stroke-miterlimit="4" stroke-width="2" d="M28 8h-24"></path>
<path stroke-linejoin="round" stroke-linecap="round" stroke-miterlimit="4" stroke-width="2" d="M28 18.667h-24"></path>
<path stroke-linejoin="round" stroke-linecap="round" stroke-miterlimit="4" stroke-width="2" d="M28 24h-24"></path>
</symbol>
<symbol id="icon-shopping-cart" viewBox="0 0 32 32"  width="24px" height="24px">
<path stroke-linejoin="round" stroke-linecap="round" stroke-miterlimit="4" stroke-width="2.6667" d="M12 29.333c0.736 0 1.333-0.597 1.333-1.333s-0.597-1.333-1.333-1.333c-0.736 0-1.333 0.597-1.333 1.333s0.597 1.333 1.333 1.333z"></path>
<path stroke-linejoin="round" stroke-linecap="round" stroke-miterlimit="4" stroke-width="2.6667" d="M26.667 29.333c0.736 0 1.333-0.597 1.333-1.333s-0.597-1.333-1.333-1.333c-0.736 0-1.333 0.597-1.333 1.333s0.597 1.333 1.333 1.333z"></path>
<path stroke-linejoin="round" stroke-linecap="round" stroke-miterlimit="4" stroke-width="2.4" d="M1.333 1.333h5.333l3.573 17.853c0.122 0.614 0.456 1.165 0.943 1.558s1.098 0.601 1.723 0.589h12.96c0.626 0.012 1.236-0.197 1.723-0.589s0.821-0.944 0.943-1.558l2.133-11.187h-22.667"></path>
</symbol>
<symbol id="icon-switch" viewBox="0 0 50 32" width="46px" height="20px">
<path fill="#cecdcd" style="fill: var(--color1, #cecdcd)" d="M13.176 6.902h16.314c3.465 0 6.274 2.809 6.274 6.274s-2.809 6.275-6.274 6.275h-16.314c-3.465 0-6.274-2.809-6.274-6.274s2.809-6.274 6.274-6.274z"></path>
<path fill="#f8f8f8" style="fill: var(--color2, #f8f8f8)" d="M19.074 13.177c0 3.257-2.641 5.898-5.898 5.898s-5.898-2.641-5.898-5.898c0-3.257 2.641-5.898 5.898-5.898s5.898 2.641 5.898 5.898z"></path>
</symbol>
<symbol id="icon-x" viewBox="0 0 32 32">
<path fill="none" stroke="#f8f8f8" style="stroke: var(--color2, #f8f8f8)" stroke-linejoin="round" stroke-linecap="round" stroke-miterlimit="4" stroke-width="2" d="M24 8l-16 16"></path>
<path fill="none" stroke="#f8f8f8" style="stroke: var(--color2, #f8f8f8)" stroke-linejoin="round" stroke-linecap="round" stroke-miterlimit="4" stroke-width="2" d="M8 8l16 16"></path>
</symbol>
<symbol id="icon-strilka-left" viewBox="0 0 32 32">
<path fill="#f8f8f8" style="fill: var(--color1, #f8f8f8)" opacity="0.5" d="M14.133 16.947c-0.244-0.241-0.395-0.576-0.395-0.946 0-0.186 0.038-0.362 0.107-0.523l-0.003 0.009c0.071-0.169 0.17-0.313 0.292-0.433l0-0 6.12-6.107c0.26-0.244 0.423-0.59 0.423-0.974 0-0.737-0.598-1.335-1.335-1.335-0.381 0-0.724 0.159-0.967 0.415l-0.001 0.001-6.12 6.12c-0.723 0.724-1.17 1.723-1.17 2.827s0.447 2.103 1.17 2.827l6.12 6.12c0.241 0.239 0.573 0.387 0.94 0.387 0.737 0 1.334-0.597 1.334-1.334 0-0.37-0.151-0.705-0.394-0.947l-0-0-6.12-6.107z"></path>
</symbol>
<symbol id="icon-strilka-right" viewBox="0 0 32 32">
<path d="M17.867 16.947c0.244-0.241 0.395-0.576 0.395-0.946 0-0.186-0.038-0.362-0.107-0.523l0.003 0.009c-0.072-0.169-0.17-0.313-0.292-0.433l-0-0-6.12-6.107c-0.243-0.242-0.394-0.577-0.394-0.947 0-0.737 0.597-1.334 1.334-1.334 0.367 0 0.699 0.148 0.94 0.388l6.12 6.12c0.723 0.724 1.17 1.723 1.17 2.827s-0.447 2.103-1.17 2.827l-6.12 6.12c-0.241 0.239-0.573 0.387-0.94 0.387-0.737 0-1.334-0.597-1.334-1.334 0-0.37 0.151-0.705 0.394-0.947l0-0 6.12-6.107z"></path>
</symbol>
<symbol id="icon-burger" viewBox="0 0 32 32">
<path stroke-linejoin="round" stroke-linecap="round" stroke-miterlimit="4" stroke-width="2" d="M28 13.333h-24M28 8h-24M28 18.667h-24M28 24h-24"></path>
</symbol>
<symbol id="icon-heart-filled" viewBox="0 0 32 32">
<path fill="#f8f8f8" style="fill: var(--color1, #f8f8f8)" d="M15.991 6.848c-2.666-3.117-7.113-3.956-10.452-1.101-3.34 2.854-3.811 7.625-1.187 11.001 2.182 2.806 8.781 8.724 10.944 10.64 0.241 0.214 0.364 0.321 0.505 0.364 0.057 0.017 0.123 0.028 0.191 0.028s0.134-0.010 0.195-0.029l-0.005 0.001c0.141-0.042 0.262-0.15 0.503-0.364 2.164-1.916 8.764-7.834 10.944-10.64 2.623-3.375 2.211-8.177-1.187-11.001-3.398-2.825-7.786-2.016-10.451 1.101z"></path>
</symbol>
<symbol id="icon-heart-notfilled" viewBox="0 0 32 32">
<path fill="none" opacity="0.5" stroke="#f8f8f8" style="stroke: var(--color1, #f8f8f8)" stroke-linejoin="round" stroke-linecap="round" stroke-miterlimit="4" stroke-width="2.9091" d="M15.991 6.848c-2.666-3.117-7.113-3.956-10.451-1.101-3.341 2.854-3.811 7.625-1.188 11.001 2.182 2.806 8.781 8.724 10.944 10.64 0.241 0.214 0.364 0.321 0.505 0.364 0.057 0.017 0.123 0.027 0.191 0.027s0.133-0.010 0.195-0.029l-0.005 0.001c0.141-0.042 0.262-0.15 0.503-0.364 2.164-1.916 8.764-7.834 10.944-10.64 2.624-3.375 2.211-8.177-1.187-11.001-3.398-2.825-7.785-2.016-10.451 1.101z"></path>
</symbol>
<symbol id="icon-korzynka" viewBox="0 0 32 32">
<path stroke-linejoin="round" stroke-linecap="round" stroke-miterlimit="4" stroke-width="2.6667" d="M12 29.333c0.736 0 1.333-0.597 1.333-1.333s-0.597-1.333-1.333-1.333v0c-0.736 0-1.333 0.597-1.333 1.333s0.597 1.333 1.333 1.333v0zM26.667 29.333c0.736 0 1.333-0.597 1.333-1.333s-0.597-1.333-1.333-1.333v0c-0.736 0-1.333 0.597-1.333 1.333s0.597 1.333 1.333 1.333v0z"></path>
<path stroke-linejoin="round" stroke-linecap="round" stroke-miterlimit="4" stroke-width="2.4" d="M1.333 1.333h5.333l3.573 17.853c0.251 1.233 1.327 2.147 2.616 2.147 0.018 0 0.036-0 0.054-0.001l-0.003 0h12.96c0.015 0 0.033 0 0.051 0 1.289 0 2.364-0.914 2.613-2.13l0.003-0.017 2.133-11.187h-22.667"></path>
</symbol>
<symbol id="icon-krestik-green" viewBox="0 0 32 32">
<path stroke-linejoin="round" stroke-linecap="round" stroke-miterlimit="4" stroke-width="3" d="M24 8l-16 16M8 8l16 16"></path>
</symbol>
<symbol id="icon-krestik-modalka" viewBox="0 0 32 32">
<path stroke-linejoin="round" stroke-linecap="round" stroke-miterlimit="4" stroke-width="2.6667" d="M24 8l-16 16M8 8l16 16"></path>
</symbol>
<symbol id="icon-search-desktop" viewBox="0 0 32 32">
<path d="M28.948 27.054l-4.948-4.907c1.644-2.036 2.639-4.656 2.639-7.508 0-6.627-5.373-12-12-12s-12 5.373-12 12c0 6.627 5.373 12 12 12 2.852 0 5.472-0.995 7.531-2.657l-0.023 0.018 4.907 4.907c0.242 0.244 0.577 0.394 0.947 0.394s0.705-0.151 0.947-0.394l0-0c0.232-0.24 0.374-0.566 0.374-0.926s-0.143-0.687-0.375-0.927l0 0zM14.667 24c-5.155 0-9.333-4.179-9.333-9.333s4.179-9.333 9.333-9.333v0c5.155 0 9.333 4.179 9.333 9.333s-4.179 9.333-9.333 9.333v0z"></path>
</symbol>
<symbol id="icon-shefs-hat" viewBox="0 0 37 32">
<path fill="#9bb537" style="fill: var(--color2, #9bb537)" d="M7.325 12.723h23.133v17.735h-23.133v-17.735z"></path>
<path fill="#9bb537" style="fill: var(--color2, #9bb537)" d="M16.578 11.373c0 4.578-3.711 8.289-8.289 8.289s-8.289-3.711-8.289-8.289 3.711-8.289 8.289-8.289 8.289 3.711 8.289 8.289z"></path>
<path fill="#9bb537" style="fill: var(--color2, #9bb537)" d="M26.988 8.289c0 4.578-3.711 8.289-8.289 8.289s-8.289-3.711-8.289-8.289 3.711-8.289 8.289-8.289 8.289 3.711 8.289 8.289z"></path>
<path fill="#9bb537" style="fill: var(--color2, #9bb537)" d="M37.398 11.373c0 4.578-3.711 8.289-8.289 8.289s-8.289-3.711-8.289-8.289 3.711-8.289 8.289-8.289 8.289 3.711 8.289 8.289z"></path>
<path fill="#f8f8f8" style="fill: var(--color1, #f8f8f8)" d="M7.325 29.301h23.133v2.036c0 0.366-0.324 0.663-0.723 0.663h-21.687c-0.399 0-0.723-0.297-0.723-0.663v-2.036zM14.265 10.36c0-0.611 0.432-1.107 0.964-1.107s0.964 0.495 0.964 1.107v5.112c0 0.611-0.432 1.107-0.964 1.107s-0.964-0.495-0.964-1.107v-5.112zM17.349 10.36c0-0.611 0.604-1.107 1.349-1.107s1.349 0.495 1.349 1.107v5.112c0 0.611-0.604 1.107-1.349 1.107s-1.349-0.495-1.349-1.107v-5.112zM21.205 10.36c0-0.611 0.432-1.107 0.964-1.107s0.964 0.495 0.964 1.107v5.112c0 0.611-0.432 1.107-0.964 1.107s-0.964-0.495-0.964-1.107v-5.112z"></path>
<path fill="#050505" style="fill: var(--color3, #050505)" d="M28.184 3.131c0.262-0.029 0.566-0.045 0.874-0.045 0.002 0 0.003 0 0.005 0h-0c3.714 0 6.861 2.412 7.938 5.746-0.289 0.030-0.582 0.046-0.878 0.046-3.714 0-6.861-2.413-7.938-5.746z"></path>
</symbol>
<symbol id="icon-star" viewBox="0 0 34 32">
<path d="M6.04894 0.927052C6.3483 0.0057416 7.6517 0.00574088 7.95106 0.927052L8.79611 3.52786C8.92999 3.93989 9.31394 4.21885 9.74717 4.21885H12.4818C13.4505 4.21885 13.8533 5.45846 13.0696 6.02786L10.8572 7.63525C10.5067 7.8899 10.3601 8.34127 10.494 8.75329L11.339 11.3541C11.6384 12.2754 10.5839 13.0415 9.80017 12.4721L7.58779 10.8647C7.2373 10.6101 6.7627 10.6101 6.41222 10.8647L4.19983 12.4721C3.41612 13.0415 2.36164 12.2754 2.66099 11.3541L3.50604 8.75329C3.63992 8.34127 3.49326 7.8899 3.14277 7.63525L0.930391 6.02787C0.146677 5.45846 0.549452 4.21885 1.51818 4.21885H4.25283C4.68606 4.21885 5.07001 3.93989 5.20389 3.52786L6.04894 0.927052Z" fill="#EEA10C"/>
</symbol>
<symbol id="icon-star-grey" viewBox="0 0 34 32">
<path d="M6.04894 0.927052C6.3483 0.0057416 7.6517 0.00574088 7.95106 0.927052L8.79611 3.52786C8.92999 3.93989 9.31394 4.21885 9.74717 4.21885H12.4818C13.4505 4.21885 13.8533 5.45846 13.0696 6.02786L10.8572 7.63525C10.5067 7.8899 10.3601 8.34127 10.494 8.75329L11.339 11.3541C11.6384 12.2754 10.5839 13.0415 9.80017 12.4721L7.58779 10.8647C7.2373 10.6101 6.7627 10.6101 6.41222 10.8647L4.19983 12.4721C3.41612 13.0415 2.36164 12.2754 2.66099 11.3541L3.50604 8.75329C3.63992 8.34127 3.49326 7.8899 3.14277 7.63525L0.930391 6.02787C0.146677 5.45846 0.549452 4.21885 1.51818 4.21885H4.25283C4.68606 4.21885 5.07001 3.93989 5.20389 3.52786L6.04894 0.927052Z" fill="grey"/>
</symbol>
<symbol id="icon-korzynka1" viewBox="0 0 32 32">
<path stroke-linejoin="round" stroke-linecap="round" stroke-miterlimit="4" stroke-width="2.6667" d="M12 29.333c0.736 0 1.333-0.597 1.333-1.333s-0.597-1.333-1.333-1.333v0c-0.736 0-1.333 0.597-1.333 1.333s0.597 1.333 1.333 1.333v0zM26.667 29.333c0.736 0 1.333-0.597 1.333-1.333s-0.597-1.333-1.333-1.333v0c-0.736 0-1.333 0.597-1.333 1.333s0.597 1.333 1.333 1.333v0z"></path>
<path stroke-linejoin="round" stroke-linecap="round" stroke-miterlimit="4" stroke-width="2.4" d="M1.333 1.333h5.333l3.573 17.853c0.251 1.233 1.327 2.147 2.616 2.147 0.018 0 0.036-0 0.054-0.001l-0.003 0h12.96c0.015 0 0.033 0 0.051 0 1.289 0 2.364-0.914 2.613-2.13l0.003-0.017 2.133-11.187h-22.667"></path>
</symbol>
<symbol id="icon-cook" viewBox="0 0 22 32">
<path d="M7.742 0.65c-0.107 0.085-1 1.395-1.045 1.538-0.022 0.067-0.050 0.252-0.058 0.41-0.010 0.158-0.032 0.305-0.050 0.33-0.055 0.080-1.567 1.32-1.705 1.4l-0.135 0.075-0.093-0.072c-0.185-0.145-0.395-0.162-0.508-0.043-0.030 0.032-0.090 0.067-0.128 0.075-0.095 0.022-0.223 0.13-0.223 0.188 0 0.025-0.038 0.070-0.083 0.098-0.080 0.048-0.143 0.143-0.143 0.21 0 0.018-0.025 0.077-0.055 0.135-0.055 0.105-0.058 0.11-0.013 0.23 0.022 0.067 0.042 0.135 0.042 0.15 0 0.013-0.147 0.152-0.325 0.305-0.27 0.232-0.33 0.295-0.35 0.378-0.050 0.183 0.065 0.298 0.257 0.26 0.063-0.013 0.172-0.082 0.342-0.223 0.38-0.31 0.317-0.3 0.633-0.093 0.263 0.173 0.275 0.188 0.345 0.34 0.050 0.115 0.067 0.183 0.055 0.237-0.010 0.055 0.008 0.125 0.075 0.268 0.048 0.105 0.125 0.282 0.17 0.39 0.133 0.325 0.572 1.198 0.827 1.64 0.478 0.83 0.855 1.36 1.235 1.732 0.138 0.135 0.6 0.515 1.048 0.863l0.8 0.617 0.027 0.287c0.063 0.63 0.207 1.088 0.46 1.447 0.125 0.178 0.143 0.27 0.165 0.915 0.027 0.745-0.082 1.727-0.22 1.995-0.033 0.063-0.055 0.165-0.060 0.255-0.018 0.308-0.030 0.407-0.092 0.738-0.123 0.648-0.152 0.985-0.155 1.738 0 0.385 0.015 0.863 0.033 1.063s0.043 0.565 0.055 0.813c0.015 0.302 0.072 0.785 0.17 1.475 0.133 0.922 0.145 1.047 0.127 1.25-0.018 0.192-0.005 0.335 0.078 0.975 0.113 0.87 0.213 1.695 0.255 2.135 0.025 0.275 0.035 0.315 0.090 0.365s0.060 0.073 0.050 0.198c-0.012 0.155-0.005 0.168 0.137 0.215 0.123 0.038 0.168 0.137 0.168 0.36v0.163l-0.148 0.148c-0.13 0.133-0.15 0.168-0.175 0.295-0.015 0.082-0.050 0.233-0.080 0.335-0.027 0.102-0.060 0.273-0.072 0.375-0.010 0.102-0.045 0.282-0.075 0.4-0.035 0.133-0.057 0.293-0.060 0.425-0.002 0.183 0.005 0.227 0.060 0.323 0.053 0.095 0.082 0.117 0.2 0.157 0.367 0.125 0.815 0.148 1.125 0.055 0.18-0.052 0.193-0.065 0.227-0.223 0.037-0.17-0.002-0.555-0.080-0.775-0.035-0.105-0.050-0.2-0.045-0.313 0.018-0.595-0.020-0.81-0.172-0.98l-0.092-0.102-0.008-0.32-0.010-0.323 0.072-0.067c0.040-0.040 0.1-0.093 0.137-0.12l0.065-0.050 0.053-1.7c0.030-0.935 0.045-1.802 0.037-1.925-0.018-0.24 0.15-2.255 0.188-2.295 0.030-0.030 0.040 0.070 0.137 1.183 0.063 0.71 0.082 1.038 0.068 1.17-0.010 0.098 0.008 0.942 0.037 1.872l0.055 1.692 0.060 0.052c0.035 0.027 0.095 0.073 0.135 0.102l0.072 0.052v0.672l-0.092 0.137c-0.12 0.177-0.15 0.337-0.143 0.765 0.008 0.313 0 0.365-0.060 0.567-0.053 0.175-0.068 0.273-0.068 0.465 0 0.313 0.025 0.385 0.152 0.435 0.152 0.063 0.443 0.098 0.645 0.080 0.307-0.025 0.627-0.113 0.705-0.19 0.143-0.142 0.158-0.392 0.047-0.85-0.040-0.172-0.075-0.36-0.075-0.415 0-0.058-0.023-0.172-0.050-0.258-0.025-0.082-0.060-0.223-0.075-0.308-0.027-0.163-0.095-0.345-0.125-0.345-0.010 0-0.072-0.052-0.135-0.117l-0.117-0.12 0.008-0.192c0.010-0.22 0.037-0.265 0.19-0.308l0.092-0.027 0.008-0.16c0.005-0.117 0.020-0.177 0.055-0.212 0.040-0.043 0.060-0.168 0.125-0.76 0.043-0.392 0.125-1.055 0.18-1.475 0.088-0.645 0.105-0.837 0.107-1.227 0.005-0.42 0.018-0.55 0.143-1.413 0.085-0.58 0.148-1.093 0.158-1.313 0.012-0.277 0.027-0.372 0.057-0.407 0.035-0.038 0.035-0.067 0.010-0.212-0.018-0.113-0.023-0.352-0.012-0.73 0.018-0.69-0.047-1.655-0.158-2.35l-0.015-0.098 0.125 0.015c0.127 0.015 0.127 0.015 0.305-0.14 0.098-0.082 0.185-0.152 0.195-0.152s0.043 0.017 0.072 0.038c0.050 0.035 0.070 0.015 0.498-0.468 0.915-1.033 1.053-1.207 1.342-1.703 0.31-0.533 0.33-0.578 0.305-0.732-0.020-0.145-0.102-0.297-0.523-0.985-0.938-1.527-1.55-2.457-1.732-2.627-0.133-0.125-0.547-0.338-1.033-0.53-0.277-0.11-0.695-0.242-0.765-0.242-0.020 0-0.047-0.030-0.065-0.070-0.015-0.037-0.040-0.102-0.060-0.143-0.018-0.043-0.037-0.095-0.045-0.12-0.008-0.023-0.037-0.043-0.065-0.043-0.040 0-0.050-0.018-0.050-0.075s0.043-0.123 0.203-0.293c0.223-0.242 0.447-0.565 0.557-0.797 0.053-0.11 0.095-0.165 0.15-0.193 0.123-0.057 0.303-0.232 0.412-0.393 0.11-0.168 0.162-0.357 0.137-0.518-0.023-0.147-0.152-0.36-0.252-0.41-0.045-0.022-0.075-0.045-0.068-0.053 0.010-0.013 0.082-0.513 0.085-0.595 0.002-0.098 0.040-0.105 0.172-0.037 0.28 0.14 0.67 0.1 0.885-0.090 0.207-0.183 0.283-0.49 0.207-0.848-0.078-0.37-0.268-0.66-0.525-0.813-0.088-0.050-0.127-0.098-0.175-0.2-0.090-0.197-0.252-0.428-0.432-0.605-0.15-0.15-0.408-0.337-0.51-0.37-0.025-0.007-0.082-0.085-0.127-0.17-0.188-0.357-0.625-0.675-1.025-0.743-0.43-0.072-0.992 0.060-1.475 0.353-0.090 0.055-0.095 0.055-0.225 0.013-0.18-0.058-0.5-0.078-0.675-0.042-0.175 0.038-0.453 0.225-0.595 0.405-0.195 0.248-0.3 0.553-0.3 0.87 0.002 0.542 0.393 1.26 0.818 1.505 0.098 0.055 0.102 0.065 0.117 0.21 0.008 0.082 0.043 0.25 0.075 0.375 0.035 0.135 0.065 0.343 0.078 0.522 0.015 0.293 0.015 0.298-0.045 0.362-0.193 0.202-0.235 0.495-0.113 0.76 0.075 0.157 0.365 0.472 0.477 0.515 0.045 0.018 0.092 0.085 0.165 0.23 0.127 0.252 0.26 0.44 0.537 0.755 0.162 0.185 0.215 0.265 0.215 0.318 0 0.102-0.025 0.15-0.075 0.15-0.025 0-0.057 0.033-0.075 0.075-0.018 0.040-0.040 0.075-0.053 0.075s-0.030 0.035-0.043 0.078c-0.018 0.075-0.033 0.082-0.268 0.15-0.137 0.040-0.28 0.070-0.315 0.072-0.143 0-1.165-0.5-2.098-1.027-0.188-0.105-0.228-0.143-0.35-0.313-0.075-0.107-0.205-0.27-0.285-0.36-0.435-0.48-1.020-1.383-1.563-2.408-0.117-0.22-0.168-0.293-0.205-0.293-0.070 0-0.063-0.128 0.018-0.293 0.063-0.128 0.065-0.15 0.055-0.393-0.010-0.165-0.027-0.285-0.055-0.335-0.082-0.157-0.103-0.135 0.867-1.010l0.748-0.675 0.343 0.018c0.298 0.015 0.357 0.013 0.478-0.030 0.178-0.063 1.383-0.79 1.46-0.885 0.127-0.15 0.11-0.44-0.037-0.748-0.057-0.117-0.143-0.225-0.307-0.387-0.24-0.24-0.438-0.365-0.675-0.427-0.173-0.047-0.223-0.045-0.298 0.015zM7.85 1.038c0 0.035-0.502 0.625-0.655 0.77-0.075 0.073-0.12 0.070-0.12-0.002 0-0.040 0.595-0.792 0.66-0.835 0.035-0.022 0.115 0.025 0.115 0.067zM8.223 1.188c0.010 0.063-0.827 0.888-0.902 0.888-0.1 0-0.025-0.107 0.367-0.525 0.335-0.357 0.41-0.425 0.463-0.42 0.037 0.005 0.065 0.025 0.072 0.058zM8.475 1.405c0 0.042-0.123 0.167-0.455 0.47-0.43 0.393-0.537 0.462-0.565 0.38-0.010-0.035 0.043-0.090 0.578-0.587 0.345-0.317 0.443-0.375 0.443-0.262zM8.67 1.7c0.005 0.055-0.053 0.11-0.412 0.403-0.23 0.185-0.447 0.357-0.482 0.38-0.070 0.045-0.143 0.022-0.117-0.040 0.013-0.033 0.56-0.522 0.825-0.738 0.115-0.093 0.178-0.095 0.188-0.005zM8.787 2.098c0 0.053-0.070 0.112-0.428 0.357-0.412 0.285-0.51 0.328-0.51 0.23 0-0.020 0.188-0.175 0.418-0.348 0.43-0.325 0.52-0.365 0.52-0.24zM3.2 6.010c0.050 0.065 0.020 0.152-0.055 0.16-0.087 0.010-0.15-0.093-0.095-0.157 0.040-0.048 0.11-0.048 0.15-0.003zM14.010 13.887c0.338 0.395 0.615 0.735 0.615 0.758 0 0.025-0.018 0.068-0.037 0.1-0.030 0.043-0.033 0.065-0.012 0.107 0.025 0.043 0.012 0.080-0.078 0.23-0.287 0.488-0.637 0.918-0.955 1.17-0.137 0.11-0.193 0.102-0.238-0.025-0.033-0.093-0.17-0.195-0.295-0.223l-0.098-0.020-0.023-0.297c-0.015-0.197-0.012-0.495 0.008-0.875 0.040-0.785 0.055-0.883 0.152-1.023 0.072-0.11 0.172-0.307 0.26-0.523 0.020-0.050 0.047-0.092 0.063-0.092 0.012 0 0.3 0.32 0.637 0.713z"></path>
</symbol>
</defs>
</svg>
