<svg aria-hidden="true" style="position: absolute; width: 0; height: 0; overflow: hidden;" version="1.1" xmlns="http://www.w3.org/2000/svg" xmlns:xlink="http://www.w3.org/1999/xlink">
<defs>
<symbol id="icon-burger" viewBox="0 0 32 32" width="32px" height="32px">
<path stroke-linejoin="round" stroke-linecap="round" stroke-miterlimit="4" stroke-width="2" d="M28 13.333h-24"></path>
<path stroke-linejoin="round" stroke-linecap="round" stroke-miterlimit="4" stroke-width="2" d="M28 8h-24"></path>
<path stroke-linejoin="round" stroke-linecap="round" stroke-miterlimit="4" stroke-width="2" d="M28 18.667h-24"></path>
<path stroke-linejoin="round" stroke-linecap="round" stroke-miterlimit="4" stroke-width="2" d="M28 24h-24"></path>
</symbol>
<symbol id="icon-shopping-cart" viewBox="0 0 32 32"  width="24px" height="24px">
<path stroke-linejoin="round" stroke-linecap="round" stroke-miterlimit="4" stroke-width="2.6667" d="M12 29.333c0.736 0 1.333-0.597 1.333-1.333s-0.597-1.333-1.333-1.333c-0.736 0-1.333 0.597-1.333 1.333s0.597 1.333 1.333 1.333z"></path>
<path stroke-linejoin="round" stroke-linecap="round" stroke-miterlimit="4" stroke-width="2.6667" d="M26.667 29.333c0.736 0 1.333-0.597 1.333-1.333s-0.597-1.333-1.333-1.333c-0.736 0-1.333 0.597-1.333 1.333s0.597 1.333 1.333 1.333z"></path>
<path stroke-linejoin="round" stroke-linecap="round" stroke-miterlimit="4" stroke-width="2.4" d="M1.333 1.333h5.333l3.573 17.853c0.122 0.614 0.456 1.165 0.943 1.558s1.098 0.601 1.723 0.589h12.96c0.626 0.012 1.236-0.197 1.723-0.589s0.821-0.944 0.943-1.558l2.133-11.187h-22.667"></path>
</symbol>
<symbol id="icon-switch" viewBox="0 0 50 32" width="46px" height="20px">
<path fill="#cecdcd" style="fill: var(--color1, #cecdcd)" d="M13.176 6.902h16.314c3.465 0 6.274 2.809 6.274 6.274s-2.809 6.275-6.274 6.275h-16.314c-3.465 0-6.274-2.809-6.274-6.274s2.809-6.274 6.274-6.274z"></path>
<path fill="#f8f8f8" style="fill: var(--color2, #f8f8f8)" d="M19.074 13.177c0 3.257-2.641 5.898-5.898 5.898s-5.898-2.641-5.898-5.898c0-3.257 2.641-5.898 5.898-5.898s5.898 2.641 5.898 5.898z"></path>
</symbol>
<symbol id="icon-x" viewBox="0 0 32 32">
<path fill="none" stroke="#f8f8f8" style="stroke: var(--color2, #f8f8f8)" stroke-linejoin="round" stroke-linecap="round" stroke-miterlimit="4" stroke-width="2" d="M24 8l-16 16"></path>
<path fill="none" stroke="#f8f8f8" style="stroke: var(--color2, #f8f8f8)" stroke-linejoin="round" stroke-linecap="round" stroke-miterlimit="4" stroke-width="2" d="M8 8l16 16"></path>
</symbol>
<symbol id="icon-strilka-left" viewBox="0 0 32 32">
<path fill="#f8f8f8" style="fill: var(--color1, #f8f8f8)" opacity="0.5" d="M14.133 16.947c-0.244-0.241-0.395-0.576-0.395-0.946 0-0.186 0.038-0.362 0.107-0.523l-0.003 0.009c0.071-0.169 0.17-0.313 0.292-0.433l0-0 6.12-6.107c0.26-0.244 0.423-0.59 0.423-0.974 0-0.737-0.598-1.335-1.335-1.335-0.381 0-0.724 0.159-0.967 0.415l-0.001 0.001-6.12 6.12c-0.723 0.724-1.17 1.723-1.17 2.827s0.447 2.103 1.17 2.827l6.12 6.12c0.241 0.239 0.573 0.387 0.94 0.387 0.737 0 1.334-0.597 1.334-1.334 0-0.37-0.151-0.705-0.394-0.947l-0-0-6.12-6.107z"></path>
</symbol>
<symbol id="icon-strilka-right" viewBox="0 0 32 32">
<path d="M17.867 16.947c0.244-0.241 0.395-0.576 0.395-0.946 0-0.186-0.038-0.362-0.107-0.523l0.003 0.009c-0.072-0.169-0.17-0.313-0.292-0.433l-0-0-6.12-6.107c-0.243-0.242-0.394-0.577-0.394-0.947 0-0.737 0.597-1.334 1.334-1.334 0.367 0 0.699 0.148 0.94 0.388l6.12 6.12c0.723 0.724 1.17 1.723 1.17 2.827s-0.447 2.103-1.17 2.827l-6.12 6.12c-0.241 0.239-0.573 0.387-0.94 0.387-0.737 0-1.334-0.597-1.334-1.334 0-0.37 0.151-0.705 0.394-0.947l0-0 6.12-6.107z"></path>
</symbol>
<symbol id="icon-burger" viewBox="0 0 32 32">
<path stroke-linejoin="round" stroke-linecap="round" stroke-miterlimit="4" stroke-width="2" d="M28 13.333h-24M28 8h-24M28 18.667h-24M28 24h-24"></path>
</symbol>
<symbol id="icon-heart-filled" viewBox="0 0 32 32">
<path fill="#f8f8f8" style="fill: var(--color1, #f8f8f8)" d="M15.991 6.848c-2.666-3.117-7.113-3.956-10.452-1.101-3.34 2.854-3.811 7.625-1.187 11.001 2.182 2.806 8.781 8.724 10.944 10.64 0.241 0.214 0.364 0.321 0.505 0.364 0.057 0.017 0.123 0.028 0.191 0.028s0.134-0.010 0.195-0.029l-0.005 0.001c0.141-0.042 0.262-0.15 0.503-0.364 2.164-1.916 8.764-7.834 10.944-10.64 2.623-3.375 2.211-8.177-1.187-11.001-3.398-2.825-7.786-2.016-10.451 1.101z"></path>
</symbol>
<symbol id="icon-heart-notfilled" viewBox="0 0 32 32">
<path fill="none" opacity="0.5" stroke="#f8f8f8" style="stroke: var(--color1, #f8f8f8)" stroke-linejoin="round" stroke-linecap="round" stroke-miterlimit="4" stroke-width="2.9091" d="M15.991 6.848c-2.666-3.117-7.113-3.956-10.451-1.101-3.341 2.854-3.811 7.625-1.188 11.001 2.182 2.806 8.781 8.724 10.944 10.64 0.241 0.214 0.364 0.321 0.505 0.364 0.057 0.017 0.123 0.027 0.191 0.027s0.133-0.010 0.195-0.029l-0.005 0.001c0.141-0.042 0.262-0.15 0.503-0.364 2.164-1.916 8.764-7.834 10.944-10.64 2.624-3.375 2.211-8.177-1.187-11.001-3.398-2.825-7.785-2.016-10.451 1.101z"></path>
</symbol>
<symbol id="icon-korzynka" viewBox="0 0 32 32">
<path stroke-linejoin="round" stroke-linecap="round" stroke-miterlimit="4" stroke-width="2.6667" d="M12 29.333c0.736 0 1.333-0.597 1.333-1.333s-0.597-1.333-1.333-1.333v0c-0.736 0-1.333 0.597-1.333 1.333s0.597 1.333 1.333 1.333v0zM26.667 29.333c0.736 0 1.333-0.597 1.333-1.333s-0.597-1.333-1.333-1.333v0c-0.736 0-1.333 0.597-1.333 1.333s0.597 1.333 1.333 1.333v0z"></path>
<path stroke-linejoin="round" stroke-linecap="round" stroke-miterlimit="4" stroke-width="2.4" d="M1.333 1.333h5.333l3.573 17.853c0.251 1.233 1.327 2.147 2.616 2.147 0.018 0 0.036-0 0.054-0.001l-0.003 0h12.96c0.015 0 0.033 0 0.051 0 1.289 0 2.364-0.914 2.613-2.13l0.003-0.017 2.133-11.187h-22.667"></path>
</symbol>
<symbol id="icon-krestik-green" viewBox="0 0 32 32">
<path stroke-linejoin="round" stroke-linecap="round" stroke-miterlimit="4" stroke-width="3" d="M24 8l-16 16M8 8l16 16"></path>
</symbol>
<symbol id="icon-krestik-modalka" viewBox="0 0 32 32">
<path stroke-linejoin="round" stroke-linecap="round" stroke-miterlimit="4" stroke-width="2.6667" d="M24 8l-16 16M8 8l16 16"></path>
</symbol>
<symbol id="icon-search-desktop" viewBox="0 0 32 32">
<path d="M28.948 27.054l-4.948-4.907c1.644-2.036 2.639-4.656 2.639-7.508 0-6.627-5.373-12-12-12s-12 5.373-12 12c0 6.627 5.373 12 12 12 2.852 0 5.472-0.995 7.531-2.657l-0.023 0.018 4.907 4.907c0.242 0.244 0.577 0.394 0.947 0.394s0.705-0.151 0.947-0.394l0-0c0.232-0.24 0.374-0.566 0.374-0.926s-0.143-0.687-0.375-0.927l0 0zM14.667 24c-5.155 0-9.333-4.179-9.333-9.333s4.179-9.333 9.333-9.333v0c5.155 0 9.333 4.179 9.333 9.333s-4.179 9.333-9.333 9.333v0z"></path>
</symbol>
<symbol id="icon-shefs-hat" viewBox="0 0 37 32">
<path fill="#9bb537" style="fill: var(--color2, #9bb537)" d="M7.325 12.723h23.133v17.735h-23.133v-17.735z"></path>
<path fill="#9bb537" style="fill: var(--color2, #9bb537)" d="M16.578 11.373c0 4.578-3.711 8.289-8.289 8.289s-8.289-3.711-8.289-8.289 3.711-8.289 8.289-8.289 8.289 3.711 8.289 8.289z"></path>
<path fill="#9bb537" style="fill: var(--color2, #9bb537)" d="M26.988 8.289c0 4.578-3.711 8.289-8.289 8.289s-8.289-3.711-8.289-8.289 3.711-8.289 8.289-8.289 8.289 3.711 8.289 8.289z"></path>
<path fill="#9bb537" style="fill: var(--color2, #9bb537)" d="M37.398 11.373c0 4.578-3.711 8.289-8.289 8.289s-8.289-3.711-8.289-8.289 3.711-8.289 8.289-8.289 8.289 3.711 8.289 8.289z"></path>
<path fill="#f8f8f8" style="fill: var(--color1, #f8f8f8)" d="M7.325 29.301h23.133v2.036c0 0.366-0.324 0.663-0.723 0.663h-21.687c-0.399 0-0.723-0.297-0.723-0.663v-2.036zM14.265 10.36c0-0.611 0.432-1.107 0.964-1.107s0.964 0.495 0.964 1.107v5.112c0 0.611-0.432 1.107-0.964 1.107s-0.964-0.495-0.964-1.107v-5.112zM17.349 10.36c0-0.611 0.604-1.107 1.349-1.107s1.349 0.495 1.349 1.107v5.112c0 0.611-0.604 1.107-1.349 1.107s-1.349-0.495-1.349-1.107v-5.112zM21.205 10.36c0-0.611 0.432-1.107 0.964-1.107s0.964 0.495 0.964 1.107v5.112c0 0.611-0.432 1.107-0.964 1.107s-0.964-0.495-0.964-1.107v-5.112z"></path>
<path fill="#050505" style="fill: var(--color3, #050505)" d="M28.184 3.131c0.262-0.029 0.566-0.045 0.874-0.045 0.002 0 0.003 0 0.005 0h-0c3.714 0 6.861 2.412 7.938 5.746-0.289 0.030-0.582 0.046-0.878 0.046-3.714 0-6.861-2.413-7.938-5.746z"></path>
</symbol>
<symbol id="icon-star" viewBox="0 0 34 32">
<path d="M6.04894 0.927052C6.3483 0.0057416 7.6517 0.00574088 7.95106 0.927052L8.79611 3.52786C8.92999 3.93989 9.31394 4.21885 9.74717 4.21885H12.4818C13.4505 4.21885 13.8533 5.45846 13.0696 6.02786L10.8572 7.63525C10.5067 7.8899 10.3601 8.34127 10.494 8.75329L11.339 11.3541C11.6384 12.2754 10.5839 13.0415 9.80017 12.4721L7.58779 10.8647C7.2373 10.6101 6.7627 10.6101 6.41222 10.8647L4.19983 12.4721C3.41612 13.0415 2.36164 12.2754 2.66099 11.3541L3.50604 8.75329C3.63992 8.34127 3.49326 7.8899 3.14277 7.63525L0.930391 6.02787C0.146677 5.45846 0.549452 4.21885 1.51818 4.21885H4.25283C4.68606 4.21885 5.07001 3.93989 5.20389 3.52786L6.04894 0.927052Z" fill="#EEA10C"/>
</symbol>
<symbol id="icon-star-grey" viewBox="0 0 34 32">
<path d="M6.04894 0.927052C6.3483 0.0057416 7.6517 0.00574088 7.95106 0.927052L8.79611 3.52786C8.92999 3.93989 9.31394 4.21885 9.74717 4.21885H12.4818C13.4505 4.21885 13.8533 5.45846 13.0696 6.02786L10.8572 7.63525C10.5067 7.8899 10.3601 8.34127 10.494 8.75329L11.339 11.3541C11.6384 12.2754 10.5839 13.0415 9.80017 12.4721L7.58779 10.8647C7.2373 10.6101 6.7627 10.6101 6.41222 10.8647L4.19983 12.4721C3.41612 13.0415 2.36164 12.2754 2.66099 11.3541L3.50604 8.75329C3.63992 8.34127 3.49326 7.8899 3.14277 7.63525L0.930391 6.02787C0.146677 5.45846 0.549452 4.21885 1.51818 4.21885H4.25283C4.68606 4.21885 5.07001 3.93989 5.20389 3.52786L6.04894 0.927052Z" fill="grey"/>
</symbol>
<symbol id="icon-korzynka1" viewBox="0 0 32 32">
<path stroke-linejoin="round" stroke-linecap="round" stroke-miterlimit="4" stroke-width="2.6667" d="M12 29.333c0.736 0 1.333-0.597 1.333-1.333s-0.597-1.333-1.333-1.333v0c-0.736 0-1.333 0.597-1.333 1.333s0.597 1.333 1.333 1.333v0zM26.667 29.333c0.736 0 1.333-0.597 1.333-1.333s-0.597-1.333-1.333-1.333v0c-0.736 0-1.333 0.597-1.333 1.333s0.597 1.333 1.333 1.333v0z"></path>
<path stroke-linejoin="round" stroke-linecap="round" stroke-miterlimit="4" stroke-width="2.4" d="M1.333 1.333h5.333l3.573 17.853c0.251 1.233 1.327 2.147 2.616 2.147 0.018 0 0.036-0 0.054-0.001l-0.003 0h12.96c0.015 0 0.033 0 0.051 0 1.289 0 2.364-0.914 2.613-2.13l0.003-0.017 2.133-11.187h-22.667"></path>
</symbol>
<symbol id="icon-cook-1" viewBox="0 0 40 32">
<path d="M27.884 0.037c-0.174 0.031-0.245 0.081-0.205 0.146 0.022 0.034 0.056 0.034 0.186 0.006 0.419-0.090 1.010-0.012 1.721 0.227 0.621 0.208 0.935 0.407 1.233 0.783 0.286 0.357 0.733 1.041 0.898 1.376 0.208 0.413 0.289 0.649 0.519 1.525 0.242 0.91 0.354 1.296 0.634 2.159 0.258 0.798 0.295 0.969 0.27 1.292-0.016 0.208-0.012 0.252 0.028 0.267 0.068 0.025 0.099-0.037 0.121-0.255 0.031-0.277-0.025-0.534-0.283-1.345-0.264-0.833-0.469-1.535-0.68-2.352-0.171-0.659-0.311-1.050-0.503-1.414-0.264-0.497-0.839-1.327-1.1-1.588-0.189-0.19-0.463-0.354-0.817-0.488-0.826-0.32-1.522-0.438-2.023-0.342zM26.951 0.177c-0.034 0.006-0.168 0.040-0.298 0.071-0.833 0.211-1.609 0.854-2.001 1.662-0.217 0.447-0.255 0.621-0.373 1.771-0.053 0.525-0.112 0.758-0.339 1.367-0.283 0.767-0.314 0.901-0.311 1.367 0 0.348 0.012 0.438 0.081 0.643 0.096 0.295 0.258 0.584 0.432 0.78 0.093 0.109 0.155 0.224 0.217 0.413 0.118 0.348 0.221 0.544 0.363 0.693 0.115 0.121 0.255 0.171 0.255 0.090 0-0.022-0.056-0.093-0.121-0.165-0.273-0.28-0.426-0.724-0.485-1.414-0.050-0.578-0.078-0.752-0.193-1.196-0.084-0.326-0.137-0.429-0.199-0.367-0.028 0.028-0.016 0.118 0.047 0.357 0.112 0.441 0.168 0.777 0.189 1.153l0.022 0.317-0.065-0.078c-0.106-0.124-0.214-0.332-0.301-0.572-0.065-0.177-0.087-0.292-0.099-0.578-0.016-0.435 0.031-0.652 0.304-1.392 0.273-0.736 0.304-0.882 0.388-1.79 0.056-0.593 0.106-0.839 0.23-1.153 0.354-0.885 1.146-1.566 2.085-1.796 0.158-0.040 0.295-0.087 0.301-0.106 0.016-0.047-0.059-0.093-0.131-0.081z"></path>
<path d="M26.346 0.792c-0.031 0.037-0.006 0.081 0.124 0.224 0.332 0.363 0.631 0.885 0.892 1.563 0.075 0.196 0.189 0.488 0.252 0.649 0.127 0.329 0.283 0.587 0.46 0.764l0.115 0.118-0.149-0.022c-0.261-0.040-0.559-0.158-0.727-0.292-0.090-0.071-0.189-0.131-0.224-0.131s-0.087-0.019-0.121-0.037c-0.047-0.031-0.068-0.031-0.099 0-0.065 0.065 0.003 0.127 0.336 0.32 0.351 0.205 0.544 0.261 1.069 0.308 0.193 0.016 0.354 0.034 0.357 0.037 0.003 0.006 0.044 0.143 0.090 0.304 0.099 0.351 0.23 0.6 0.519 0.982 0.199 0.267 0.528 0.603 0.587 0.603 0.040 0 0.056 0.068 0.124 0.621 0.118 0.929 0.242 1.292 0.553 1.609 0.090 0.093 0.158 0.174 0.155 0.177-0.006 0.006-0.099 0.075-0.211 0.158-0.516 0.376-1.407 1.24-1.845 1.783-0.115 0.146-0.221 0.267-0.236 0.273-0.022 0.009 0.009-0.242 0.047-0.351 0.012-0.034 0.087-0.224 0.165-0.419 0.177-0.45 0.199-0.671 0.103-1.078-0.040-0.171-0.065-0.385-0.065-0.547 0-0.311-0.022-0.336-0.252-0.311l-0.143 0.016-0.071-0.143c-0.037-0.081-0.109-0.174-0.155-0.211-0.056-0.040-0.081-0.081-0.071-0.118 0.028-0.109-0.273-0.264-0.721-0.367-0.395-0.090-0.624-0.112-0.808-0.068-0.084 0.022-0.252 0.050-0.373 0.062-0.196 0.022-0.227 0.037-0.32 0.14-0.099 0.109-0.106 0.127-0.093 0.283s0.009 0.168-0.071 0.199c-0.044 0.019-0.121 0.078-0.171 0.127l-0.087 0.090-0.258-0.46c-0.143-0.252-0.286-0.547-0.32-0.656-0.078-0.242-0.084-0.736-0.016-1.122 0.062-0.354 0.059-0.404-0.012-0.404-0.047 0-0.068 0.034-0.090 0.146-0.121 0.562-0.124 1.128-0.006 1.47 0.037 0.112 0.193 0.423 0.348 0.696l0.283 0.491-0.053 0.301c-0.031 0.165-0.137 0.55-0.236 0.857-0.103 0.314-0.205 0.708-0.236 0.901-0.071 0.435-0.081 1.283-0.016 1.364 0.025 0.028 0.056 0.047 0.075 0.040 0.016-0.003 0.031-0.249 0.037-0.597 0.006-0.724 0.053-0.988 0.295-1.724 0.099-0.298 0.199-0.652 0.217-0.786 0.022-0.134 0.053-0.249 0.065-0.258 0.016-0.009 0.028-0.050 0.028-0.087 0-0.093 0.124-0.227 0.267-0.286 0.062-0.025 0.118-0.040 0.124-0.034 0.009 0.006-0.034 0.18-0.093 0.382-0.143 0.5-0.224 0.969-0.177 1.016 0.065 0.065 0.106-0.028 0.193-0.45 0.047-0.227 0.131-0.553 0.183-0.724 0.124-0.382 0.214-0.488 0.475-0.544 0.096-0.022 0.183-0.034 0.193-0.025 0.009 0.006 0 0.059-0.016 0.118-0.016 0.056-0.044 0.323-0.062 0.596-0.025 0.41-0.044 0.525-0.109 0.693-0.081 0.202-0.081 0.264 0 0.264 0.121 0 0.227-0.407 0.261-1.013 0.040-0.652 0.093-0.758 0.379-0.758 0.115 0 0.149 0.019 0.283 0.152 0.127 0.127 0.149 0.165 0.124 0.211-0.040 0.071-0.217 0.976-0.242 1.218-0.019 0.19 0.031 0.308 0.118 0.273 0.037-0.012 0.047-0.050 0.034-0.152-0.022-0.199 0.174-1.224 0.258-1.355 0.078-0.121 0.217-0.093 0.376 0.075l0.134 0.146 0.003 0.997c0.003 0.547 0.012 1.038 0.025 1.091 0.025 0.121 0.146 0.137 0.137 0.016-0.003-0.043-0.006-0.491-0.009-0.994l-0.003-0.916 0.071-0.022c0.137-0.037 0.14-0.034 0.158 0.267 0.012 0.162 0.050 0.41 0.087 0.55 0.084 0.323 0.065 0.454-0.14 0.966-0.162 0.41-0.196 0.544-0.221 0.87-0.022 0.267-0.14 0.547-0.36 0.873-0.115 0.168-0.14 0.27-0.062 0.27 0.044 0 0.177-0.168 0.317-0.404 0.093-0.162 0.137-0.208 0.18-0.196 0.040 0.009 0.093-0.040 0.202-0.19 0.342-0.478 1.348-1.46 1.824-1.777 0.519-0.348 1.146-0.593 1.581-0.624 0.277-0.022 0.643 0.047 0.861 0.155 0.084 0.043 0.323 0.143 0.537 0.224 0.848 0.32 0.972 0.432 1.348 1.202 0.329 0.677 0.578 1.261 0.721 1.693 0.059 0.183 0.127 0.376 0.152 0.429 0.193 0.441 1.283 4.073 1.429 4.763 0.087 0.413 0.084 0.802-0.009 2.010-0.050 0.631-0.081 1.168-0.075 1.19s0.037 0.037 0.065 0.031c0.062-0.012 0.078-0.118 0.158-1.236 0.081-1.084 0.081-1.631 0.003-2.004-0.118-0.562-0.789-2.868-1.168-4.008-0.513-1.544-0.6-1.765-1.053-2.74-0.348-0.749-0.51-0.969-0.889-1.196-0.115-0.068-0.168-0.118-0.162-0.155 0.006-0.028-0.096-0.236-0.23-0.463-0.339-0.581-0.423-0.78-0.851-1.995-0.317-0.889-0.391-1.078-0.441-1.078-0.031 0-0.056 0.022-0.056 0.053 0 0.062 0.792 2.327 0.842 2.402 0.016 0.025 0.044 0.078 0.059 0.118 0.019 0.040 0.143 0.267 0.28 0.5 0.137 0.236 0.249 0.438 0.249 0.447 0 0.040-0.534-0.177-0.979-0.398-0.6-0.295-0.755-0.332-1.376-0.323l-0.478 0.009-0.162-0.143c-0.189-0.168-0.332-0.419-0.419-0.739-0.078-0.286-0.202-1.249-0.18-1.364 0.009-0.050 0.003-0.103-0.016-0.121s-0.075-0.221-0.121-0.447c-0.137-0.652-0.367-1.348-0.454-1.383-0.109-0.043-0.106 0.050 0.006 0.336 0.109 0.28 0.295 0.954 0.342 1.24l0.022 0.14-0.071-0.062c-0.186-0.165-0.516-0.575-0.674-0.845-0.124-0.211-0.199-0.423-0.332-0.944-0.245-0.944-0.575-1.746-0.976-2.352-0.189-0.289-0.261-0.351-0.32-0.292-0.022 0.022 0.031 0.124 0.171 0.339 0.357 0.534 0.674 1.246 0.879 1.96 0.044 0.158 0.071 0.298 0.062 0.311-0.040 0.037-0.301-0.127-0.435-0.276-0.18-0.199-0.317-0.475-0.547-1.084-0.326-0.87-0.596-1.37-0.976-1.808-0.171-0.199-0.214-0.227-0.267-0.165zM26.843 7.36c0 0.040-0.152 0.090-0.357 0.112-0.23 0.025-0.491 0.14-0.559 0.245-0.109 0.162-0.233 0.056-0.165-0.14 0.037-0.112 0.106-0.152 0.264-0.155 0.065 0 0.189-0.022 0.273-0.043 0.18-0.047 0.544-0.059 0.544-0.019zM27.564 7.54l0.183 0.081-0.118 0.040c-0.062 0.022-0.115 0.037-0.118 0.034 0-0.003-0.050-0.059-0.106-0.124-0.127-0.137-0.090-0.143 0.158-0.031zM31.938 8.665c0.103 0.022 0.099 0.025-0.093 0.047-0.643 0.078-1.454 0.463-2.066 0.985-0.304 0.255-1.165 1.131-1.333 1.355-0.14 0.183-0.193 0.196-0.075 0.019 0.311-0.469 1.19-1.411 1.78-1.904 0.624-0.519 0.739-0.569 1.305-0.544 0.205 0.009 0.423 0.028 0.482 0.043z"></path>
<path d="M26.197 1.094c-0.056 0.071-0.276 0.531-0.388 0.82-0.18 0.45-0.245 0.777-0.249 1.227-0.003 0.367-0.006 0.391-0.059 0.376-0.040-0.009-0.065 0.006-0.078 0.050-0.006 0.034-0.040 0.068-0.071 0.078-0.034 0.009-0.068 0.068-0.093 0.174-0.019 0.087-0.050 0.152-0.062 0.143-0.047-0.028-0.158-0.364-0.18-0.544-0.022-0.149-0.031-0.171-0.093-0.168s-0.068-0.012-0.068-0.18c0-0.103 0.028-0.261 0.065-0.37 0.047-0.134 0.056-0.199 0.034-0.221-0.084-0.084-0.211 0.186-0.245 0.519-0.019 0.211 0.050 0.531 0.146 0.683 0.034 0.050 0.087 0.134 0.115 0.183 0.031 0.047 0.087 0.137 0.127 0.196 0.037 0.059 0.062 0.118 0.053 0.13-0.006 0.016-0.096 0.056-0.202 0.093-0.186 0.068-0.342 0.214-0.342 0.323 0 0.096 0.068 0.087 0.258-0.034 0.106-0.068 0.363-0.208 0.569-0.317 0.363-0.183 0.379-0.196 0.398-0.304 0.012-0.081 0.006-0.124-0.025-0.146-0.025-0.019-0.059-0.134-0.078-0.255-0.099-0.646 0.028-1.255 0.435-2.069 0.103-0.202 0.177-0.379 0.168-0.395-0.028-0.044-0.096-0.037-0.134 0.006zM27.666 4.412c-0.009 0.019-0.012 0.056-0.003 0.087 0.016 0.040-0.003 0.068-0.056 0.093-0.124 0.056-0.329 0.258-0.329 0.32 0 0.093 0.103 0.071 0.217-0.050 0.112-0.115 0.267-0.202 0.363-0.202 0.034 0 0.044 0.009 0.022 0.025-0.056 0.034-0.106 0.152-0.106 0.239 0 0.050 0.037 0.118 0.090 0.174 0.078 0.075 0.118 0.090 0.242 0.090 0.121 0 0.168-0.016 0.221-0.071 0.037-0.040 0.068-0.093 0.068-0.121s0.025-0.047 0.056-0.043c0.034 0 0.053-0.019 0.053-0.056 0-0.056-0.168-0.186-0.326-0.255-0.025-0.012-0.068-0.040-0.096-0.062-0.053-0.047-0.342-0.199-0.376-0.199-0.012 0-0.031 0.016-0.040 0.031zM28.263 4.952c-0.012 0.028-0.040 0.050-0.068 0.050-0.056 0-0.059-0.016-0.012-0.099 0.040-0.075 0.109-0.028 0.081 0.050zM25.442 4.536c-0.037 0.050-0.162 0.162-0.273 0.252-0.301 0.242-0.438 0.376-0.438 0.435 0 0.112 0.075 0.093 0.23-0.062 0.174-0.171 0.208-0.189 0.183-0.103-0.009 0.037 0.025 0.099 0.093 0.171 0.090 0.099 0.127 0.115 0.242 0.115 0.162 0 0.326-0.090 0.37-0.199 0.016-0.040 0.047-0.081 0.068-0.087 0.059-0.022-0.003-0.174-0.103-0.249-0.044-0.034-0.137-0.068-0.208-0.078l-0.127-0.019 0.059-0.078c0.075-0.093 0.078-0.149 0.016-0.174-0.028-0.009-0.071 0.019-0.112 0.075zM25.709 4.989c0.025 0.134 0 0.171-0.056 0.090-0.044-0.056-0.034-0.202 0.009-0.202 0.012 0 0.034 0.050 0.047 0.112zM26.973 6.22c-0.025 0.025-0.012 0.059 0.056 0.14 0.099 0.115 0.112 0.18 0.056 0.304-0.053 0.115 0.009 0.174 0.099 0.093 0.047-0.043 0.062-0.096 0.062-0.224 0-0.146-0.012-0.183-0.090-0.261-0.099-0.099-0.127-0.109-0.183-0.053zM26.557 6.683c-0.127 0.137-0.171 0.162-0.292 0.177-0.134 0.012-0.146 0.009-0.28-0.13s-0.23-0.171-0.23-0.075c0 0.071 0.18 0.264 0.295 0.317 0.162 0.078 0.363 0.040 0.516-0.096 0.065-0.059 0.134-0.099 0.149-0.087 0.044 0.025 0.146-0.031 0.171-0.093 0.028-0.075-0.037-0.171-0.112-0.171-0.040 0-0.127 0.062-0.217 0.158zM29.828 10.147c-0.242 0.065-0.457 0.19-0.677 0.398-0.239 0.221-0.385 0.441-0.752 1.115-0.298 0.556-1.019 1.647-1.395 2.113-0.261 0.326-0.329 0.447-0.429 0.752l-0.068 0.217-0.351 0.255c-0.196 0.14-0.413 0.317-0.482 0.395-0.32 0.348-0.792 1.187-0.746 1.311 0.025 0.068 0.115 0.050 0.137-0.028 0.065-0.264 0.553-1.031 0.805-1.268 0.168-0.162 0.569-0.438 0.569-0.395 0 0.019-0.022 0.155-0.050 0.298l-0.050 0.264-0.267 0.252c-0.301 0.286-0.565 0.624-0.721 0.929-0.090 0.174-0.103 0.214-0.062 0.239 0.025 0.016 0.053 0.022 0.062 0.016s0.090-0.134 0.18-0.286c0.183-0.308 0.497-0.696 0.671-0.829l0.115-0.087-0.022 0.081c-0.009 0.043-0.022 0.193-0.025 0.326-0.003 0.239-0.006 0.245-0.059 0.186-0.031-0.031-0.068-0.059-0.087-0.059-0.081 0-0.050 0.115 0.103 0.401 0.118 0.227 0.18 0.314 0.224 0.314 0.050 0 0.056-0.016 0.040-0.14-0.012-0.078-0.006-0.146 0.009-0.155 0.050-0.031 0.037-0.131-0.037-0.301-0.062-0.149-0.065-0.174-0.031-0.469 0.028-0.23 0.053-0.32 0.093-0.351 0.044-0.034 0.047-0.050 0.016-0.103-0.034-0.053-0.028-0.121 0.028-0.379l0.065-0.314 0.152-0.109c0.149-0.109 0.193-0.196 0.099-0.196-0.025 0-0.078 0.016-0.112 0.034-0.059 0.031-0.062 0.028-0.044-0.053 0.047-0.186 0.14-0.348 0.336-0.587 0.438-0.541 1.146-1.612 1.473-2.224 0.131-0.245 0.298-0.541 0.373-0.652 0.283-0.429 0.652-0.705 1.047-0.786 0.155-0.031 0.193-0.050 0.193-0.099 0-0.078-0.106-0.087-0.323-0.025z"></path>
<path d="M24.584 12.048c-0.019 0.012-0.053 0.168-0.071 0.345-0.034 0.317-0.037 0.329-0.168 0.482-0.311 0.364-0.404 0.708-0.404 1.497l-0.003 0.562-0.28 0.152c-0.233 0.127-0.286 0.168-0.308 0.249-0.019 0.065-0.065 0.115-0.131 0.149-0.056 0.025-0.124 0.081-0.152 0.121-0.044 0.071-0.044 0.096 0.003 0.304 0.028 0.127 0.109 0.382 0.174 0.572 0.183 0.497 0.245 0.715 0.214 0.724-0.016 0.006-0.152 0.090-0.304 0.189-0.68 0.451-1.205 1.122-1.482 1.892-0.174 0.491-0.351 1.662-0.317 2.094 0.040 0.506 0.23 0.892 0.618 1.255 0.264 0.249 0.596 0.435 0.938 0.528 0.106 0.028 0.379 0.059 0.637 0.071l0.451 0.019 0.32 0.208c0.332 0.221 0.41 0.249 0.41 0.155 0-0.037-0.090-0.115-0.264-0.227-0.143-0.093-0.264-0.177-0.264-0.189 0-0.009 0.059-0.028 0.131-0.040 0.118-0.022 0.134-0.016 0.193 0.065 0.174 0.249 0.612 0.656 0.935 0.867 0.189 0.124 0.367 0.255 0.395 0.286 0.050 0.056 0.047 0.096-0.053 0.724-0.131 0.808-0.155 0.916-0.27 1.193-0.134 0.326-0.177 0.531-0.211 0.988-0.047 0.59-0.084 0.826-0.171 1.016-0.044 0.090-0.078 0.183-0.078 0.205s-0.090 0.189-0.202 0.373c-0.208 0.345-0.224 0.391-0.171 0.525 0.022 0.059 0.019 0.084-0.012 0.103-0.044 0.028-0.149 0.404-0.298 1.075-0.056 0.255-0.124 0.475-0.165 0.544-0.208 0.329-0.401 0.727-0.37 0.758 0.062 0.062 0.118-0.003 0.323-0.379 0.112-0.208 0.211-0.367 0.224-0.348 0.009 0.016 0.028 0.152 0.037 0.298 0.022 0.276 0.050 0.336 0.121 0.264 0.034-0.034 0.037-0.103 0.016-0.329-0.012-0.158-0.044-0.332-0.065-0.391-0.034-0.096-0.025-0.168 0.078-0.615 0.062-0.28 0.134-0.584 0.162-0.674l0.050-0.165 0.186 0.205c0.189 0.205 0.252 0.239 0.286 0.155 0.012-0.034-0.062-0.134-0.214-0.298-0.14-0.146-0.233-0.273-0.233-0.314 0-0.037 0.078-0.189 0.171-0.342 0.096-0.152 0.193-0.336 0.221-0.407 0.025-0.071 0.075-0.205 0.106-0.295 0.065-0.177 0.103-0.447 0.155-1.059 0.022-0.255 0.056-0.454 0.106-0.59 0.040-0.112 0.109-0.304 0.149-0.423 0.044-0.121 0.124-0.503 0.177-0.854 0.056-0.351 0.109-0.659 0.118-0.683 0.009-0.031 0.044 0.006 0.106 0.103 0.090 0.146 0.162 0.183 0.193 0.103 0.022-0.056-0.196-0.388-0.37-0.559-0.075-0.078-0.224-0.193-0.332-0.255-0.407-0.245-0.842-0.652-0.923-0.87-0.087-0.221-0.121-0.416-0.090-0.516 0.028-0.106 0.214-0.329 0.32-0.388 0.068-0.037 0.050-0.134-0.028-0.134-0.068 0-0.286 0.208-0.376 0.363-0.065 0.109-0.078 0.165-0.068 0.311l0.009 0.177-0.124 0.037c-0.217 0.068-0.314 0.056-0.351-0.044-0.059-0.14-0.093-0.339-0.165-0.876-0.062-0.488-0.062-0.534-0.019-0.994 0.025-0.264 0.037-0.5 0.031-0.522-0.009-0.022-0.040-0.037-0.068-0.031-0.053 0.009-0.056 0.025-0.127 0.668-0.031 0.286-0.025 0.373 0.047 0.944 0.047 0.348 0.109 0.699 0.14 0.78l0.056 0.146-0.14 0.022c-0.189 0.028-0.662-0.037-0.941-0.131-0.416-0.14-0.743-0.376-0.985-0.718-0.298-0.419-0.373-0.851-0.273-1.625 0.168-1.336 0.469-2.023 1.196-2.712 0.217-0.208 0.68-0.55 0.746-0.55 0.009 0 0.034 0.053 0.050 0.115 0.016 0.071 0.047 0.118 0.075 0.118 0.037 0 0.047-0.040 0.040-0.193-0.003-0.149-0.056-0.348-0.221-0.839-0.121-0.357-0.227-0.702-0.239-0.771-0.016-0.115-0.012-0.127 0.078-0.183 0.053-0.031 0.099-0.050 0.106-0.043 0.003 0.003 0.031 0.118 0.062 0.249 0.059 0.255 0.087 0.301 0.155 0.245 0.034-0.028 0.034-0.065-0.003-0.214-0.025-0.096-0.047-0.258-0.050-0.354l-0.009-0.18 0.208-0.109c0.115-0.059 0.217-0.099 0.224-0.087 0.044 0.075 0.087 0.755 0.050 0.802-0.012 0.019-0.065 0.118-0.115 0.217-0.14 0.283-0.174 0.497-0.149 0.966 0.016 0.391 0.016 0.419-0.075 0.699-0.149 0.475-0.196 0.823-0.177 1.286 0.022 0.509 0.127 0.963 0.224 0.963 0.075 0 0.075-0.031-0.012-0.404-0.087-0.376-0.090-1.007-0.006-1.383 0.081-0.357 0.152-0.544 0.46-1.19 0.143-0.304 0.258-0.578 0.252-0.606-0.016-0.075-0.093-0.065-0.134 0.012-0.016 0.034-0.109 0.224-0.202 0.419l-0.171 0.354-0.025-0.186c-0.028-0.239 0.022-0.606 0.112-0.805 0.040-0.087 0.214-0.379 0.388-0.646 0.174-0.27 0.317-0.513 0.317-0.537s-0.025-0.047-0.059-0.047c-0.040 0-0.121 0.096-0.258 0.314l-0.199 0.311-0.059-0.472c-0.096-0.811-0.059-1.423 0.115-1.886 0.078-0.205 0.363-0.509 0.615-0.652 0.171-0.099 0.32-0.127 0.357-0.068 0.025 0.040 0.252 0.040 0.336-0.003 0.037-0.019 0.14-0.084 0.227-0.143 0.134-0.090 0.221-0.118 0.6-0.19l0.441-0.081 0.385 0.127c0.32 0.106 0.391 0.121 0.419 0.084 0.022-0.022 0.028-0.056 0.016-0.071-0.009-0.019-0.199-0.090-0.419-0.162l-0.401-0.13-0.451 0.087c-0.373 0.068-0.478 0.103-0.615 0.19-0.336 0.211-0.351 0.217-0.475 0.158-0.152-0.071-0.196-0.068-0.432 0.053l-0.208 0.103 0.019-0.174c0.009-0.096 0.025-0.211 0.034-0.255 0.016-0.087-0.044-0.162-0.103-0.127zM33.15 15.285c-1.283 1.193-1.544 1.47-1.911 2.019-0.304 0.457-0.454 0.727-1.019 1.849-0.233 0.46-0.506 0.969-0.612 1.128-0.189 0.295-0.214 0.357-0.149 0.398 0.044 0.028 0.112-0.056 0.311-0.379l0.152-0.252 0.27 0.040c0.55 0.087 1.038 0.28 1.522 0.6 0.351 0.233 0.475 0.298 0.951 0.497 0.69 0.289 1.463 0.795 1.976 1.292 0.423 0.41 0.565 0.506 1.243 0.87 0.575 0.308 0.876 0.494 1.090 0.671 0.134 0.115 0.146 0.14 0.177 0.332 0.019 0.115 0.084 0.354 0.143 0.534s0.149 0.478 0.205 0.668c0.053 0.186 0.165 0.559 0.249 0.823 0.171 0.544 0.581 2.165 0.699 2.743 0.040 0.208 0.090 0.531 0.112 0.715 0.034 0.314 0.040 0.336 0.103 0.326 0.059-0.009 0.065-0.025 0.056-0.196-0.031-0.556-0.494-2.551-0.873-3.772-0.103-0.332-0.183-0.609-0.18-0.615 0.025-0.025 0.979 1.836 1.153 2.249 0.093 0.224 0.096 0.249 0.037 0.199-0.031-0.028-0.050-0.028-0.065-0.003-0.012 0.022-0.078 0.031-0.152 0.025-0.109-0.009-0.127 0-0.127 0.053 0 0.047 0.031 0.068 0.13 0.090 0.121 0.025 0.134 0.037 0.152 0.14 0.025 0.143 0.065 0.189 0.155 0.189 0.087 0 0.14 0.093 0.199 0.339 0.028 0.124 0.071 0.196 0.158 0.283 0.165 0.158 0.205 0.345 0.155 0.727-0.022 0.155-0.044 0.345-0.053 0.416-0.019 0.149-0.009 0.149-0.267 0.050-0.109-0.044-0.158-0.047-0.183-0.022-0.050 0.050-0.012 0.096 0.121 0.152 0.062 0.025 0.14 0.078 0.168 0.115 0.047 0.059 0.062 0.062 0.118 0.028s0.062-0.031 0.062 0.047c0 0.050 0.047 0.311 0.103 0.584 0.081 0.388 0.115 0.5 0.155 0.506 0.028 0.006 0.059-0.009 0.068-0.031 0.028-0.068-0.199-1.094-0.245-1.128-0.034-0.028-0.037-0.047-0.003-0.109 0.022-0.044 0.056-0.23 0.078-0.416 0.019-0.189 0.044-0.354 0.050-0.367 0.009-0.016 0-0.127-0.019-0.249-0.034-0.186-0.056-0.239-0.162-0.351-0.087-0.096-0.137-0.189-0.177-0.339-0.062-0.221-0.121-0.308-0.258-0.379-0.109-0.056-0.124-0.199-0.025-0.199 0.034 0 0.071-0.022 0.081-0.047s-0.056-0.208-0.143-0.41c-0.295-0.668-1.233-2.461-1.401-2.678-0.078-0.099-0.211-0.528-0.236-0.752-0.016-0.171-0.031-0.193-0.177-0.332-0.224-0.211-0.466-0.37-1.035-0.668-0.87-0.463-0.932-0.509-1.392-0.972-0.454-0.457-1.423-1.059-2.215-1.376-0.143-0.056-0.407-0.202-0.59-0.323-0.183-0.118-0.457-0.28-0.612-0.351-0.27-0.127-0.767-0.292-0.889-0.292-0.034 0-0.059-0.009-0.059-0.025 0.003-0.012 0.286-0.189 0.631-0.395 0.463-0.273 0.68-0.423 0.823-0.565 0.174-0.171 0.221-0.199 0.404-0.245 0.373-0.093 0.727-0.233 1.249-0.494 0.283-0.14 0.612-0.286 0.73-0.326 0.488-0.158 0.637-0.308 0.687-0.687 0.012-0.106 0.050-0.199 0.093-0.255 0.096-0.115 0.14-0.292 0.14-0.559-0.003-0.124 0.006-0.292 0.016-0.373 0.012-0.090 0.003-0.186-0.019-0.239-0.040-0.099-0.286-0.342-0.345-0.342-0.022 0-0.028-0.037-0.016-0.109 0.040-0.214-0.146-0.438-0.423-0.516-0.099-0.025-0.118-0.043-0.118-0.115 0-0.050-0.016-0.103-0.034-0.121-0.022-0.022 0.009-0.068 0.109-0.155 0.146-0.13 0.183-0.227 0.090-0.227-0.031 0-0.565 0.475-1.19 1.056zM34.007 14.804c-0.009 0.025-0.053 0.047-0.096 0.047h-0.081l0.087-0.075c0.084-0.075 0.124-0.062 0.090 0.028zM34.016 14.981c0.18-0.025 0.208-0.022 0.332 0.047 0.221 0.124 0.292 0.286 0.177 0.391-0.112 0.096-1.134 0.457-1.33 0.466-0.103 0.006-0.124 0.019-0.124 0.068 0 0.149 0.441 0.053 1.236-0.27l0.301-0.124 0.109 0.068c0.149 0.093 0.239 0.23 0.245 0.373 0.003 0.214-0.127 0.292-0.715 0.416-0.208 0.044-0.444 0.103-0.528 0.131-0.18 0.062-0.382 0.183-0.407 0.249-0.031 0.084 0.056 0.106 0.152 0.040 0.155-0.112 0.345-0.177 0.755-0.261 0.224-0.047 0.472-0.112 0.556-0.143l0.149-0.056-0.012 0.214c-0.009 0.193-0.022 0.227-0.112 0.32-0.124 0.127-0.643 0.382-1.112 0.547-0.267 0.096-0.339 0.134-0.339 0.177s0.022 0.059 0.081 0.053c0.103-0.006 0.621-0.199 0.985-0.37 0.258-0.121 0.286-0.127 0.286-0.071 0 0.099-0.081 0.261-0.174 0.351-0.053 0.047-0.211 0.121-0.373 0.174-0.158 0.053-0.522 0.214-0.808 0.36-0.46 0.23-1.1 0.478-1.243 0.478-0.040 0-0.044-0.019-0.022-0.103 0.012-0.053 0.025-0.261 0.022-0.457 0-0.385-0.059-0.621-0.261-1.038l-0.087-0.183 0.283-0.292c0.158-0.158 0.606-0.587 1-0.954 0.578-0.534 0.721-0.652 0.749-0.618 0.025 0.037 0.068 0.040 0.227 0.016zM31.882 17.507c0.081 0.233 0.096 0.326 0.096 0.575 0 0.382-0.075 0.59-0.289 0.802-0.143 0.14-0.273 0.227-1.103 0.73-0.258 0.155-0.373 0.242-0.37 0.28 0.006 0.056-0.093 0.071-0.165 0.028-0.028-0.019 0.106-0.308 0.482-1.047 0.565-1.106 0.833-1.566 1.075-1.842l0.065-0.071 0.056 0.134c0.031 0.075 0.103 0.258 0.152 0.413zM10.358 20.141c-0.006 0.022 0.006 0.124 0.034 0.224 0.047 0.18 0.062 0.357 0.031 0.357-0.009 0-0.043-0.028-0.078-0.062-0.090-0.090-0.137-0.078-0.261 0.068-0.134 0.155-0.149 0.292-0.040 0.391 0.087 0.081 0.199 0.087 0.295 0.019 0.040-0.028 0.081-0.044 0.087-0.034 0.009 0.009 0.040 0.096 0.068 0.199 0.065 0.239 0.065 0.892-0.003 1.264-0.040 0.211-0.043 0.289-0.016 0.32 0.065 0.078 0.112-0.022 0.165-0.342 0.050-0.311 0.065-0.889 0.031-1.103-0.012-0.062-0.050-0.202-0.084-0.311-0.053-0.162-0.056-0.217-0.028-0.345 0.022-0.109 0.022-0.208 0-0.336-0.053-0.273-0.152-0.432-0.202-0.311zM10.346 20.93c0 0.044-0.096 0.103-0.168 0.103-0.065 0-0.062-0.106 0.003-0.205l0.053-0.081 0.056 0.075c0.028 0.037 0.056 0.087 0.056 0.109zM15.571 20.452c-0.019 0.019-0.090 0.155-0.158 0.298-0.162 0.336-0.165 0.451-0.019 0.895 0.124 0.382 0.13 0.429 0.056 0.398-0.242-0.099-0.429-0.078-0.6 0.065-0.13 0.112-0.186 0.23-0.186 0.401 0 0.401 0.376 0.687 0.687 0.525 0.103-0.053 0.277-0.301 0.277-0.395 0-0.031 0.016-0.047 0.031-0.037 0.047 0.031 0.037 0.451-0.016 0.64-0.028 0.093-0.174 0.419-0.329 0.727-0.463 0.929-0.513 1.367-0.23 1.963 0.174 0.373 0.513 0.826 0.59 0.798 0.071-0.028 0.059-0.062-0.137-0.332-0.391-0.544-0.485-0.802-0.46-1.261 0.019-0.357 0.090-0.578 0.379-1.128 0.273-0.525 0.357-0.761 0.379-1.063 0.012-0.208 0.006-0.283-0.050-0.438-0.037-0.103-0.096-0.304-0.127-0.451s-0.093-0.367-0.137-0.494c-0.109-0.314-0.106-0.488 0.016-0.755 0.056-0.115 0.118-0.211 0.143-0.211 0.059 0 0.084-0.087 0.040-0.14-0.047-0.056-0.106-0.059-0.149-0.006zM15.366 22.17c0.059 0.028 0.124 0.081 0.14 0.115 0.065 0.118-0.022 0.413-0.168 0.572-0.134 0.146-0.395 0.059-0.494-0.165-0.093-0.217-0.025-0.423 0.171-0.522 0.127-0.062 0.221-0.062 0.351 0zM13.378 20.822c-0.025 0.040-0.056 0.134-0.065 0.211-0.012 0.078-0.068 0.264-0.13 0.413-0.118 0.301-0.118 0.286 0.009 0.73 0.134 0.457 0.261 0.758 0.317 0.746 0.031-0.006 0.053-0.044 0.056-0.087 0-0.044 0.012-0.103 0.025-0.134 0.031-0.065-0.025-0.715-0.096-1.146-0.050-0.295-0.047-0.32 0.003-0.472 0.065-0.186 0.056-0.308-0.019-0.323-0.028-0.006-0.075 0.022-0.099 0.062zM13.406 21.965c0.075 0.621 0.056 0.646-0.093 0.112-0.075-0.27-0.081-0.32-0.047-0.429 0.019-0.075 0.047-0.115 0.062-0.099s0.050 0.202 0.078 0.416zM16.705 20.93c-0.006 0.016 0.006 0.255 0.034 0.534l0.047 0.513-0.084 0.342c-0.134 0.559-0.18 0.91-0.168 1.205 0.012 0.245 0.025 0.298 0.146 0.534 0.152 0.301 0.233 0.391 0.292 0.332 0.028-0.028 0.025-0.059-0.022-0.137-0.221-0.379-0.252-0.466-0.261-0.749-0.009-0.171 0.009-0.407 0.040-0.615 0.059-0.354 0.109-0.466 0.109-0.236 0 0.075 0.016 0.435 0.034 0.802 0.034 0.659 0.053 0.752 0.143 0.677 0.040-0.034 0.040-0.044-0.040-1.379-0.031-0.541-0.037-0.805-0.016-0.861 0.059-0.152 0.075-0.472 0.034-0.64-0.053-0.224-0.233-0.423-0.289-0.323zM18.268 23.195c0 0.028 0.025 0.137 0.053 0.242 0.034 0.124 0.053 0.317 0.053 0.562l0.003 0.373-0.18 0.401c-0.224 0.494-0.301 0.808-0.301 1.193 0 0.283 0.003 0.289 0.071 0.28 0.047-0.006 0.065-0.028 0.062-0.071-0.019-0.202 0.065-0.55 0.224-0.944 0.357-0.889 0.413-1.494 0.183-1.97-0.056-0.118-0.168-0.162-0.168-0.065zM10.405 23.242c-0.090 0.090-0.059 0.264 0.115 0.674 0.078 0.177 0.168 0.423 0.202 0.547 0.081 0.295 0.155 0.777 0.134 0.898-0.034 0.208-0.047 0.239-0.087 0.239-0.065 0-0.075 0.062-0.047 0.233 0.016 0.103 0.006 0.308-0.025 0.59-0.028 0.264-0.040 0.544-0.031 0.715 0.022 0.332 0.124 0.876 0.186 1 0.062 0.121 0.165 0.208 0.221 0.186 0.025-0.009 0.084-0.134 0.13-0.276 0.068-0.217 0.084-0.314 0.084-0.615 0.003-0.391-0.028-0.537-0.214-0.985-0.099-0.245-0.103-0.261-0.075-0.503 0.031-0.273 0.047-0.901 0.037-1.392-0.012-0.5-0.183-1.041-0.407-1.28-0.106-0.115-0.137-0.118-0.224-0.031zM10.653 23.574c0.047 0.096 0.109 0.245 0.137 0.332 0.053 0.165 0.121 0.547 0.103 0.569-0.006 0.006-0.037-0.068-0.065-0.165s-0.103-0.298-0.171-0.451c-0.202-0.457-0.205-0.687-0.003-0.286zM10.833 26.942c-0.006 0.075-0.012 0.022-0.012-0.115s0.006-0.196 0.012-0.134c0.006 0.065 0.006 0.177 0 0.249zM11.135 27.417c-0.003 0.252-0.019 0.419-0.050 0.513l-0.047 0.14-0.065-0.14c-0.084-0.174-0.084-0.214-0.016-0.789l0.056-0.46 0.059 0.18c0.047 0.14 0.062 0.27 0.062 0.556z"></path>
<path d="M17.351 23.425c-0.012 0.019-0.003 0.189 0.019 0.379 0.078 0.711-0.019 1.414-0.286 2.116-0.28 0.724-0.27 0.68-0.273 1.395-0.003 0.721 0.025 0.929 0.202 1.563 0.062 0.221 0.121 0.435 0.127 0.475l0.019 0.071-0.354-0.019c-0.196-0.012-0.55-0.040-0.789-0.065s-0.444-0.044-0.457-0.044c-0.016 0-0.025-0.040-0.025-0.087 0-0.118-0.096-0.205-0.199-0.18-0.043 0.009-0.124 0.071-0.186 0.134l-0.106 0.115-0.124-0.084c-0.298-0.196-0.727-1.171-0.923-2.103-0.109-0.513-0.127-0.982-0.065-1.544 0.075-0.662 0.065-0.848-0.040-0.848-0.028-0.003-0.078-0.047-0.112-0.103-0.037-0.059-0.134-0.134-0.23-0.186-0.301-0.149-0.702-0.103-1.153 0.137-0.27 0.143-0.441 0.311-0.603 0.587-0.168 0.292-0.183 0.233 0.152 0.621 0.245 0.286 0.364 0.5 0.45 0.823 0.037 0.137 0.134 0.451 0.217 0.699s0.162 0.531 0.174 0.631c0.022 0.193-0.043 1.103-0.081 1.156-0.016 0.016-0.034 0.093-0.047 0.171l-0.022 0.14h-0.671c-0.37 0-0.92-0.012-1.218-0.028-0.6-0.031-1.693 0.016-2.128 0.090-0.457 0.081-0.668 0.193-0.668 0.354 0.003 0.165 0.155 0.267 0.354 0.239 0.121-0.019 0.134-0.012 0.292 0.152 0.090 0.093 0.239 0.205 0.326 0.249l0.162 0.081-0.311-0.019c-0.171-0.009-0.652-0.037-1.072-0.062-1.845-0.106-2.42-0.121-2.986-0.078-0.721 0.059-0.87 0.056-1.383-0.012-0.289-0.037-0.562-0.053-0.808-0.047-0.336 0.012-0.385 0.022-0.556 0.106-0.202 0.099-0.379 0.298-0.41 0.457-0.009 0.047-0.028 0.096-0.044 0.103-0.047 0.031-0.916 0.168-1.202 0.189-0.211 0.016-0.295 0.034-0.308 0.065-0.028 0.075 0.043 0.096 0.267 0.081 0.186-0.012 0.842-0.103 1.128-0.152 0.109-0.019 0.115-0.016 0.124 0.068 0.006 0.065 0.025 0.090 0.071 0.090 0.050 0 0.065-0.025 0.071-0.109l0.009-0.112 0.441-0.103c0.242-0.056 0.715-0.162 1.047-0.239 0.683-0.158 0.798-0.165 1.314-0.093 0.466 0.062 1.1 0.065 1.671 0 0.565-0.062 0.988-0.044 1.426 0.065 0.438 0.112 1.022 0.137 1.522 0.065 0.196-0.028 0.432-0.050 0.528-0.050 0.205 0 0.985 0.090 1.864 0.217 0.351 0.050 0.73 0.099 0.848 0.112 0.134 0.012 0.233 0.040 0.277 0.078 0.056 0.053 0.071 0.053 0.115 0.016 0.040-0.034 0.099-0.037 0.314-0.016 0.146 0.016 0.867 0.025 1.6 0.025 0.87-0.003 1.429 0.006 1.6 0.031 0.739 0.103 1.342 0.345 1.737 0.705 0.124 0.112 0.221 0.124 0.221 0.031 0-0.040-0.283-0.283-0.472-0.401-0.093-0.059-0.093-0.034-0.006-0.478 0.022-0.124 0.034-0.249 0.025-0.273-0.056-0.14-0.584-0.233-1.364-0.239-0.45-0.006-0.513 0-0.674 0.065-0.273 0.106-0.478 0.255-0.469 0.339 0.009 0.068 0.003 0.068-0.404 0.068-0.224 0-0.441 0.009-0.478 0.019-0.112 0.031-0.096-0.143 0.025-0.283 0.084-0.093 0.152-0.127 0.506-0.236 0.224-0.068 0.444-0.152 0.494-0.186 0.075-0.056 0.158-0.062 0.746-0.081 0.718-0.019 1.348 0.019 1.914 0.115 0.379 0.065 0.522 0.124 0.547 0.227 0.009 0.037 0.022 0.283 0.025 0.547l0.006 0.475-0.186 0.068c-0.143 0.050-0.186 0.081-0.186 0.127 0 0.044 0.019 0.059 0.062 0.056 0.034-0.006 0.273-0.012 0.528-0.022 0.668-0.016 1.122-0.121 1.268-0.295 0.037-0.044 0.121-0.115 0.189-0.155 0.078-0.050 0.14-0.121 0.174-0.202 0.068-0.155 0.106-0.503 0.059-0.534-0.019-0.009-0.177-0.034-0.354-0.053-0.314-0.031-0.32-0.034-0.36-0.127-0.040-0.087-0.065-0.099-0.323-0.152-0.152-0.031-0.444-0.075-0.649-0.093-0.304-0.034-0.376-0.031-0.41 0-0.034 0.034-0.087 0.034-0.314-0.003-0.584-0.099-0.916-0.124-1.656-0.121-0.733 0-0.969 0.019-2.050 0.149-0.463 0.056-0.702 0.059-0.733 0.012-0.012-0.025-0.078-0.028-0.183-0.016-0.103 0.012-0.323-0.006-0.581-0.044-0.615-0.090-0.848-0.103-1.19-0.065-1.022 0.112-1.532 0.158-2.041 0.193l-0.572 0.037-0.165-0.087c-0.155-0.087-0.426-0.348-0.391-0.382 0.009-0.009-0.006-0.040-0.031-0.068-0.047-0.050-0.022-0.056 0.348-0.075 1.069-0.050 1.659-0.053 2.697-0.016 1.619 0.062 2.485 0.053 3.371-0.034 0.898-0.090 2.004-0.096 3.045-0.019 1.109 0.081 1.845 0.096 2.392 0.047 0.721-0.062 0.808-0.059 0.91 0.037 0.103 0.099 0.106 0.152 0.016 0.239-0.127 0.115-0.336 0.146-1.019 0.146-0.351 0-0.715-0.006-0.808-0.016-0.155-0.016-0.171-0.009-0.171 0.047 0 0.081 0.112 0.103 0.668 0.127 0.541 0.025 1.097-0.022 1.289-0.109 0.155-0.068 0.245-0.186 0.236-0.317-0.009-0.149-0.006-0.196 0.016-0.298 0.016-0.084 0.003-0.115-0.075-0.196-0.078-0.075-0.121-0.093-0.233-0.093-0.115 0-0.14-0.009-0.134-0.056 0.003-0.044-0.019-0.053-0.146-0.044-0.124 0.009-0.171-0.006-0.258-0.071-0.084-0.065-0.131-0.078-0.193-0.062-0.236 0.059-0.342 0.056-0.416-0.022-0.040-0.040-0.087-0.103-0.106-0.137-0.034-0.059-0.037-0.059-0.109 0.006-0.040 0.037-0.093 0.075-0.112 0.087-0.056 0.031-0.165-0.034-0.196-0.124-0.016-0.040-0.044-0.075-0.062-0.075s-0.103 0.065-0.186 0.143c-0.18 0.171-0.227 0.165-0.314-0.037-0.071-0.158-0.162-0.261-0.23-0.261-0.025 0-0.087 0.062-0.137 0.137-0.109 0.158-0.233 0.221-0.351 0.177-0.106-0.040-0.224-0.168-0.292-0.317-0.065-0.146-0.155-0.162-0.18-0.037-0.028 0.143-0.084 0.596-0.090 0.727-0.003 0.090-0.016 0.118-0.047 0.106-0.022-0.009-0.109-0.016-0.193-0.016-0.137 0-0.149-0.006-0.165-0.087-0.012-0.047-0.056-0.239-0.096-0.426-0.090-0.385-0.189-0.982-0.224-1.299l-0.019-0.211 0.115 0.078c0.158 0.109 0.304 0.106 0.416-0.006 0.047-0.047 0.121-0.103 0.165-0.127 0.189-0.099 0.214-0.379 0.047-0.547-0.131-0.131-0.292-0.165-0.457-0.099-0.118 0.044-0.121 0.044-0.137-0.028-0.034-0.134 0.040-0.494 0.171-0.805 0.314-0.764 0.32-0.792 0.323-1.289 0-0.578-0.103-1.181-0.202-1.181-0.016 0-0.037 0.016-0.047 0.031zM13.381 24.497c0.435 0.131 0.503 0.596 0.118 0.789-0.261 0.131-0.811 0.127-0.991-0.006-0.056-0.040-0.056-0.047-0.003-0.127 0.19-0.289 0.73-0.407 0.73-0.158 0 0.109-0.096 0.193-0.245 0.217-0.096 0.016-0.127 0.034-0.127 0.081s0.022 0.059 0.109 0.059c0.137 0 0.267-0.065 0.354-0.174 0.165-0.211-0.009-0.478-0.314-0.478-0.252 0-0.677 0.332-0.677 0.525 0 0.131 0.093 0.205 0.329 0.27 0.345 0.093 0.861 0.006 1.056-0.177 0.040-0.037 0.081-0.065 0.087-0.056 0.006 0.006-0.009 0.202-0.034 0.432-0.075 0.668 0.012 1.336 0.286 2.19 0.109 0.339 0.419 1.022 0.544 1.199 0.081 0.112 0.056 0.158-0.071 0.137-0.972-0.162-1.010-0.162-1.212-0.028-0.065 0.044-0.124 0.075-0.13 0.068s0.019-0.115 0.053-0.242c0.090-0.339 0.112-0.994 0.040-1.339-0.081-0.401-0.562-1.693-0.718-1.932-0.043-0.065-0.174-0.18-0.295-0.258-0.121-0.081-0.23-0.174-0.245-0.217-0.040-0.106 0.040-0.298 0.177-0.416 0.202-0.18 0.711-0.395 0.944-0.401 0.043-0.003 0.149 0.019 0.236 0.044zM11.927 25.389c0.019 0.040 0.13 0.134 0.245 0.211 0.112 0.078 0.236 0.186 0.277 0.242 0.068 0.106 0.447 1.041 0.587 1.46 0.112 0.326 0.177 0.808 0.152 1.109-0.019 0.233-0.103 0.659-0.162 0.817-0.028 0.071-0.028 0.071-0.099 0.016l-0.071-0.059 0.053-0.572c0.062-0.68 0.056-0.733-0.171-1.429-0.084-0.264-0.193-0.603-0.236-0.752-0.087-0.292-0.239-0.55-0.503-0.854-0.152-0.174-0.196-0.258-0.137-0.258 0.016 0 0.043 0.031 0.065 0.068zM16.972 26.827c0.012 0.025 0.006 0.053-0.009 0.062-0.019 0.012-0.031-0.009-0.031-0.044 0-0.078 0.019-0.084 0.040-0.019zM17.445 26.924c0.059 0.059 0.053 0.295-0.009 0.317-0.022 0.006-0.096-0.047-0.171-0.118l-0.131-0.131 0.075-0.059c0.090-0.071 0.168-0.075 0.236-0.009zM17.678 27.073c0 0.081-0.019 0.056-0.044-0.059-0.016-0.068-0.012-0.081 0.012-0.047 0.016 0.025 0.031 0.075 0.031 0.106zM17.28 27.327c0.068 0.034 0.084 0.056 0.056 0.075-0.062 0.037-0.149 0-0.249-0.112-0.056-0.065-0.084-0.124-0.071-0.155 0.016-0.040 0.034-0.031 0.093 0.047 0.044 0.053 0.121 0.121 0.171 0.146zM18.147 29.064c0.047 0.025 0.146 0.047 0.217 0.047 0.112 0 0.149-0.019 0.27-0.14 0.075-0.078 0.143-0.14 0.146-0.14 0.006 0 0.034 0.062 0.065 0.14 0.059 0.162 0.171 0.264 0.28 0.264 0.040 0 0.127-0.047 0.193-0.106 0.115-0.106 0.115-0.106 0.189-0.047 0.081 0.065 0.224 0.078 0.32 0.025 0.040-0.022 0.071-0.025 0.084-0.003 0.009 0.016 0.068 0.059 0.127 0.096 0.124 0.075 0.289 0.084 0.404 0.022 0.068-0.040 0.084-0.037 0.165 0.031 0.050 0.040 0.109 0.075 0.134 0.075 0.106 0 0 0.056-0.174 0.093-0.134 0.028-0.255 0.031-0.413 0.012-0.27-0.031-0.736-0.031-1.659 0.003l-0.687 0.025 0.025-0.137c0.016-0.075 0.037-0.217 0.047-0.314l0.019-0.18 0.081 0.093c0.044 0.053 0.118 0.115 0.168 0.14zM15.379 29.344c0 0.093-0.009 0.171-0.022 0.171-0.016 0-0.227 0.022-0.475 0.050-0.249 0.025-0.829 0.056-1.292 0.065l-0.845 0.019 0.025-0.131c0.012-0.071 0.031-0.137 0.037-0.146 0.009-0.006 0.056 0.006 0.106 0.034 0.137 0.071 0.233 0.056 0.429-0.062 0.211-0.127 0.249-0.131 0.743-0.044 0.205 0.034 0.466 0.062 0.578 0.059s0.264 0.006 0.339 0.016c0.124 0.022 0.14 0.016 0.233-0.090 0.056-0.062 0.109-0.112 0.124-0.112 0.012 0 0.022 0.078 0.022 0.171zM21.334 29.49c0.062 0.050 0.050 0.131-0.012 0.103-0.134-0.056-0.27-0.068-0.444-0.050-0.236 0.028-0.205-0.006 0.062-0.068 0.205-0.050 0.323-0.044 0.395 0.016zM15.783 29.465c0 0.025-0.221 0.037-0.236 0.012-0.009-0.012 0.040-0.025 0.109-0.025 0.071 0 0.127 0.006 0.127 0.012zM11.98 29.521c0.556-0.006 0.631 0 0.646 0.044 0.012 0.028 0.016 0.056 0.012 0.059-0.006 0.003-0.311-0.006-0.677-0.022-0.736-0.034-3.303-0.016-3.402 0.022-0.043 0.019-0.053 0.016-0.031-0.009 0.019-0.019 0.205-0.050 0.419-0.065 0.214-0.019 0.444-0.040 0.513-0.047s0.522-0.003 1.010 0.006c0.488 0.009 1.168 0.012 1.51 0.012zM20.039 29.577c0.044 0.016-0.183 0.025-0.528 0.025-0.342 0-0.565-0.012-0.513-0.025 0.124-0.031 0.941-0.031 1.041 0zM8.323 29.763c0.037 0.109 0.003 0.137-0.127 0.118-0.099-0.012-0.112-0.127-0.019-0.174 0.103-0.050 0.109-0.047 0.146 0.056zM12.583 30.294c0.323 0.037 0.388 0.068 0.199 0.099-0.14 0.025-0.211 0.078-0.168 0.131 0.019 0.022 0.022 0.115 0.012 0.23l-0.022 0.193-0.127-0.019c-0.071-0.009-0.429-0.059-0.795-0.109-0.988-0.137-1.414-0.186-2.019-0.245l-0.544-0.053 0.28-0.025c0.624-0.047 1.727-0.152 2.035-0.189 0.423-0.053 0.761-0.056 1.149-0.012zM14.866 30.35c-0.019 0.016-0.143 0.059-0.277 0.099-0.227 0.065-0.252 0.081-0.336 0.211-0.050 0.078-0.096 0.196-0.109 0.264l-0.019 0.121-0.438-0.022c-0.242-0.009-0.547-0.028-0.684-0.040l-0.242-0.019 0.012-0.196c0.006-0.109 0.022-0.205 0.031-0.217 0.065-0.062 0.572-0.131 1.004-0.134 0.36 0 0.907-0.050 1.072-0.093 0.006 0 0 0.009-0.016 0.025zM19.026 30.388l0.23 0.034 0.037 0.143c0.050 0.205 0.075 0.506 0.050 0.668l-0.022 0.143-0.249 0.081c-0.137 0.047-0.255 0.078-0.261 0.071s-0.025-0.23-0.037-0.5c-0.025-0.432-0.037-0.497-0.096-0.581l-0.071-0.093h0.093c0.053 0 0.199 0.016 0.326 0.034zM2.998 30.447c0.205 0.019 0.395 0.040 0.419 0.050 0.040 0.016-0.298 0.106-1.317 0.339-0.186 0.044-0.351 0.078-0.363 0.078-0.062 0-0.022-0.093 0.096-0.227 0.214-0.242 0.475-0.295 1.165-0.239zM19.678 30.54c0.044 0.044 0.065 0.127 0.084 0.342 0.016 0.158 0.019 0.301 0.009 0.317-0.019 0.028-0.081 0.056-0.227 0.103-0.075 0.022-0.075 0.022-0.053-0.131 0.019-0.143-0.016-0.478-0.062-0.652-0.019-0.065-0.012-0.071 0.084-0.053 0.059 0.012 0.131 0.047 0.165 0.075zM6.012 30.506c-0.177 0.071-1.407 0.071-1.364 0 0.009-0.016 0.332-0.028 0.721-0.025 0.388 0 0.677 0.012 0.643 0.025zM8.404 30.624c0.354 0.019 0.385 0.025 0.249 0.047-0.174 0.028-0.739-0.019-0.854-0.068-0.065-0.028-0.056-0.031 0.062-0.016 0.078 0.006 0.323 0.025 0.544 0.037zM16.053 30.683c-0.009 0.009-0.037 0.012-0.059 0.003-0.025-0.009-0.016-0.019 0.019-0.019 0.034-0.003 0.053 0.006 0.040 0.016zM16.885 30.695c0.382 0.037 0.693 0.090 0.715 0.124 0.025 0.037-0.342 0.062-0.966 0.062-0.382 0-0.603-0.012-0.603-0.031s0.034-0.031 0.075-0.031c0.093 0 0.131-0.050 0.081-0.109-0.034-0.040-0.009-0.047 0.158-0.047 0.109 0 0.354 0.016 0.541 0.031zM20.399 30.767c0.006 0.006-0.003 0.093-0.019 0.193-0.022 0.124-0.053 0.208-0.106 0.258-0.071 0.075-0.099 0.075-0.205 0.009-0.025-0.016-0.071-0.037-0.099-0.047-0.047-0.012-0.056-0.056-0.056-0.239v-0.224l0.239 0.022c0.131 0.009 0.242 0.022 0.245 0.028zM15.627 30.903c0.059 0.028 0.146 0.062 0.199 0.075 0.065 0.012-0.003 0.022-0.199 0.025h-0.295l0.087-0.075c0.103-0.093 0.081-0.090 0.208-0.025zM17.572 31.059c-0.009 0.031-0.025 0.121-0.034 0.199l-0.022 0.146-0.158-0.071c-0.208-0.096-0.665-0.227-0.889-0.258-0.146-0.019-0.103-0.025 0.276-0.037 0.907-0.034 0.845-0.037 0.826 0.022zM20.008 31.329c0 0.006-0.022 0.019-0.047 0.031-0.025 0.009-0.047 0.003-0.047-0.012 0-0.019 0.022-0.031 0.047-0.031s0.047 0.006 0.047 0.012z"></path>
<path d="M18.945 25.078c-0.009 0.022 0.003 0.137 0.025 0.258 0.112 0.612 0.109 0.64-0.217 1.83-0.062 0.221-0.112 0.451-0.112 0.509 0 0.106 0.162 0.485 0.221 0.522 0.016 0.009 0.056 0.071 0.090 0.14 0.040 0.078 0.084 0.121 0.124 0.121 0.090 0 0.078-0.087-0.034-0.264l-0.099-0.155 0.131-0.373c0.276-0.786 0.301-0.985 0.193-1.631-0.034-0.196-0.078-0.46-0.093-0.584-0.019-0.124-0.056-0.27-0.081-0.32-0.050-0.093-0.124-0.118-0.146-0.053zM19.172 26.569c0.003 0.158-0.012 0.354-0.034 0.429-0.065 0.258-0.289 0.836-0.314 0.82-0.059-0.037-0.022-0.298 0.124-0.833 0.084-0.311 0.162-0.603 0.174-0.652 0.031-0.149 0.050-0.071 0.050 0.236zM25.056 29.111c-0.031 0.050 0.009 0.090 0.18 0.177 0.205 0.103 0.398 0.233 0.603 0.407 0.149 0.127 0.258 0.155 0.258 0.071 0-0.059-0.376-0.367-0.64-0.525-0.27-0.158-0.363-0.189-0.401-0.131z"></path>
</symbol>
</defs>
</svg>
